<ttFont>
    <TTGlyph name=".notdef" xMin="341" yMin="-430" xMax="2553" yMax="1621">
      <contour>
        <pt x="2074" y="-362" on="1"/>
        <pt x="1800" y="-358" on="1"/>
        <pt x="1747" y="-358" on="0"/>
        <pt x="1611" y="-372" on="1"/>
        <pt x="1381" y="-394" on="1"/>
        <pt x="1009" y="-430" on="0"/>
        <pt x="868" y="-430" on="1"/>
        <pt x="618" y="-430" on="0"/>
        <pt x="542" y="-392" on="1"/>
        <pt x="411" y="-323" on="0"/>
        <pt x="362" y="254" on="1"/>
        <pt x="341" y="492" on="0"/>
        <pt x="341" y="854" on="0"/>
        <pt x="346" y="1035" on="0"/>
        <pt x="357" y="1198" on="0"/>
        <pt x="372" y="1337" on="0"/>
        <pt x="382" y="1391" on="1"/>
        <pt x="403" y="1506" on="0"/>
        <pt x="429" y="1530" on="1"/>
        <pt x="512" y="1608" on="0"/>
        <pt x="757" y="1608" on="1"/>
        <pt x="884" y="1608" on="0"/>
        <pt x="1036" y="1593" on="1"/>
        <pt x="1320" y="1565" on="0"/>
        <pt x="1371" y="1565" on="1"/>
        <pt x="1461" y="1565" on="0"/>
        <pt x="1677" y="1589" on="0"/>
        <pt x="1770" y="1598" on="1"/>
        <pt x="2009" y="1621" on="0"/>
        <pt x="2214" y="1621" on="0"/>
        <pt x="2322" y="1614" on="0"/>
        <pt x="2367" y="1605" on="1"/>
        <pt x="2464" y="1586" on="0"/>
        <pt x="2503" y="1547" on="1"/>
        <pt x="2553" y="1497" on="0"/>
        <pt x="2553" y="1230" on="1"/>
        <pt x="2553" y="1002" on="0"/>
        <pt x="2534" y="805" on="1"/>
        <pt x="2510" y="558" on="1"/>
        <pt x="2506" y="512" on="0"/>
        <pt x="2506" y="389" on="0"/>
        <pt x="2514" y="241" on="0"/>
        <pt x="2518" y="166" on="1"/>
        <pt x="2527" y="20" on="1"/>
        <pt x="2531" y="-52" on="0"/>
        <pt x="2531" y="-102" on="1"/>
        <pt x="2531" y="-193" on="0"/>
        <pt x="2512" y="-281" on="0"/>
        <pt x="2428" y="-328" on="0"/>
        <pt x="2366" y="-341" on="1"/>
        <pt x="2265" y="-362" on="0"/>
      </contour>
      <contour>
        <pt x="931" y="237" on="1"/>
        <pt x="887" y="200" on="0"/>
        <pt x="891" y="132" on="0"/>
        <pt x="911" y="101" on="0"/>
        <pt x="925" y="91" on="1"/>
        <pt x="952" y="72" on="0"/>
        <pt x="983" y="73" on="1"/>
        <pt x="1031" y="75" on="0"/>
        <pt x="1091" y="130" on="1"/>
        <pt x="1381" y="389" on="1"/>
        <pt x="1533" y="186" on="1"/>
        <pt x="1632" y="43" on="0"/>
        <pt x="1726" y="49" on="1"/>
        <pt x="1814" y="52" on="0"/>
        <pt x="1966" y="142" on="1"/>
        <pt x="2079" y="208" on="0"/>
        <pt x="2079" y="267" on="1"/>
        <pt x="2079" y="293" on="0"/>
        <pt x="2037" y="323" on="0"/>
        <pt x="1984" y="323" on="0"/>
        <pt x="1970" y="316" on="1"/>
        <pt x="1940" y="301" on="0"/>
        <pt x="1906" y="301" on="1"/>
        <pt x="1826" y="301" on="0"/>
        <pt x="1774" y="360" on="1"/>
        <pt x="1766" y="367" on="0"/>
        <pt x="1750" y="387" on="1"/>
        <pt x="1598" y="580" on="1"/>
        <pt x="1879" y="830" on="1"/>
        <pt x="2034" y="961" on="1"/>
        <pt x="2056" y="979" on="0"/>
        <pt x="2064" y="984" on="1"/>
        <pt x="2083" y="999" on="0"/>
        <pt x="2081" y="1058" on="0"/>
        <pt x="2046" y="1102" on="0"/>
        <pt x="2020" y="1118" on="1"/>
        <pt x="1967" y="1153" on="0"/>
        <pt x="1900" y="1152" on="0"/>
        <pt x="1857" y="1132" on="0"/>
        <pt x="1810" y="1100" on="0"/>
        <pt x="1786" y="1079" on="1"/>
        <pt x="1738" y="1036" on="1"/>
        <pt x="1459" y="761" on="1"/>
        <pt x="1252" y="1034" on="1"/>
        <pt x="1208" y="1093" on="0"/>
        <pt x="1181" y="1108" on="1"/>
        <pt x="1133" y="1135" on="0"/>
        <pt x="1049" y="1130" on="0"/>
        <pt x="960" y="1109" on="0"/>
        <pt x="924" y="1094" on="1"/>
        <pt x="868" y="1072" on="0"/>
        <pt x="806" y="1025" on="1"/>
        <pt x="786" y="1010" on="0"/>
        <pt x="786" y="958" on="0"/>
        <pt x="794" y="929" on="0"/>
        <pt x="802" y="918" on="1"/>
        <pt x="819" y="892" on="0"/>
        <pt x="880" y="896" on="0"/>
        <pt x="929" y="907" on="0"/>
        <pt x="947" y="907" on="1"/>
        <pt x="983" y="907" on="0"/>
        <pt x="1011" y="879" on="1"/>
        <pt x="1017" y="873" on="0"/>
        <pt x="1040" y="844" on="1"/>
        <pt x="1256" y="560" on="1"/>
      </contour>
    </TTGlyph>
    <TTGlyph name="A" xMin="-11" yMin="-67" xMax="2596" yMax="1369">
      <contour>
        <pt x="257" y="-67" on="1"/>
        <pt x="205" y="-67" on="0"/>
        <pt x="112" y="-18" on="0"/>
        <pt x="74" y="27" on="1"/>
        <pt x="-11" y="130" on="0"/>
        <pt x="-11" y="274" on="1"/>
        <pt x="-11" y="333" on="0"/>
        <pt x="82" y="452" on="0"/>
        <pt x="188" y="500" on="1"/>
        <pt x="426" y="607" on="0"/>
        <pt x="883" y="607" on="1"/>
        <pt x="883" y="607" on="0"/>
        <pt x="1720" y="1256" on="1"/>
        <pt x="1762" y="1289" on="0"/>
        <pt x="1770" y="1296" on="1"/>
        <pt x="1783" y="1310" on="0"/>
        <pt x="1824" y="1310" on="0"/>
        <pt x="1863" y="1302" on="0"/>
        <pt x="1879" y="1295" on="1"/>
        <pt x="1914" y="1280" on="0"/>
        <pt x="1914" y="1260" on="1"/>
        <pt x="1914" y="1246" on="0"/>
        <pt x="1907" y="1238" on="1"/>
        <pt x="1335" y="610" on="1"/>
        <pt x="1579" y="610" on="1"/>
        <pt x="1595" y="646" on="0"/>
        <pt x="1632" y="710" on="1"/>
        <pt x="1724" y="860" on="1"/>
        <pt x="1778" y="946" on="0"/>
        <pt x="1830" y="1022" on="1"/>
        <pt x="1931" y="1162" on="1"/>
        <pt x="2086" y="1369" on="0"/>
        <pt x="2155" y="1369" on="1"/>
        <pt x="2162" y="1369" on="0"/>
        <pt x="2257" y="1332" on="0"/>
        <pt x="2290" y="1314" on="1"/>
        <pt x="2370" y="1272" on="0"/>
        <pt x="2370" y="1235" on="1"/>
        <pt x="2370" y="1200" on="0"/>
        <pt x="2308" y="1123" on="0"/>
        <pt x="2239" y="1019" on="0"/>
        <pt x="2160" y="888" on="0"/>
        <pt x="2080" y="741" on="0"/>
        <pt x="2048" y="672" on="1"/>
        <pt x="1975" y="515" on="0"/>
        <pt x="1975" y="404" on="0"/>
        <pt x="1992" y="354" on="0"/>
        <pt x="2004" y="342" on="1"/>
        <pt x="2023" y="323" on="0"/>
        <pt x="2107" y="323" on="0"/>
        <pt x="2194" y="354" on="0"/>
        <pt x="2277" y="401" on="0"/>
        <pt x="2357" y="456" on="0"/>
        <pt x="2395" y="480" on="1"/>
        <pt x="2483" y="534" on="0"/>
        <pt x="2567" y="534" on="0"/>
        <pt x="2596" y="495" on="0"/>
        <pt x="2596" y="433" on="0"/>
        <pt x="2544" y="328" on="0"/>
        <pt x="2450" y="216" on="0"/>
        <pt x="2322" y="107" on="0"/>
        <pt x="2246" y="64" on="1"/>
        <pt x="2075" y="-31" on="0"/>
        <pt x="1911" y="-31" on="1"/>
        <pt x="1763" y="-31" on="0"/>
        <pt x="1650" y="73" on="1"/>
        <pt x="1524" y="188" on="0"/>
        <pt x="1524" y="370" on="1"/>
        <pt x="1524" y="379" on="0"/>
        <pt x="1524" y="397" on="0"/>
        <pt x="1525" y="407" on="1"/>
        <pt x="1106" y="354" on="1"/>
        <pt x="929" y="180" on="0"/>
        <pt x="678" y="56" on="1"/>
        <pt x="426" y="-67" on="0"/>
      </contour>
    </TTGlyph>
    <TTGlyph name="AE" xMin="92" yMin="-67" xMax="3726" yMax="1369">
      <contour>
        <pt x="2150" y="412" on="1"/>
        <pt x="2150" y="291" on="0"/>
        <pt x="2458" y="291" on="1"/>
        <pt x="2886" y="291" on="0"/>
        <pt x="3253" y="376" on="1"/>
        <pt x="3391" y="408" on="0"/>
        <pt x="3549" y="461" on="0"/>
        <pt x="3582" y="461" on="1"/>
        <pt x="3656" y="461" on="0"/>
        <pt x="3656" y="388" on="1"/>
        <pt x="3656" y="288" on="0"/>
        <pt x="3369" y="173" on="1"/>
        <pt x="2988" y="20" on="0"/>
        <pt x="2518" y="-27" on="1"/>
        <pt x="2407" y="-38" on="0"/>
        <pt x="2102" y="-38" on="0"/>
        <pt x="1837" y="17" on="0"/>
        <pt x="1685" y="122" on="0"/>
        <pt x="1627" y="274" on="0"/>
        <pt x="1627" y="370" on="1"/>
        <pt x="1627" y="406" on="1"/>
        <pt x="1209" y="354" on="1"/>
        <pt x="1032" y="180" on="0"/>
        <pt x="780" y="56" on="1"/>
        <pt x="529" y="-67" on="0"/>
        <pt x="354" y="-67" on="1"/>
        <pt x="256" y="-67" on="0"/>
        <pt x="178" y="27" on="1"/>
        <pt x="92" y="130" on="0"/>
        <pt x="92" y="274" on="1"/>
        <pt x="92" y="333" on="0"/>
        <pt x="185" y="452" on="0"/>
        <pt x="290" y="500" on="1"/>
        <pt x="529" y="607" on="0"/>
        <pt x="986" y="607" on="1"/>
        <pt x="1866" y="1285" on="1"/>
        <pt x="1888" y="1302" on="0"/>
        <pt x="1894" y="1308" on="1"/>
        <pt x="1906" y="1320" on="0"/>
        <pt x="1957" y="1320" on="0"/>
        <pt x="1993" y="1308" on="1"/>
        <pt x="2041" y="1369" on="0"/>
        <pt x="2075" y="1369" on="1"/>
        <pt x="2080" y="1369" on="0"/>
        <pt x="2082" y="1368" on="0"/>
        <pt x="2110" y="1359" on="0"/>
        <pt x="2183" y="1332" on="0"/>
        <pt x="2219" y="1314" on="1"/>
        <pt x="2307" y="1272" on="0"/>
        <pt x="2312" y="1235" on="1"/>
        <pt x="2319" y="1199" on="0"/>
        <pt x="2286" y="1149" on="1"/>
        <pt x="2208" y="1006" on="0"/>
        <pt x="2125" y="725" on="1"/>
        <pt x="2296" y="783" on="0"/>
        <pt x="2507" y="813" on="1"/>
        <pt x="2441" y="851" on="0"/>
        <pt x="2416" y="940" on="1"/>
        <pt x="2410" y="964" on="0"/>
        <pt x="2410" y="984" on="1"/>
        <pt x="2410" y="1293" on="0"/>
        <pt x="3206" y="1350" on="1"/>
        <pt x="3367" y="1361" on="0"/>
        <pt x="3527" y="1361" on="1"/>
        <pt x="3726" y="1361" on="0"/>
        <pt x="3726" y="1259" on="1"/>
        <pt x="3726" y="1117" on="0"/>
        <pt x="3497" y="1085" on="1"/>
        <pt x="3432" y="1076" on="0"/>
        <pt x="3311" y="1076" on="0"/>
        <pt x="3206" y="1085" on="0"/>
        <pt x="3161" y="1093" on="1"/>
        <pt x="3064" y="1110" on="0"/>
        <pt x="3028" y="1131" on="1"/>
        <pt x="2782" y="1055" on="0"/>
        <pt x="2782" y="955" on="1"/>
        <pt x="2782" y="887" on="0"/>
        <pt x="2900" y="795" on="0"/>
        <pt x="3028" y="788" on="1"/>
        <pt x="3076" y="786" on="0"/>
        <pt x="3117" y="758" on="0"/>
        <pt x="3117" y="729" on="0"/>
        <pt x="3100" y="702" on="0"/>
        <pt x="3086" y="690" on="1"/>
        <pt x="3053" y="665" on="0"/>
        <pt x="3010" y="663" on="1"/>
        <pt x="2658" y="654" on="0"/>
        <pt x="2383" y="556" on="1"/>
        <pt x="2271" y="516" on="0"/>
        <pt x="2150" y="436" on="0"/>
      </contour>
      <contour>
        <pt x="1657" y="610" on="1"/>
        <pt x="1667" y="646" on="0"/>
        <pt x="1719" y="778" on="0"/>
        <pt x="1758" y="868" on="1"/>
        <pt x="1834" y="1037" on="1"/>
        <pt x="1441" y="610" on="1"/>
      </contour>
    </TTGlyph>
    <TTGlyph name="AEacute" xMin="92" yMin="-67" xMax="3726" yMax="1915">
      <contour>
        <pt x="2649" y="1441" on="0"/>
        <pt x="2606" y="1478" on="0"/>
        <pt x="2606" y="1521" on="0"/>
        <pt x="2659" y="1597" on="0"/>
        <pt x="2745" y="1688" on="0"/>
        <pt x="2854" y="1785" on="0"/>
        <pt x="2909" y="1824" on="1"/>
        <pt x="3035" y="1915" on="0"/>
        <pt x="3101" y="1915" on="1"/>
        <pt x="3150" y="1915" on="0"/>
        <pt x="3184" y="1885" on="1"/>
        <pt x="3249" y="1829" on="0"/>
        <pt x="3249" y="1765" on="1"/>
        <pt x="3249" y="1753" on="0"/>
        <pt x="3244" y="1728" on="1"/>
        <pt x="3225" y="1704" on="0"/>
        <pt x="3167" y="1677" on="1"/>
        <pt x="3066" y="1632" on="1"/>
        <pt x="2986" y="1596" on="0"/>
        <pt x="2915" y="1554" on="1"/>
        <pt x="2806" y="1490" on="1"/>
        <pt x="2723" y="1441" on="0"/>
      </contour>
      <contour>
        <pt x="2150" y="412" on="1"/>
        <pt x="2150" y="291" on="0"/>
        <pt x="2458" y="291" on="1"/>
        <pt x="2886" y="291" on="0"/>
        <pt x="3253" y="376" on="1"/>
        <pt x="3391" y="408" on="0"/>
        <pt x="3549" y="461" on="0"/>
        <pt x="3582" y="461" on="1"/>
        <pt x="3656" y="461" on="0"/>
        <pt x="3656" y="388" on="1"/>
        <pt x="3656" y="288" on="0"/>
        <pt x="3369" y="173" on="1"/>
        <pt x="2988" y="20" on="0"/>
        <pt x="2518" y="-27" on="1"/>
        <pt x="2407" y="-38" on="0"/>
        <pt x="2102" y="-38" on="0"/>
        <pt x="1837" y="17" on="0"/>
        <pt x="1685" y="122" on="0"/>
        <pt x="1627" y="274" on="0"/>
        <pt x="1627" y="370" on="1"/>
        <pt x="1627" y="406" on="1"/>
        <pt x="1209" y="354" on="1"/>
        <pt x="1032" y="180" on="0"/>
        <pt x="780" y="56" on="1"/>
        <pt x="529" y="-67" on="0"/>
        <pt x="354" y="-67" on="1"/>
        <pt x="256" y="-67" on="0"/>
        <pt x="178" y="27" on="1"/>
        <pt x="92" y="130" on="0"/>
        <pt x="92" y="274" on="1"/>
        <pt x="92" y="333" on="0"/>
        <pt x="185" y="452" on="0"/>
        <pt x="290" y="500" on="1"/>
        <pt x="529" y="607" on="0"/>
        <pt x="986" y="607" on="1"/>
        <pt x="1866" y="1285" on="1"/>
        <pt x="1888" y="1302" on="0"/>
        <pt x="1894" y="1308" on="1"/>
        <pt x="1906" y="1320" on="0"/>
        <pt x="1957" y="1320" on="0"/>
        <pt x="1993" y="1308" on="1"/>
        <pt x="2041" y="1369" on="0"/>
        <pt x="2075" y="1369" on="1"/>
        <pt x="2080" y="1369" on="0"/>
        <pt x="2082" y="1368" on="0"/>
        <pt x="2110" y="1359" on="0"/>
        <pt x="2183" y="1332" on="0"/>
        <pt x="2219" y="1314" on="1"/>
        <pt x="2307" y="1272" on="0"/>
        <pt x="2312" y="1235" on="1"/>
        <pt x="2319" y="1199" on="0"/>
        <pt x="2286" y="1149" on="1"/>
        <pt x="2208" y="1006" on="0"/>
        <pt x="2125" y="725" on="1"/>
        <pt x="2296" y="783" on="0"/>
        <pt x="2507" y="813" on="1"/>
        <pt x="2441" y="851" on="0"/>
        <pt x="2416" y="940" on="1"/>
        <pt x="2410" y="964" on="0"/>
        <pt x="2410" y="984" on="1"/>
        <pt x="2410" y="1293" on="0"/>
        <pt x="3206" y="1350" on="1"/>
        <pt x="3367" y="1361" on="0"/>
        <pt x="3527" y="1361" on="1"/>
        <pt x="3726" y="1361" on="0"/>
        <pt x="3726" y="1259" on="1"/>
        <pt x="3726" y="1117" on="0"/>
        <pt x="3497" y="1085" on="1"/>
        <pt x="3432" y="1076" on="0"/>
        <pt x="3311" y="1076" on="0"/>
        <pt x="3206" y="1085" on="0"/>
        <pt x="3161" y="1093" on="1"/>
        <pt x="3064" y="1110" on="0"/>
        <pt x="3028" y="1131" on="1"/>
        <pt x="2782" y="1055" on="0"/>
        <pt x="2782" y="955" on="1"/>
        <pt x="2782" y="887" on="0"/>
        <pt x="2900" y="795" on="0"/>
        <pt x="3028" y="788" on="1"/>
        <pt x="3076" y="786" on="0"/>
        <pt x="3117" y="758" on="0"/>
        <pt x="3117" y="729" on="0"/>
        <pt x="3100" y="702" on="0"/>
        <pt x="3086" y="690" on="1"/>
        <pt x="3053" y="665" on="0"/>
        <pt x="3010" y="663" on="1"/>
        <pt x="2658" y="654" on="0"/>
        <pt x="2383" y="556" on="1"/>
        <pt x="2271" y="516" on="0"/>
        <pt x="2150" y="436" on="0"/>
      </contour>
      <contour>
        <pt x="1657" y="610" on="1"/>
        <pt x="1667" y="646" on="0"/>
        <pt x="1719" y="778" on="0"/>
        <pt x="1758" y="868" on="1"/>
        <pt x="1834" y="1037" on="1"/>
        <pt x="1441" y="610" on="1"/>
      </contour>
    </TTGlyph>
    <TTGlyph name="Aacute" xMin="-11" yMin="-67" xMax="2782" yMax="1915">
      <contour>
        <pt x="2182" y="1441" on="0"/>
        <pt x="2139" y="1478" on="0"/>
        <pt x="2139" y="1521" on="0"/>
        <pt x="2192" y="1597" on="0"/>
        <pt x="2278" y="1688" on="0"/>
        <pt x="2387" y="1785" on="0"/>
        <pt x="2442" y="1824" on="1"/>
        <pt x="2568" y="1915" on="0"/>
        <pt x="2634" y="1915" on="1"/>
        <pt x="2683" y="1915" on="0"/>
        <pt x="2717" y="1885" on="1"/>
        <pt x="2782" y="1829" on="0"/>
        <pt x="2782" y="1765" on="1"/>
        <pt x="2782" y="1753" on="0"/>
        <pt x="2777" y="1728" on="1"/>
        <pt x="2758" y="1704" on="0"/>
        <pt x="2700" y="1677" on="1"/>
        <pt x="2600" y="1632" on="1"/>
        <pt x="2519" y="1596" on="0"/>
        <pt x="2448" y="1554" on="1"/>
        <pt x="2340" y="1490" on="1"/>
        <pt x="2256" y="1441" on="0"/>
      </contour>
      <contour>
        <pt x="257" y="-67" on="1"/>
        <pt x="205" y="-67" on="0"/>
        <pt x="112" y="-18" on="0"/>
        <pt x="74" y="27" on="1"/>
        <pt x="-11" y="130" on="0"/>
        <pt x="-11" y="274" on="1"/>
        <pt x="-11" y="333" on="0"/>
        <pt x="82" y="452" on="0"/>
        <pt x="188" y="500" on="1"/>
        <pt x="426" y="607" on="0"/>
        <pt x="883" y="607" on="1"/>
        <pt x="1720" y="1256" on="1"/>
        <pt x="1762" y="1289" on="0"/>
        <pt x="1770" y="1296" on="1"/>
        <pt x="1783" y="1310" on="0"/>
        <pt x="1824" y="1310" on="0"/>
        <pt x="1863" y="1302" on="0"/>
        <pt x="1879" y="1295" on="1"/>
        <pt x="1914" y="1280" on="0"/>
        <pt x="1914" y="1260" on="1"/>
        <pt x="1914" y="1246" on="0"/>
        <pt x="1907" y="1238" on="1"/>
        <pt x="1335" y="610" on="1"/>
        <pt x="1579" y="610" on="1"/>
        <pt x="1595" y="646" on="0"/>
        <pt x="1632" y="710" on="1"/>
        <pt x="1724" y="860" on="1"/>
        <pt x="1778" y="946" on="0"/>
        <pt x="1830" y="1022" on="1"/>
        <pt x="1931" y="1162" on="1"/>
        <pt x="2086" y="1369" on="0"/>
        <pt x="2155" y="1369" on="1"/>
        <pt x="2162" y="1369" on="0"/>
        <pt x="2257" y="1332" on="0"/>
        <pt x="2290" y="1314" on="1"/>
        <pt x="2370" y="1272" on="0"/>
        <pt x="2370" y="1235" on="1"/>
        <pt x="2370" y="1200" on="0"/>
        <pt x="2308" y="1123" on="0"/>
        <pt x="2239" y="1019" on="0"/>
        <pt x="2160" y="888" on="0"/>
        <pt x="2080" y="741" on="0"/>
        <pt x="2048" y="672" on="1"/>
        <pt x="1975" y="515" on="0"/>
        <pt x="1975" y="404" on="0"/>
        <pt x="1992" y="354" on="0"/>
        <pt x="2004" y="342" on="1"/>
        <pt x="2023" y="323" on="0"/>
        <pt x="2107" y="323" on="0"/>
        <pt x="2194" y="354" on="0"/>
        <pt x="2277" y="401" on="0"/>
        <pt x="2357" y="456" on="0"/>
        <pt x="2395" y="480" on="1"/>
        <pt x="2483" y="534" on="0"/>
        <pt x="2567" y="534" on="0"/>
        <pt x="2596" y="495" on="0"/>
        <pt x="2596" y="433" on="0"/>
        <pt x="2544" y="328" on="0"/>
        <pt x="2450" y="216" on="0"/>
        <pt x="2322" y="107" on="0"/>
        <pt x="2246" y="64" on="1"/>
        <pt x="2075" y="-31" on="0"/>
        <pt x="1911" y="-31" on="1"/>
        <pt x="1763" y="-31" on="0"/>
        <pt x="1650" y="73" on="1"/>
        <pt x="1524" y="188" on="0"/>
        <pt x="1524" y="370" on="1"/>
        <pt x="1524" y="379" on="0"/>
        <pt x="1524" y="397" on="0"/>
        <pt x="1525" y="407" on="1"/>
        <pt x="1106" y="354" on="1"/>
        <pt x="929" y="180" on="0"/>
        <pt x="678" y="56" on="1"/>
        <pt x="426" y="-67" on="0"/>
      </contour>
    </TTGlyph>
    <TTGlyph name="Abreve" xMin="-11" yMin="-67" xMax="2793" yMax="1908">
      <contour>
        <pt x="2041" y="1668" on="1"/>
        <pt x="1990" y="1730" on="0"/>
        <pt x="1990" y="1792" on="0"/>
        <pt x="2023" y="1843" on="0"/>
        <pt x="2048" y="1863" on="1"/>
        <pt x="2104" y="1908" on="0"/>
        <pt x="2161" y="1908" on="1"/>
        <pt x="2189" y="1908" on="0"/>
        <pt x="2217" y="1862" on="1"/>
        <pt x="2242" y="1820" on="1"/>
        <pt x="2293" y="1733" on="0"/>
        <pt x="2371" y="1733" on="1"/>
        <pt x="2468" y="1733" on="0"/>
        <pt x="2529" y="1763" on="1"/>
        <pt x="2615" y="1805" on="0"/>
        <pt x="2680" y="1863" on="1"/>
        <pt x="2697" y="1877" on="0"/>
        <pt x="2747" y="1877" on="0"/>
        <pt x="2793" y="1839" on="0"/>
        <pt x="2793" y="1790" on="0"/>
        <pt x="2749" y="1723" on="0"/>
        <pt x="2653" y="1627" on="0"/>
        <pt x="2595" y="1589" on="1"/>
        <pt x="2464" y="1503" on="0"/>
        <pt x="2348" y="1503" on="1"/>
        <pt x="2178" y="1503" on="0"/>
      </contour>
      <contour>
        <pt x="257" y="-67" on="1"/>
        <pt x="205" y="-67" on="0"/>
        <pt x="112" y="-18" on="0"/>
        <pt x="74" y="27" on="1"/>
        <pt x="-11" y="130" on="0"/>
        <pt x="-11" y="274" on="1"/>
        <pt x="-11" y="333" on="0"/>
        <pt x="82" y="452" on="0"/>
        <pt x="188" y="500" on="1"/>
        <pt x="426" y="607" on="0"/>
        <pt x="883" y="607" on="1"/>
        <pt x="1720" y="1256" on="1"/>
        <pt x="1762" y="1289" on="0"/>
        <pt x="1770" y="1296" on="1"/>
        <pt x="1783" y="1310" on="0"/>
        <pt x="1824" y="1310" on="0"/>
        <pt x="1863" y="1302" on="0"/>
        <pt x="1879" y="1295" on="1"/>
        <pt x="1914" y="1280" on="0"/>
        <pt x="1914" y="1260" on="1"/>
        <pt x="1914" y="1246" on="0"/>
        <pt x="1907" y="1238" on="1"/>
        <pt x="1335" y="610" on="1"/>
        <pt x="1579" y="610" on="1"/>
        <pt x="1595" y="646" on="0"/>
        <pt x="1632" y="710" on="1"/>
        <pt x="1724" y="860" on="1"/>
        <pt x="1778" y="946" on="0"/>
        <pt x="1830" y="1022" on="1"/>
        <pt x="1931" y="1162" on="1"/>
        <pt x="2086" y="1369" on="0"/>
        <pt x="2155" y="1369" on="1"/>
        <pt x="2162" y="1369" on="0"/>
        <pt x="2257" y="1332" on="0"/>
        <pt x="2290" y="1314" on="1"/>
        <pt x="2370" y="1272" on="0"/>
        <pt x="2370" y="1235" on="1"/>
        <pt x="2370" y="1200" on="0"/>
        <pt x="2308" y="1123" on="0"/>
        <pt x="2239" y="1019" on="0"/>
        <pt x="2160" y="888" on="0"/>
        <pt x="2080" y="741" on="0"/>
        <pt x="2048" y="672" on="1"/>
        <pt x="1975" y="515" on="0"/>
        <pt x="1975" y="404" on="0"/>
        <pt x="1992" y="354" on="0"/>
        <pt x="2004" y="342" on="1"/>
        <pt x="2023" y="323" on="0"/>
        <pt x="2107" y="323" on="0"/>
        <pt x="2194" y="354" on="0"/>
        <pt x="2277" y="401" on="0"/>
        <pt x="2357" y="456" on="0"/>
        <pt x="2395" y="480" on="1"/>
        <pt x="2483" y="534" on="0"/>
        <pt x="2567" y="534" on="0"/>
        <pt x="2596" y="495" on="0"/>
        <pt x="2596" y="433" on="0"/>
        <pt x="2544" y="328" on="0"/>
        <pt x="2450" y="216" on="0"/>
        <pt x="2322" y="107" on="0"/>
        <pt x="2246" y="64" on="1"/>
        <pt x="2075" y="-31" on="0"/>
        <pt x="1911" y="-31" on="1"/>
        <pt x="1763" y="-31" on="0"/>
        <pt x="1650" y="73" on="1"/>
        <pt x="1524" y="188" on="0"/>
        <pt x="1524" y="370" on="1"/>
        <pt x="1524" y="379" on="0"/>
        <pt x="1524" y="397" on="0"/>
        <pt x="1525" y="407" on="1"/>
        <pt x="1106" y="354" on="1"/>
        <pt x="929" y="180" on="0"/>
        <pt x="678" y="56" on="1"/>
        <pt x="426" y="-67" on="0"/>
      </contour>
    </TTGlyph>
    <TTGlyph name="Acircumflex" xMin="-11" yMin="-67" xMax="2899" yMax="1880">
      <contour>
        <pt x="2071" y="1534" on="0"/>
        <pt x="2058" y="1560" on="0"/>
        <pt x="2058" y="1600" on="0"/>
        <pt x="2099" y="1643" on="0"/>
        <pt x="2170" y="1700" on="0"/>
        <pt x="2257" y="1758" on="0"/>
        <pt x="2355" y="1812" on="0"/>
        <pt x="2404" y="1834" on="1"/>
        <pt x="2512" y="1880" on="0"/>
        <pt x="2626" y="1880" on="0"/>
        <pt x="2706" y="1839" on="0"/>
        <pt x="2744" y="1807" on="1"/>
        <pt x="2802" y="1759" on="0"/>
        <pt x="2884" y="1656" on="1"/>
        <pt x="2899" y="1641" on="0"/>
        <pt x="2899" y="1599" on="0"/>
        <pt x="2862" y="1554" on="0"/>
        <pt x="2834" y="1536" on="1"/>
        <pt x="2772" y="1495" on="0"/>
        <pt x="2716" y="1495" on="1"/>
        <pt x="2676" y="1495" on="0"/>
        <pt x="2461" y="1650" on="0"/>
        <pt x="2410" y="1650" on="0"/>
        <pt x="2345" y="1626" on="0"/>
        <pt x="2307" y="1606" on="1"/>
        <pt x="2220" y="1562" on="0"/>
        <pt x="2166" y="1514" on="1"/>
        <pt x="2152" y="1503" on="0"/>
        <pt x="2119" y="1503" on="0"/>
        <pt x="2093" y="1514" on="0"/>
      </contour>
      <contour>
        <pt x="257" y="-67" on="1"/>
        <pt x="205" y="-67" on="0"/>
        <pt x="112" y="-18" on="0"/>
        <pt x="74" y="27" on="1"/>
        <pt x="-11" y="130" on="0"/>
        <pt x="-11" y="274" on="1"/>
        <pt x="-11" y="333" on="0"/>
        <pt x="82" y="452" on="0"/>
        <pt x="188" y="500" on="1"/>
        <pt x="426" y="607" on="0"/>
        <pt x="883" y="607" on="1"/>
        <pt x="1720" y="1256" on="1"/>
        <pt x="1762" y="1289" on="0"/>
        <pt x="1770" y="1296" on="1"/>
        <pt x="1783" y="1310" on="0"/>
        <pt x="1824" y="1310" on="0"/>
        <pt x="1863" y="1302" on="0"/>
        <pt x="1879" y="1295" on="1"/>
        <pt x="1914" y="1280" on="0"/>
        <pt x="1914" y="1260" on="1"/>
        <pt x="1914" y="1246" on="0"/>
        <pt x="1907" y="1238" on="1"/>
        <pt x="1335" y="610" on="1"/>
        <pt x="1579" y="610" on="1"/>
        <pt x="1595" y="646" on="0"/>
        <pt x="1632" y="710" on="1"/>
        <pt x="1724" y="860" on="1"/>
        <pt x="1778" y="946" on="0"/>
        <pt x="1830" y="1022" on="1"/>
        <pt x="1931" y="1162" on="1"/>
        <pt x="2086" y="1369" on="0"/>
        <pt x="2155" y="1369" on="1"/>
        <pt x="2162" y="1369" on="0"/>
        <pt x="2257" y="1332" on="0"/>
        <pt x="2290" y="1314" on="1"/>
        <pt x="2370" y="1272" on="0"/>
        <pt x="2370" y="1235" on="1"/>
        <pt x="2370" y="1200" on="0"/>
        <pt x="2308" y="1123" on="0"/>
        <pt x="2239" y="1019" on="0"/>
        <pt x="2160" y="888" on="0"/>
        <pt x="2080" y="741" on="0"/>
        <pt x="2048" y="672" on="1"/>
        <pt x="1975" y="515" on="0"/>
        <pt x="1975" y="404" on="0"/>
        <pt x="1992" y="354" on="0"/>
        <pt x="2004" y="342" on="1"/>
        <pt x="2023" y="323" on="0"/>
        <pt x="2107" y="323" on="0"/>
        <pt x="2194" y="354" on="0"/>
        <pt x="2277" y="401" on="0"/>
        <pt x="2357" y="456" on="0"/>
        <pt x="2395" y="480" on="1"/>
        <pt x="2483" y="534" on="0"/>
        <pt x="2567" y="534" on="0"/>
        <pt x="2596" y="495" on="0"/>
        <pt x="2596" y="433" on="0"/>
        <pt x="2544" y="328" on="0"/>
        <pt x="2450" y="216" on="0"/>
        <pt x="2322" y="107" on="0"/>
        <pt x="2246" y="64" on="1"/>
        <pt x="2075" y="-31" on="0"/>
        <pt x="1911" y="-31" on="1"/>
        <pt x="1763" y="-31" on="0"/>
        <pt x="1650" y="73" on="1"/>
        <pt x="1524" y="188" on="0"/>
        <pt x="1524" y="370" on="1"/>
        <pt x="1524" y="379" on="0"/>
        <pt x="1524" y="397" on="0"/>
        <pt x="1525" y="407" on="1"/>
        <pt x="1106" y="354" on="1"/>
        <pt x="929" y="180" on="0"/>
        <pt x="678" y="56" on="1"/>
        <pt x="426" y="-67" on="0"/>
      </contour>
    </TTGlyph>
    <TTGlyph name="Adieresis" xMin="-11" yMin="-67" xMax="2844" yMax="1916">
      <contour>
        <pt x="2462" y="1592" on="0"/>
        <pt x="2433" y="1662" on="0"/>
        <pt x="2433" y="1742" on="0"/>
        <pt x="2466" y="1803" on="0"/>
        <pt x="2520" y="1850" on="0"/>
        <pt x="2587" y="1884" on="0"/>
        <pt x="2620" y="1895" on="1"/>
        <pt x="2684" y="1916" on="0"/>
        <pt x="2765" y="1916" on="0"/>
        <pt x="2805" y="1896" on="0"/>
        <pt x="2818" y="1879" on="1"/>
        <pt x="2844" y="1845" on="0"/>
        <pt x="2844" y="1774" on="0"/>
        <pt x="2829" y="1717" on="0"/>
        <pt x="2802" y="1655" on="0"/>
        <pt x="2762" y="1594" on="0"/>
        <pt x="2737" y="1570" on="1"/>
        <pt x="2681" y="1515" on="0"/>
        <pt x="2580" y="1515" on="0"/>
        <pt x="2513" y="1542" on="0"/>
      </contour>
      <contour>
        <pt x="1840" y="1592" on="0"/>
        <pt x="1811" y="1662" on="0"/>
        <pt x="1811" y="1742" on="0"/>
        <pt x="1844" y="1803" on="0"/>
        <pt x="1898" y="1850" on="0"/>
        <pt x="1965" y="1884" on="0"/>
        <pt x="1998" y="1895" on="1"/>
        <pt x="2062" y="1916" on="0"/>
        <pt x="2143" y="1916" on="0"/>
        <pt x="2183" y="1896" on="0"/>
        <pt x="2196" y="1879" on="1"/>
        <pt x="2222" y="1845" on="0"/>
        <pt x="2222" y="1774" on="0"/>
        <pt x="2207" y="1717" on="0"/>
        <pt x="2180" y="1655" on="0"/>
        <pt x="2140" y="1594" on="0"/>
        <pt x="2115" y="1570" on="1"/>
        <pt x="2059" y="1515" on="0"/>
        <pt x="1958" y="1515" on="0"/>
        <pt x="1891" y="1542" on="0"/>
      </contour>
      <contour>
        <pt x="257" y="-67" on="1"/>
        <pt x="205" y="-67" on="0"/>
        <pt x="112" y="-18" on="0"/>
        <pt x="74" y="27" on="1"/>
        <pt x="-11" y="130" on="0"/>
        <pt x="-11" y="274" on="1"/>
        <pt x="-11" y="333" on="0"/>
        <pt x="82" y="452" on="0"/>
        <pt x="188" y="500" on="1"/>
        <pt x="426" y="607" on="0"/>
        <pt x="883" y="607" on="1"/>
        <pt x="1720" y="1256" on="1"/>
        <pt x="1762" y="1289" on="0"/>
        <pt x="1770" y="1296" on="1"/>
        <pt x="1783" y="1310" on="0"/>
        <pt x="1824" y="1310" on="0"/>
        <pt x="1863" y="1302" on="0"/>
        <pt x="1879" y="1295" on="1"/>
        <pt x="1914" y="1280" on="0"/>
        <pt x="1914" y="1260" on="1"/>
        <pt x="1914" y="1246" on="0"/>
        <pt x="1907" y="1238" on="1"/>
        <pt x="1335" y="610" on="1"/>
        <pt x="1579" y="610" on="1"/>
        <pt x="1595" y="646" on="0"/>
        <pt x="1632" y="710" on="1"/>
        <pt x="1724" y="860" on="1"/>
        <pt x="1778" y="946" on="0"/>
        <pt x="1830" y="1022" on="1"/>
        <pt x="1931" y="1162" on="1"/>
        <pt x="2086" y="1369" on="0"/>
        <pt x="2155" y="1369" on="1"/>
        <pt x="2162" y="1369" on="0"/>
        <pt x="2257" y="1332" on="0"/>
        <pt x="2290" y="1314" on="1"/>
        <pt x="2370" y="1272" on="0"/>
        <pt x="2370" y="1235" on="1"/>
        <pt x="2370" y="1200" on="0"/>
        <pt x="2308" y="1123" on="0"/>
        <pt x="2239" y="1019" on="0"/>
        <pt x="2160" y="888" on="0"/>
        <pt x="2080" y="741" on="0"/>
        <pt x="2048" y="672" on="1"/>
        <pt x="1975" y="515" on="0"/>
        <pt x="1975" y="404" on="0"/>
        <pt x="1992" y="354" on="0"/>
        <pt x="2004" y="342" on="1"/>
        <pt x="2023" y="323" on="0"/>
        <pt x="2107" y="323" on="0"/>
        <pt x="2194" y="354" on="0"/>
        <pt x="2277" y="401" on="0"/>
        <pt x="2357" y="456" on="0"/>
        <pt x="2395" y="480" on="1"/>
        <pt x="2483" y="534" on="0"/>
        <pt x="2567" y="534" on="0"/>
        <pt x="2596" y="495" on="0"/>
        <pt x="2596" y="433" on="0"/>
        <pt x="2544" y="328" on="0"/>
        <pt x="2450" y="216" on="0"/>
        <pt x="2322" y="107" on="0"/>
        <pt x="2246" y="64" on="1"/>
        <pt x="2075" y="-31" on="0"/>
        <pt x="1911" y="-31" on="1"/>
        <pt x="1763" y="-31" on="0"/>
        <pt x="1650" y="73" on="1"/>
        <pt x="1524" y="188" on="0"/>
        <pt x="1524" y="370" on="1"/>
        <pt x="1524" y="379" on="0"/>
        <pt x="1524" y="397" on="0"/>
        <pt x="1525" y="407" on="1"/>
        <pt x="1106" y="354" on="1"/>
        <pt x="929" y="180" on="0"/>
        <pt x="678" y="56" on="1"/>
        <pt x="426" y="-67" on="0"/>
      </contour>
    </TTGlyph>
    <TTGlyph name="Agrave" xMin="-11" yMin="-67" xMax="2596" yMax="1913">
      <contour>
        <pt x="1754" y="1721" on="0"/>
        <pt x="1754" y="1790" on="0"/>
        <pt x="1766" y="1842" on="0"/>
        <pt x="1780" y="1864" on="1"/>
        <pt x="1811" y="1913" on="0"/>
        <pt x="1868" y="1913" on="1"/>
        <pt x="1900" y="1913" on="0"/>
        <pt x="1951" y="1872" on="1"/>
        <pt x="2036" y="1800" on="1"/>
        <pt x="2071" y="1771" on="0"/>
        <pt x="2114" y="1742" on="1"/>
        <pt x="2282" y="1630" on="1"/>
        <pt x="2365" y="1576" on="0"/>
        <pt x="2394" y="1517" on="0"/>
        <pt x="2394" y="1458" on="0"/>
        <pt x="2363" y="1444" on="1"/>
        <pt x="2355" y="1439" on="0"/>
        <pt x="2303" y="1439" on="0"/>
        <pt x="2204" y="1461" on="0"/>
        <pt x="2088" y="1498" on="0"/>
        <pt x="1967" y="1548" on="0"/>
        <pt x="1914" y="1576" on="1"/>
        <pt x="1796" y="1641" on="0"/>
      </contour>
      <contour>
        <pt x="257" y="-67" on="1"/>
        <pt x="205" y="-67" on="0"/>
        <pt x="112" y="-18" on="0"/>
        <pt x="74" y="27" on="1"/>
        <pt x="-11" y="130" on="0"/>
        <pt x="-11" y="274" on="1"/>
        <pt x="-11" y="333" on="0"/>
        <pt x="82" y="452" on="0"/>
        <pt x="188" y="500" on="1"/>
        <pt x="426" y="607" on="0"/>
        <pt x="883" y="607" on="1"/>
        <pt x="1720" y="1256" on="1"/>
        <pt x="1762" y="1289" on="0"/>
        <pt x="1770" y="1296" on="1"/>
        <pt x="1783" y="1310" on="0"/>
        <pt x="1824" y="1310" on="0"/>
        <pt x="1863" y="1302" on="0"/>
        <pt x="1879" y="1295" on="1"/>
        <pt x="1914" y="1280" on="0"/>
        <pt x="1914" y="1260" on="1"/>
        <pt x="1914" y="1246" on="0"/>
        <pt x="1907" y="1238" on="1"/>
        <pt x="1335" y="610" on="1"/>
        <pt x="1579" y="610" on="1"/>
        <pt x="1595" y="646" on="0"/>
        <pt x="1632" y="710" on="1"/>
        <pt x="1724" y="860" on="1"/>
        <pt x="1778" y="946" on="0"/>
        <pt x="1830" y="1022" on="1"/>
        <pt x="1931" y="1162" on="1"/>
        <pt x="2086" y="1369" on="0"/>
        <pt x="2155" y="1369" on="1"/>
        <pt x="2162" y="1369" on="0"/>
        <pt x="2257" y="1332" on="0"/>
        <pt x="2290" y="1314" on="1"/>
        <pt x="2370" y="1272" on="0"/>
        <pt x="2370" y="1235" on="1"/>
        <pt x="2370" y="1200" on="0"/>
        <pt x="2308" y="1123" on="0"/>
        <pt x="2239" y="1019" on="0"/>
        <pt x="2160" y="888" on="0"/>
        <pt x="2080" y="741" on="0"/>
        <pt x="2048" y="672" on="1"/>
        <pt x="1975" y="515" on="0"/>
        <pt x="1975" y="404" on="0"/>
        <pt x="1992" y="354" on="0"/>
        <pt x="2004" y="342" on="1"/>
        <pt x="2023" y="323" on="0"/>
        <pt x="2107" y="323" on="0"/>
        <pt x="2194" y="354" on="0"/>
        <pt x="2277" y="401" on="0"/>
        <pt x="2357" y="456" on="0"/>
        <pt x="2395" y="480" on="1"/>
        <pt x="2483" y="534" on="0"/>
        <pt x="2567" y="534" on="0"/>
        <pt x="2596" y="495" on="0"/>
        <pt x="2596" y="433" on="0"/>
        <pt x="2544" y="328" on="0"/>
        <pt x="2450" y="216" on="0"/>
        <pt x="2322" y="107" on="0"/>
        <pt x="2246" y="64" on="1"/>
        <pt x="2075" y="-31" on="0"/>
        <pt x="1911" y="-31" on="1"/>
        <pt x="1763" y="-31" on="0"/>
        <pt x="1650" y="73" on="1"/>
        <pt x="1524" y="188" on="0"/>
        <pt x="1524" y="370" on="1"/>
        <pt x="1524" y="379" on="0"/>
        <pt x="1524" y="397" on="0"/>
        <pt x="1525" y="407" on="1"/>
        <pt x="1106" y="354" on="1"/>
        <pt x="929" y="180" on="0"/>
        <pt x="678" y="56" on="1"/>
        <pt x="426" y="-67" on="0"/>
      </contour>
    </TTGlyph>
    <TTGlyph name="Amacron" xMin="-11" yMin="-67" xMax="2742" yMax="1851">
      <contour>
        <pt x="1958" y="1619" on="1"/>
        <pt x="1923" y="1619" on="0"/>
        <pt x="1923" y="1660" on="1"/>
        <pt x="1923" y="1699" on="0"/>
        <pt x="1968" y="1779" on="0"/>
        <pt x="2008" y="1812" on="0"/>
        <pt x="2032" y="1824" on="1"/>
        <pt x="2081" y="1851" on="0"/>
        <pt x="2119" y="1851" on="1"/>
        <pt x="2698" y="1851" on="1"/>
        <pt x="2714" y="1851" on="0"/>
        <pt x="2742" y="1828" on="0"/>
        <pt x="2742" y="1808" on="1"/>
        <pt x="2742" y="1768" on="0"/>
        <pt x="2689" y="1679" on="0"/>
        <pt x="2616" y="1618" on="0"/>
        <pt x="2578" y="1618" on="1"/>
      </contour>
      <contour>
        <pt x="257" y="-67" on="1"/>
        <pt x="205" y="-67" on="0"/>
        <pt x="112" y="-18" on="0"/>
        <pt x="74" y="27" on="1"/>
        <pt x="-11" y="130" on="0"/>
        <pt x="-11" y="274" on="1"/>
        <pt x="-11" y="333" on="0"/>
        <pt x="82" y="452" on="0"/>
        <pt x="188" y="500" on="1"/>
        <pt x="426" y="607" on="0"/>
        <pt x="883" y="607" on="1"/>
        <pt x="1720" y="1256" on="1"/>
        <pt x="1762" y="1289" on="0"/>
        <pt x="1770" y="1296" on="1"/>
        <pt x="1783" y="1310" on="0"/>
        <pt x="1824" y="1310" on="0"/>
        <pt x="1863" y="1302" on="0"/>
        <pt x="1879" y="1295" on="1"/>
        <pt x="1914" y="1280" on="0"/>
        <pt x="1914" y="1260" on="1"/>
        <pt x="1914" y="1246" on="0"/>
        <pt x="1907" y="1238" on="1"/>
        <pt x="1335" y="610" on="1"/>
        <pt x="1579" y="610" on="1"/>
        <pt x="1595" y="646" on="0"/>
        <pt x="1632" y="710" on="1"/>
        <pt x="1724" y="860" on="1"/>
        <pt x="1778" y="946" on="0"/>
        <pt x="1830" y="1022" on="1"/>
        <pt x="1931" y="1162" on="1"/>
        <pt x="2086" y="1369" on="0"/>
        <pt x="2155" y="1369" on="1"/>
        <pt x="2162" y="1369" on="0"/>
        <pt x="2257" y="1332" on="0"/>
        <pt x="2290" y="1314" on="1"/>
        <pt x="2370" y="1272" on="0"/>
        <pt x="2370" y="1235" on="1"/>
        <pt x="2370" y="1200" on="0"/>
        <pt x="2308" y="1123" on="0"/>
        <pt x="2239" y="1019" on="0"/>
        <pt x="2160" y="888" on="0"/>
        <pt x="2080" y="741" on="0"/>
        <pt x="2048" y="672" on="1"/>
        <pt x="1975" y="515" on="0"/>
        <pt x="1975" y="404" on="0"/>
        <pt x="1992" y="354" on="0"/>
        <pt x="2004" y="342" on="1"/>
        <pt x="2023" y="323" on="0"/>
        <pt x="2107" y="323" on="0"/>
        <pt x="2194" y="354" on="0"/>
        <pt x="2277" y="401" on="0"/>
        <pt x="2357" y="456" on="0"/>
        <pt x="2395" y="480" on="1"/>
        <pt x="2483" y="534" on="0"/>
        <pt x="2567" y="534" on="0"/>
        <pt x="2596" y="495" on="0"/>
        <pt x="2596" y="433" on="0"/>
        <pt x="2544" y="328" on="0"/>
        <pt x="2450" y="216" on="0"/>
        <pt x="2322" y="107" on="0"/>
        <pt x="2246" y="64" on="1"/>
        <pt x="2075" y="-31" on="0"/>
        <pt x="1911" y="-31" on="1"/>
        <pt x="1763" y="-31" on="0"/>
        <pt x="1650" y="73" on="1"/>
        <pt x="1524" y="188" on="0"/>
        <pt x="1524" y="370" on="1"/>
        <pt x="1524" y="379" on="0"/>
        <pt x="1524" y="397" on="0"/>
        <pt x="1525" y="407" on="1"/>
        <pt x="1106" y="354" on="1"/>
        <pt x="929" y="180" on="0"/>
        <pt x="678" y="56" on="1"/>
        <pt x="426" y="-67" on="0"/>
      </contour>
    </TTGlyph>
    <TTGlyph name="Aogonek" xMin="-11" yMin="-644" xMax="2596" yMax="1369">
      <contour>
        <pt x="2213" y="-290" on="1"/>
        <pt x="2296" y="-290" on="0"/>
        <pt x="2296" y="-393" on="1"/>
        <pt x="2296" y="-421" on="0"/>
        <pt x="2196" y="-506" on="0"/>
        <pt x="2102" y="-565" on="0"/>
        <pt x="2041" y="-589" on="1"/>
        <pt x="1901" y="-644" on="0"/>
        <pt x="1750" y="-644" on="1"/>
        <pt x="1592" y="-644" on="0"/>
        <pt x="1486" y="-554" on="1"/>
        <pt x="1383" y="-467" on="0"/>
        <pt x="1383" y="-339" on="1"/>
        <pt x="1383" y="-181" on="0"/>
        <pt x="1713" y="25" on="1"/>
        <pt x="1580" y="105" on="0"/>
        <pt x="1538" y="256" on="1"/>
        <pt x="1524" y="309" on="0"/>
        <pt x="1524" y="344" on="1"/>
        <pt x="1524" y="388" on="1"/>
        <pt x="1524" y="397" on="0"/>
        <pt x="1525" y="407" on="1"/>
        <pt x="1106" y="354" on="1"/>
        <pt x="929" y="180" on="0"/>
        <pt x="678" y="56" on="1"/>
        <pt x="426" y="-67" on="0"/>
        <pt x="251" y="-67" on="1"/>
        <pt x="153" y="-67" on="0"/>
        <pt x="74" y="27" on="1"/>
        <pt x="-11" y="130" on="0"/>
        <pt x="-11" y="274" on="1"/>
        <pt x="-11" y="333" on="0"/>
        <pt x="82" y="452" on="0"/>
        <pt x="188" y="500" on="1"/>
        <pt x="426" y="607" on="0"/>
        <pt x="883" y="607" on="1"/>
        <pt x="1720" y="1256" on="1"/>
        <pt x="1762" y="1289" on="0"/>
        <pt x="1770" y="1296" on="1"/>
        <pt x="1783" y="1310" on="0"/>
        <pt x="1824" y="1310" on="0"/>
        <pt x="1863" y="1302" on="0"/>
        <pt x="1879" y="1295" on="1"/>
        <pt x="1914" y="1280" on="0"/>
        <pt x="1914" y="1260" on="1"/>
        <pt x="1914" y="1246" on="0"/>
        <pt x="1907" y="1238" on="1"/>
        <pt x="1335" y="610" on="1"/>
        <pt x="1579" y="610" on="1"/>
        <pt x="1595" y="646" on="0"/>
        <pt x="1632" y="710" on="1"/>
        <pt x="1724" y="860" on="1"/>
        <pt x="1778" y="946" on="0"/>
        <pt x="1830" y="1022" on="1"/>
        <pt x="1931" y="1162" on="1"/>
        <pt x="2086" y="1369" on="0"/>
        <pt x="2155" y="1369" on="1"/>
        <pt x="2162" y="1369" on="0"/>
        <pt x="2257" y="1332" on="0"/>
        <pt x="2290" y="1314" on="1"/>
        <pt x="2370" y="1272" on="0"/>
        <pt x="2370" y="1235" on="1"/>
        <pt x="2370" y="1200" on="0"/>
        <pt x="2308" y="1123" on="0"/>
        <pt x="2239" y="1019" on="0"/>
        <pt x="2160" y="888" on="0"/>
        <pt x="2080" y="741" on="0"/>
        <pt x="2048" y="672" on="1"/>
        <pt x="1975" y="515" on="0"/>
        <pt x="1975" y="404" on="0"/>
        <pt x="1992" y="354" on="0"/>
        <pt x="2004" y="342" on="1"/>
        <pt x="2023" y="323" on="0"/>
        <pt x="2107" y="323" on="0"/>
        <pt x="2194" y="354" on="0"/>
        <pt x="2277" y="401" on="0"/>
        <pt x="2357" y="456" on="0"/>
        <pt x="2395" y="480" on="1"/>
        <pt x="2483" y="534" on="0"/>
        <pt x="2567" y="534" on="0"/>
        <pt x="2596" y="495" on="0"/>
        <pt x="2596" y="436" on="0"/>
        <pt x="2550" y="338" on="0"/>
        <pt x="2468" y="234" on="0"/>
        <pt x="2353" y="131" on="0"/>
        <pt x="2285" y="88" on="1"/>
        <pt x="2135" y="-7" on="0"/>
        <pt x="1980" y="-26" on="1"/>
        <pt x="1811" y="-163" on="0"/>
        <pt x="1811" y="-239" on="1"/>
        <pt x="1811" y="-316" on="0"/>
        <pt x="1866" y="-326" on="1"/>
        <pt x="1880" y="-328" on="0"/>
        <pt x="1958" y="-328" on="0"/>
        <pt x="2045" y="-316" on="0"/>
        <pt x="2080" y="-309" on="1"/>
        <pt x="2144" y="-296" on="1"/>
        <pt x="2175" y="-290" on="0"/>
      </contour>
    </TTGlyph>
    <TTGlyph name="Aring" xMin="-11" yMin="-67" xMax="2665" yMax="1916">
      <contour>
        <pt x="2409" y="1867" on="1"/>
        <pt x="2427" y="1873" on="0"/>
        <pt x="2475" y="1873" on="0"/>
        <pt x="2546" y="1858" on="0"/>
        <pt x="2580" y="1842" on="1"/>
        <pt x="2665" y="1803" on="0"/>
        <pt x="2665" y="1737" on="1"/>
        <pt x="2665" y="1664" on="0"/>
        <pt x="2568" y="1579" on="1"/>
        <pt x="2420" y="1450" on="0"/>
        <pt x="2214" y="1399" on="1"/>
        <pt x="2149" y="1383" on="0"/>
        <pt x="2044" y="1383" on="0"/>
        <pt x="1979" y="1407" on="0"/>
        <pt x="1958" y="1426" on="1"/>
        <pt x="1919" y="1461" on="0"/>
        <pt x="1919" y="1534" on="0"/>
        <pt x="1947" y="1599" on="0"/>
        <pt x="1992" y="1663" on="0"/>
        <pt x="2048" y="1723" on="0"/>
        <pt x="2103" y="1775" on="0"/>
        <pt x="2128" y="1794" on="1"/>
        <pt x="2169" y="1826" on="1"/>
        <pt x="2304" y="1916" on="0"/>
        <pt x="2339" y="1916" on="1"/>
        <pt x="2350" y="1916" on="0"/>
        <pt x="2404" y="1872" on="0"/>
      </contour>
      <contour>
        <pt x="2137" y="1619" on="0"/>
        <pt x="2075" y="1544" on="0"/>
        <pt x="2075" y="1497" on="0"/>
        <pt x="2097" y="1492" on="0"/>
        <pt x="2144" y="1492" on="0"/>
        <pt x="2228" y="1521" on="0"/>
        <pt x="2314" y="1566" on="0"/>
        <pt x="2393" y="1622" on="0"/>
        <pt x="2424" y="1650" on="1"/>
        <pt x="2492" y="1710" on="0"/>
        <pt x="2492" y="1740" on="1"/>
        <pt x="2492" y="1780" on="0"/>
        <pt x="2426" y="1780" on="1"/>
        <pt x="2391" y="1780" on="0"/>
        <pt x="2369" y="1774" on="1"/>
        <pt x="2270" y="1726" on="0"/>
      </contour>
      <contour>
        <pt x="257" y="-67" on="1"/>
        <pt x="205" y="-67" on="0"/>
        <pt x="112" y="-18" on="0"/>
        <pt x="74" y="27" on="1"/>
        <pt x="-11" y="130" on="0"/>
        <pt x="-11" y="274" on="1"/>
        <pt x="-11" y="333" on="0"/>
        <pt x="82" y="452" on="0"/>
        <pt x="188" y="500" on="1"/>
        <pt x="426" y="607" on="0"/>
        <pt x="883" y="607" on="1"/>
        <pt x="1720" y="1256" on="1"/>
        <pt x="1762" y="1289" on="0"/>
        <pt x="1770" y="1296" on="1"/>
        <pt x="1783" y="1310" on="0"/>
        <pt x="1824" y="1310" on="0"/>
        <pt x="1863" y="1302" on="0"/>
        <pt x="1879" y="1295" on="1"/>
        <pt x="1914" y="1280" on="0"/>
        <pt x="1914" y="1260" on="1"/>
        <pt x="1914" y="1246" on="0"/>
        <pt x="1907" y="1238" on="1"/>
        <pt x="1335" y="610" on="1"/>
        <pt x="1579" y="610" on="1"/>
        <pt x="1595" y="646" on="0"/>
        <pt x="1632" y="710" on="1"/>
        <pt x="1724" y="860" on="1"/>
        <pt x="1778" y="946" on="0"/>
        <pt x="1830" y="1022" on="1"/>
        <pt x="1931" y="1162" on="1"/>
        <pt x="2086" y="1369" on="0"/>
        <pt x="2155" y="1369" on="1"/>
        <pt x="2162" y="1369" on="0"/>
        <pt x="2257" y="1332" on="0"/>
        <pt x="2290" y="1314" on="1"/>
        <pt x="2370" y="1272" on="0"/>
        <pt x="2370" y="1235" on="1"/>
        <pt x="2370" y="1200" on="0"/>
        <pt x="2308" y="1123" on="0"/>
        <pt x="2239" y="1019" on="0"/>
        <pt x="2160" y="888" on="0"/>
        <pt x="2080" y="741" on="0"/>
        <pt x="2048" y="672" on="1"/>
        <pt x="1975" y="515" on="0"/>
        <pt x="1975" y="404" on="0"/>
        <pt x="1992" y="354" on="0"/>
        <pt x="2004" y="342" on="1"/>
        <pt x="2023" y="323" on="0"/>
        <pt x="2107" y="323" on="0"/>
        <pt x="2194" y="354" on="0"/>
        <pt x="2277" y="401" on="0"/>
        <pt x="2357" y="456" on="0"/>
        <pt x="2395" y="480" on="1"/>
        <pt x="2483" y="534" on="0"/>
        <pt x="2567" y="534" on="0"/>
        <pt x="2596" y="495" on="0"/>
        <pt x="2596" y="433" on="0"/>
        <pt x="2544" y="328" on="0"/>
        <pt x="2450" y="216" on="0"/>
        <pt x="2322" y="107" on="0"/>
        <pt x="2246" y="64" on="1"/>
        <pt x="2075" y="-31" on="0"/>
        <pt x="1911" y="-31" on="1"/>
        <pt x="1763" y="-31" on="0"/>
        <pt x="1650" y="73" on="1"/>
        <pt x="1524" y="188" on="0"/>
        <pt x="1524" y="370" on="1"/>
        <pt x="1524" y="379" on="0"/>
        <pt x="1524" y="397" on="0"/>
        <pt x="1525" y="407" on="1"/>
        <pt x="1106" y="354" on="1"/>
        <pt x="929" y="180" on="0"/>
        <pt x="678" y="56" on="1"/>
        <pt x="426" y="-67" on="0"/>
      </contour>
    </TTGlyph>
    <TTGlyph name="Atilde" xMin="-11" yMin="-67" xMax="2862" yMax="1860">
      <contour>
        <pt x="1955" y="1591" on="0"/>
        <pt x="1918" y="1570" on="0"/>
        <pt x="1885" y="1570" on="0"/>
        <pt x="1857" y="1581" on="0"/>
        <pt x="1846" y="1590" on="1"/>
        <pt x="1822" y="1610" on="0"/>
        <pt x="1822" y="1662" on="0"/>
        <pt x="1854" y="1695" on="0"/>
        <pt x="1904" y="1731" on="0"/>
        <pt x="1973" y="1770" on="0"/>
        <pt x="2057" y="1809" on="0"/>
        <pt x="2102" y="1824" on="1"/>
        <pt x="2203" y="1860" on="0"/>
        <pt x="2334" y="1860" on="0"/>
        <pt x="2426" y="1808" on="0"/>
        <pt x="2504" y="1745" on="0"/>
        <pt x="2575" y="1693" on="0"/>
        <pt x="2608" y="1693" on="1"/>
        <pt x="2682" y="1693" on="0"/>
        <pt x="2754" y="1724" on="1"/>
        <pt x="2773" y="1731" on="0"/>
        <pt x="2816" y="1731" on="0"/>
        <pt x="2862" y="1694" on="0"/>
        <pt x="2862" y="1643" on="0"/>
        <pt x="2820" y="1606" on="0"/>
        <pt x="2730" y="1558" on="0"/>
        <pt x="2670" y="1536" on="1"/>
        <pt x="2527" y="1483" on="0"/>
        <pt x="2414" y="1483" on="1"/>
        <pt x="2333" y="1483" on="0"/>
        <pt x="2218" y="1552" on="1"/>
        <pt x="2142" y="1598" on="1"/>
        <pt x="2109" y="1620" on="0"/>
        <pt x="2088" y="1620" on="1"/>
        <pt x="2022" y="1620" on="0"/>
      </contour>
      <contour>
        <pt x="257" y="-67" on="1"/>
        <pt x="205" y="-67" on="0"/>
        <pt x="112" y="-18" on="0"/>
        <pt x="74" y="27" on="1"/>
        <pt x="-11" y="130" on="0"/>
        <pt x="-11" y="274" on="1"/>
        <pt x="-11" y="333" on="0"/>
        <pt x="82" y="452" on="0"/>
        <pt x="188" y="500" on="1"/>
        <pt x="426" y="607" on="0"/>
        <pt x="883" y="607" on="1"/>
        <pt x="1720" y="1256" on="1"/>
        <pt x="1762" y="1289" on="0"/>
        <pt x="1770" y="1296" on="1"/>
        <pt x="1783" y="1310" on="0"/>
        <pt x="1824" y="1310" on="0"/>
        <pt x="1863" y="1302" on="0"/>
        <pt x="1879" y="1295" on="1"/>
        <pt x="1914" y="1280" on="0"/>
        <pt x="1914" y="1260" on="1"/>
        <pt x="1914" y="1246" on="0"/>
        <pt x="1907" y="1238" on="1"/>
        <pt x="1335" y="610" on="1"/>
        <pt x="1579" y="610" on="1"/>
        <pt x="1595" y="646" on="0"/>
        <pt x="1632" y="710" on="1"/>
        <pt x="1724" y="860" on="1"/>
        <pt x="1778" y="946" on="0"/>
        <pt x="1830" y="1022" on="1"/>
        <pt x="1931" y="1162" on="1"/>
        <pt x="2086" y="1369" on="0"/>
        <pt x="2155" y="1369" on="1"/>
        <pt x="2162" y="1369" on="0"/>
        <pt x="2257" y="1332" on="0"/>
        <pt x="2290" y="1314" on="1"/>
        <pt x="2370" y="1272" on="0"/>
        <pt x="2370" y="1235" on="1"/>
        <pt x="2370" y="1200" on="0"/>
        <pt x="2308" y="1123" on="0"/>
        <pt x="2239" y="1019" on="0"/>
        <pt x="2160" y="888" on="0"/>
        <pt x="2080" y="741" on="0"/>
        <pt x="2048" y="672" on="1"/>
        <pt x="1975" y="515" on="0"/>
        <pt x="1975" y="404" on="0"/>
        <pt x="1992" y="354" on="0"/>
        <pt x="2004" y="342" on="1"/>
        <pt x="2023" y="323" on="0"/>
        <pt x="2107" y="323" on="0"/>
        <pt x="2194" y="354" on="0"/>
        <pt x="2277" y="401" on="0"/>
        <pt x="2357" y="456" on="0"/>
        <pt x="2395" y="480" on="1"/>
        <pt x="2483" y="534" on="0"/>
        <pt x="2567" y="534" on="0"/>
        <pt x="2596" y="495" on="0"/>
        <pt x="2596" y="433" on="0"/>
        <pt x="2544" y="328" on="0"/>
        <pt x="2450" y="216" on="0"/>
        <pt x="2322" y="107" on="0"/>
        <pt x="2246" y="64" on="1"/>
        <pt x="2075" y="-31" on="0"/>
        <pt x="1911" y="-31" on="1"/>
        <pt x="1763" y="-31" on="0"/>
        <pt x="1650" y="73" on="1"/>
        <pt x="1524" y="188" on="0"/>
        <pt x="1524" y="370" on="1"/>
        <pt x="1524" y="379" on="0"/>
        <pt x="1524" y="397" on="0"/>
        <pt x="1525" y="407" on="1"/>
        <pt x="1106" y="354" on="1"/>
        <pt x="929" y="180" on="0"/>
        <pt x="678" y="56" on="1"/>
        <pt x="426" y="-67" on="0"/>
      </contour>
    </TTGlyph>
    <TTGlyph name="B" xMin="-1" yMin="-48" xMax="2045" yMax="1372">
      <contour>
        <pt x="207" y="69" on="0"/>
        <pt x="169" y="160" on="0"/>
        <pt x="169" y="227" on="0"/>
        <pt x="205" y="319" on="0"/>
        <pt x="267" y="440" on="0"/>
        <pt x="349" y="583" on="0"/>
        <pt x="396" y="656" on="1"/>
        <pt x="490" y="801" on="1"/>
        <pt x="539" y="872" on="0"/>
        <pt x="586" y="933" on="1"/>
        <pt x="386" y="869" on="0"/>
        <pt x="193" y="748" on="0"/>
        <pt x="89" y="692" on="0"/>
        <pt x="55" y="692" on="1"/>
        <pt x="-1" y="692" on="0"/>
        <pt x="-1" y="762" on="1"/>
        <pt x="-1" y="862" on="0"/>
        <pt x="103" y="1008" on="1"/>
        <pt x="211" y="1159" on="0"/>
        <pt x="442" y="1231" on="0"/>
        <pt x="727" y="1296" on="0"/>
        <pt x="881" y="1320" on="1"/>
        <pt x="1215" y="1372" on="0"/>
        <pt x="1502" y="1372" on="1"/>
        <pt x="1830" y="1372" on="0"/>
        <pt x="1921" y="1310" on="1"/>
        <pt x="2002" y="1255" on="0"/>
        <pt x="2031" y="1158" on="1"/>
        <pt x="2045" y="1111" on="0"/>
        <pt x="2045" y="1003" on="0"/>
        <pt x="1940" y="886" on="0"/>
        <pt x="1853" y="834" on="1"/>
        <pt x="1689" y="734" on="0"/>
        <pt x="1423" y="654" on="1"/>
        <pt x="1574" y="625" on="0"/>
        <pt x="1691" y="550" on="0"/>
        <pt x="1739" y="475" on="0"/>
        <pt x="1739" y="360" on="0"/>
        <pt x="1639" y="238" on="0"/>
        <pt x="1462" y="132" on="0"/>
        <pt x="1221" y="46" on="0"/>
        <pt x="1080" y="16" on="1"/>
        <pt x="786" y="-48" on="0"/>
        <pt x="468" y="-48" on="1"/>
        <pt x="330" y="-48" on="0"/>
        <pt x="245" y="33" on="1"/>
      </contour>
      <contour>
        <pt x="802" y="784" on="1"/>
        <pt x="652" y="524" on="0"/>
        <pt x="652" y="424" on="1"/>
        <pt x="652" y="378" on="0"/>
        <pt x="700" y="338" on="1"/>
        <pt x="745" y="300" on="0"/>
        <pt x="843" y="300" on="0"/>
        <pt x="961" y="309" on="0"/>
        <pt x="1085" y="325" on="0"/>
        <pt x="1205" y="347" on="0"/>
        <pt x="1252" y="361" on="1"/>
        <pt x="1356" y="392" on="0"/>
        <pt x="1356" y="424" on="1"/>
        <pt x="1356" y="482" on="0"/>
        <pt x="1195" y="520" on="1"/>
        <pt x="1064" y="550" on="0"/>
        <pt x="945" y="550" on="1"/>
        <pt x="899" y="550" on="0"/>
        <pt x="859" y="587" on="0"/>
        <pt x="859" y="636" on="0"/>
        <pt x="908" y="689" on="0"/>
        <pt x="950" y="706" on="1"/>
        <pt x="1290" y="791" on="0"/>
        <pt x="1518" y="897" on="1"/>
        <pt x="1630" y="949" on="0"/>
        <pt x="1630" y="976" on="1"/>
        <pt x="1630" y="1015" on="0"/>
        <pt x="1607" y="1039" on="1"/>
        <pt x="1566" y="1082" on="0"/>
        <pt x="1466" y="1082" on="0"/>
        <pt x="1338" y="1074" on="0"/>
        <pt x="1264" y="1066" on="1"/>
        <pt x="1101" y="1050" on="0"/>
        <pt x="941" y="1020" on="1"/>
        <pt x="918" y="973" on="0"/>
        <pt x="880" y="914" on="1"/>
      </contour>
    </TTGlyph>
    <TTGlyph name="C" xMin="30" yMin="-44" xMax="1808" yMax="1359">
      <contour>
        <pt x="538" y="470" on="1"/>
        <pt x="538" y="303" on="0"/>
        <pt x="871" y="303" on="1"/>
        <pt x="1096" y="303" on="0"/>
        <pt x="1436" y="473" on="1"/>
        <pt x="1538" y="527" on="1"/>
        <pt x="1770" y="645" on="0"/>
        <pt x="1800" y="578" on="1"/>
        <pt x="1808" y="560" on="0"/>
        <pt x="1808" y="513" on="0"/>
        <pt x="1769" y="464" on="0"/>
        <pt x="1703" y="405" on="0"/>
        <pt x="1615" y="340" on="0"/>
        <pt x="1566" y="308" on="1"/>
        <pt x="1468" y="247" on="1"/>
        <pt x="1418" y="217" on="0"/>
        <pt x="1360" y="188" on="1"/>
        <pt x="1214" y="116" on="1"/>
        <pt x="871" y="-44" on="0"/>
        <pt x="567" y="-44" on="1"/>
        <pt x="301" y="-44" on="0"/>
        <pt x="158" y="61" on="1"/>
        <pt x="30" y="154" on="0"/>
        <pt x="30" y="301" on="1"/>
        <pt x="30" y="504" on="0"/>
        <pt x="213" y="710" on="1"/>
        <pt x="371" y="887" on="0"/>
        <pt x="646" y="1046" on="1"/>
        <pt x="886" y="1185" on="0"/>
        <pt x="1158" y="1274" on="1"/>
        <pt x="1415" y="1359" on="0"/>
        <pt x="1575" y="1359" on="1"/>
        <pt x="1609" y="1359" on="0"/>
        <pt x="1632" y="1337" on="1"/>
        <pt x="1674" y="1298" on="0"/>
        <pt x="1674" y="1260" on="1"/>
        <pt x="1674" y="1112" on="0"/>
        <pt x="1551" y="1021" on="1"/>
        <pt x="1446" y="944" on="0"/>
        <pt x="1166" y="944" on="0"/>
        <pt x="1096" y="972" on="1"/>
        <pt x="835" y="871" on="0"/>
        <pt x="672" y="701" on="1"/>
        <pt x="604" y="630" on="0"/>
        <pt x="538" y="506" on="0"/>
      </contour>
    </TTGlyph>
    <TTGlyph name="Cacute" xMin="30" yMin="-44" xMax="1916" yMax="1915">
      <contour>
        <pt x="1316" y="1441" on="0"/>
        <pt x="1273" y="1478" on="0"/>
        <pt x="1273" y="1521" on="0"/>
        <pt x="1326" y="1597" on="0"/>
        <pt x="1412" y="1688" on="0"/>
        <pt x="1521" y="1785" on="0"/>
        <pt x="1576" y="1824" on="1"/>
        <pt x="1702" y="1915" on="0"/>
        <pt x="1768" y="1915" on="1"/>
        <pt x="1817" y="1915" on="0"/>
        <pt x="1851" y="1885" on="1"/>
        <pt x="1916" y="1829" on="0"/>
        <pt x="1916" y="1765" on="1"/>
        <pt x="1916" y="1753" on="0"/>
        <pt x="1911" y="1728" on="1"/>
        <pt x="1892" y="1704" on="0"/>
        <pt x="1834" y="1677" on="1"/>
        <pt x="1734" y="1632" on="1"/>
        <pt x="1653" y="1596" on="0"/>
        <pt x="1582" y="1554" on="1"/>
        <pt x="1474" y="1490" on="1"/>
        <pt x="1390" y="1441" on="0"/>
      </contour>
      <contour>
        <pt x="538" y="470" on="1"/>
        <pt x="538" y="303" on="0"/>
        <pt x="871" y="303" on="1"/>
        <pt x="1096" y="303" on="0"/>
        <pt x="1436" y="473" on="1"/>
        <pt x="1538" y="527" on="1"/>
        <pt x="1770" y="645" on="0"/>
        <pt x="1800" y="578" on="1"/>
        <pt x="1808" y="560" on="0"/>
        <pt x="1808" y="513" on="0"/>
        <pt x="1769" y="464" on="0"/>
        <pt x="1703" y="405" on="0"/>
        <pt x="1615" y="340" on="0"/>
        <pt x="1566" y="308" on="1"/>
        <pt x="1468" y="247" on="1"/>
        <pt x="1418" y="217" on="0"/>
        <pt x="1360" y="188" on="1"/>
        <pt x="1214" y="116" on="1"/>
        <pt x="871" y="-44" on="0"/>
        <pt x="567" y="-44" on="1"/>
        <pt x="301" y="-44" on="0"/>
        <pt x="158" y="61" on="1"/>
        <pt x="30" y="154" on="0"/>
        <pt x="30" y="301" on="1"/>
        <pt x="30" y="504" on="0"/>
        <pt x="213" y="710" on="1"/>
        <pt x="371" y="887" on="0"/>
        <pt x="646" y="1046" on="1"/>
        <pt x="886" y="1185" on="0"/>
        <pt x="1158" y="1274" on="1"/>
        <pt x="1415" y="1359" on="0"/>
        <pt x="1575" y="1359" on="1"/>
        <pt x="1609" y="1359" on="0"/>
        <pt x="1632" y="1337" on="1"/>
        <pt x="1674" y="1298" on="0"/>
        <pt x="1674" y="1260" on="1"/>
        <pt x="1674" y="1112" on="0"/>
        <pt x="1551" y="1021" on="1"/>
        <pt x="1446" y="944" on="0"/>
        <pt x="1166" y="944" on="0"/>
        <pt x="1096" y="972" on="1"/>
        <pt x="835" y="871" on="0"/>
        <pt x="672" y="701" on="1"/>
        <pt x="604" y="630" on="0"/>
        <pt x="538" y="506" on="0"/>
      </contour>
    </TTGlyph>
    <TTGlyph name="Ccaron" xMin="30" yMin="-44" xMax="1808" yMax="1858">
      <contour>
        <pt x="1403" y="1498" on="0"/>
        <pt x="1310" y="1473" on="0"/>
        <pt x="1247" y="1473" on="0"/>
        <pt x="1170" y="1514" on="0"/>
        <pt x="1128" y="1546" on="1"/>
        <pt x="1039" y="1614" on="0"/>
        <pt x="973" y="1697" on="1"/>
        <pt x="958" y="1712" on="0"/>
        <pt x="958" y="1754" on="0"/>
        <pt x="995" y="1799" on="0"/>
        <pt x="1022" y="1817" on="1"/>
        <pt x="1085" y="1858" on="0"/>
        <pt x="1141" y="1858" on="1"/>
        <pt x="1178" y="1858" on="0"/>
        <pt x="1276" y="1778" on="1"/>
        <pt x="1325" y="1739" on="1"/>
        <pt x="1381" y="1697" on="0"/>
        <pt x="1421" y="1697" on="0"/>
        <pt x="1494" y="1723" on="0"/>
        <pt x="1537" y="1744" on="1"/>
        <pt x="1637" y="1791" on="0"/>
        <pt x="1691" y="1839" on="1"/>
        <pt x="1705" y="1850" on="0"/>
        <pt x="1737" y="1850" on="0"/>
        <pt x="1764" y="1838" on="0"/>
        <pt x="1775" y="1828" on="1"/>
        <pt x="1799" y="1808" on="0"/>
        <pt x="1799" y="1788" on="1"/>
        <pt x="1799" y="1753" on="0"/>
        <pt x="1758" y="1710" on="0"/>
        <pt x="1687" y="1653" on="0"/>
        <pt x="1600" y="1595" on="0"/>
        <pt x="1502" y="1541" on="0"/>
      </contour>
      <contour>
        <pt x="538" y="470" on="1"/>
        <pt x="538" y="303" on="0"/>
        <pt x="871" y="303" on="1"/>
        <pt x="1096" y="303" on="0"/>
        <pt x="1436" y="473" on="1"/>
        <pt x="1538" y="527" on="1"/>
        <pt x="1770" y="645" on="0"/>
        <pt x="1800" y="578" on="1"/>
        <pt x="1808" y="560" on="0"/>
        <pt x="1808" y="513" on="0"/>
        <pt x="1769" y="464" on="0"/>
        <pt x="1703" y="405" on="0"/>
        <pt x="1615" y="340" on="0"/>
        <pt x="1566" y="308" on="1"/>
        <pt x="1468" y="247" on="1"/>
        <pt x="1418" y="217" on="0"/>
        <pt x="1360" y="188" on="1"/>
        <pt x="1214" y="116" on="1"/>
        <pt x="871" y="-44" on="0"/>
        <pt x="567" y="-44" on="1"/>
        <pt x="301" y="-44" on="0"/>
        <pt x="158" y="61" on="1"/>
        <pt x="30" y="154" on="0"/>
        <pt x="30" y="301" on="1"/>
        <pt x="30" y="504" on="0"/>
        <pt x="213" y="710" on="1"/>
        <pt x="371" y="887" on="0"/>
        <pt x="646" y="1046" on="1"/>
        <pt x="886" y="1185" on="0"/>
        <pt x="1158" y="1274" on="1"/>
        <pt x="1415" y="1359" on="0"/>
        <pt x="1575" y="1359" on="1"/>
        <pt x="1609" y="1359" on="0"/>
        <pt x="1632" y="1337" on="1"/>
        <pt x="1674" y="1298" on="0"/>
        <pt x="1674" y="1260" on="1"/>
        <pt x="1674" y="1112" on="0"/>
        <pt x="1551" y="1021" on="1"/>
        <pt x="1446" y="944" on="0"/>
        <pt x="1166" y="944" on="0"/>
        <pt x="1096" y="972" on="1"/>
        <pt x="835" y="871" on="0"/>
        <pt x="672" y="701" on="1"/>
        <pt x="604" y="630" on="0"/>
        <pt x="538" y="506" on="0"/>
      </contour>
    </TTGlyph>
    <TTGlyph name="Ccedilla" xMin="30" yMin="-637" xMax="1808" yMax="1359">
      <contour>
        <pt x="318" y="-240" on="0"/>
        <pt x="271" y="-189" on="0"/>
        <pt x="271" y="-123" on="0"/>
        <pt x="361" y="-24" on="1"/>
        <pt x="197" y="10" on="0"/>
        <pt x="110" y="103" on="1"/>
        <pt x="30" y="187" on="0"/>
        <pt x="30" y="409" on="0"/>
        <pt x="129" y="615" on="0"/>
        <pt x="297" y="804" on="0"/>
        <pt x="521" y="974" on="0"/>
        <pt x="772" y="1119" on="0"/>
        <pt x="1035" y="1234" on="0"/>
        <pt x="1158" y="1274" on="1"/>
        <pt x="1415" y="1359" on="0"/>
        <pt x="1575" y="1359" on="1"/>
        <pt x="1609" y="1359" on="0"/>
        <pt x="1632" y="1337" on="1"/>
        <pt x="1674" y="1298" on="0"/>
        <pt x="1674" y="1260" on="1"/>
        <pt x="1674" y="1112" on="0"/>
        <pt x="1551" y="1021" on="1"/>
        <pt x="1446" y="944" on="0"/>
        <pt x="1166" y="944" on="0"/>
        <pt x="1096" y="972" on="1"/>
        <pt x="835" y="871" on="0"/>
        <pt x="672" y="701" on="1"/>
        <pt x="604" y="630" on="0"/>
        <pt x="538" y="506" on="0"/>
        <pt x="538" y="470" on="1"/>
        <pt x="538" y="303" on="0"/>
        <pt x="871" y="303" on="1"/>
        <pt x="1096" y="303" on="0"/>
        <pt x="1436" y="473" on="1"/>
        <pt x="1538" y="527" on="1"/>
        <pt x="1770" y="645" on="0"/>
        <pt x="1800" y="578" on="1"/>
        <pt x="1808" y="560" on="0"/>
        <pt x="1808" y="513" on="0"/>
        <pt x="1769" y="464" on="0"/>
        <pt x="1703" y="405" on="0"/>
        <pt x="1615" y="340" on="0"/>
        <pt x="1566" y="308" on="1"/>
        <pt x="1468" y="247" on="1"/>
        <pt x="1418" y="217" on="0"/>
        <pt x="1366" y="190" on="1"/>
        <pt x="1240" y="129" on="1"/>
        <pt x="957" y="-5" on="0"/>
        <pt x="711" y="-35" on="1"/>
        <pt x="591" y="-88" on="0"/>
        <pt x="547" y="-122" on="1"/>
        <pt x="753" y="-179" on="0"/>
        <pt x="753" y="-300" on="1"/>
        <pt x="753" y="-399" on="0"/>
        <pt x="572" y="-524" on="1"/>
        <pt x="478" y="-589" on="0"/>
        <pt x="354" y="-637" on="0"/>
        <pt x="306" y="-637" on="0"/>
        <pt x="274" y="-593" on="0"/>
        <pt x="274" y="-544" on="0"/>
        <pt x="297" y="-519" on="1"/>
        <pt x="348" y="-466" on="1"/>
        <pt x="421" y="-391" on="0"/>
        <pt x="421" y="-333" on="1"/>
        <pt x="421" y="-320" on="0"/>
        <pt x="398" y="-302" on="1"/>
        <pt x="346" y="-262" on="1"/>
      </contour>
    </TTGlyph>
    <TTGlyph name="Ccircumflex" xMin="30" yMin="-44" xMax="2033" yMax="1880">
      <contour>
        <pt x="1403" y="1587" on="0"/>
        <pt x="1327" y="1538" on="0"/>
        <pt x="1286" y="1503" on="0"/>
        <pt x="1253" y="1503" on="0"/>
        <pt x="1227" y="1514" on="0"/>
        <pt x="1216" y="1524" on="1"/>
        <pt x="1192" y="1546" on="0"/>
        <pt x="1192" y="1565" on="1"/>
        <pt x="1192" y="1600" on="0"/>
        <pt x="1233" y="1643" on="0"/>
        <pt x="1304" y="1700" on="0"/>
        <pt x="1391" y="1758" on="0"/>
        <pt x="1489" y="1812" on="0"/>
        <pt x="1538" y="1834" on="1"/>
        <pt x="1646" y="1880" on="0"/>
        <pt x="1760" y="1880" on="0"/>
        <pt x="1840" y="1839" on="0"/>
        <pt x="1878" y="1807" on="1"/>
        <pt x="1936" y="1759" on="0"/>
        <pt x="2018" y="1656" on="1"/>
        <pt x="2033" y="1641" on="0"/>
        <pt x="2033" y="1599" on="0"/>
        <pt x="1996" y="1554" on="0"/>
        <pt x="1968" y="1536" on="1"/>
        <pt x="1906" y="1495" on="0"/>
        <pt x="1850" y="1495" on="1"/>
        <pt x="1810" y="1495" on="0"/>
        <pt x="1595" y="1650" on="0"/>
        <pt x="1544" y="1650" on="0"/>
        <pt x="1479" y="1626" on="0"/>
      </contour>
      <contour>
        <pt x="538" y="470" on="1"/>
        <pt x="538" y="303" on="0"/>
        <pt x="871" y="303" on="1"/>
        <pt x="1096" y="303" on="0"/>
        <pt x="1436" y="473" on="1"/>
        <pt x="1538" y="527" on="1"/>
        <pt x="1770" y="645" on="0"/>
        <pt x="1800" y="578" on="1"/>
        <pt x="1808" y="560" on="0"/>
        <pt x="1808" y="513" on="0"/>
        <pt x="1769" y="464" on="0"/>
        <pt x="1703" y="405" on="0"/>
        <pt x="1615" y="340" on="0"/>
        <pt x="1566" y="308" on="1"/>
        <pt x="1468" y="247" on="1"/>
        <pt x="1418" y="217" on="0"/>
        <pt x="1360" y="188" on="1"/>
        <pt x="1214" y="116" on="1"/>
        <pt x="871" y="-44" on="0"/>
        <pt x="567" y="-44" on="1"/>
        <pt x="301" y="-44" on="0"/>
        <pt x="158" y="61" on="1"/>
        <pt x="30" y="154" on="0"/>
        <pt x="30" y="301" on="1"/>
        <pt x="30" y="504" on="0"/>
        <pt x="213" y="710" on="1"/>
        <pt x="371" y="887" on="0"/>
        <pt x="646" y="1046" on="1"/>
        <pt x="886" y="1185" on="0"/>
        <pt x="1158" y="1274" on="1"/>
        <pt x="1415" y="1359" on="0"/>
        <pt x="1575" y="1359" on="1"/>
        <pt x="1609" y="1359" on="0"/>
        <pt x="1632" y="1337" on="1"/>
        <pt x="1674" y="1298" on="0"/>
        <pt x="1674" y="1260" on="1"/>
        <pt x="1674" y="1112" on="0"/>
        <pt x="1551" y="1021" on="1"/>
        <pt x="1446" y="944" on="0"/>
        <pt x="1166" y="944" on="0"/>
        <pt x="1096" y="972" on="1"/>
        <pt x="835" y="871" on="0"/>
        <pt x="672" y="701" on="1"/>
        <pt x="604" y="630" on="0"/>
        <pt x="538" y="506" on="0"/>
      </contour>
    </TTGlyph>
    <TTGlyph name="Cdotaccent" xMin="30" yMin="-44" xMax="1808" yMax="1916">
      <contour>
        <pt x="1566" y="1542" on="0"/>
        <pt x="1498" y="1511" on="0"/>
        <pt x="1414" y="1511" on="0"/>
        <pt x="1336" y="1539" on="0"/>
        <pt x="1307" y="1564" on="1"/>
        <pt x="1244" y="1618" on="0"/>
        <pt x="1244" y="1702" on="1"/>
        <pt x="1244" y="1831" on="0"/>
        <pt x="1460" y="1894" on="1"/>
        <pt x="1533" y="1916" on="0"/>
        <pt x="1627" y="1916" on="0"/>
        <pt x="1674" y="1895" on="0"/>
        <pt x="1689" y="1878" on="1"/>
        <pt x="1719" y="1844" on="0"/>
        <pt x="1719" y="1773" on="0"/>
        <pt x="1702" y="1715" on="0"/>
        <pt x="1670" y="1653" on="0"/>
        <pt x="1624" y="1591" on="0"/>
      </contour>
      <contour>
        <pt x="538" y="470" on="1"/>
        <pt x="538" y="303" on="0"/>
        <pt x="871" y="303" on="1"/>
        <pt x="1096" y="303" on="0"/>
        <pt x="1436" y="473" on="1"/>
        <pt x="1538" y="527" on="1"/>
        <pt x="1770" y="645" on="0"/>
        <pt x="1800" y="578" on="1"/>
        <pt x="1808" y="560" on="0"/>
        <pt x="1808" y="513" on="0"/>
        <pt x="1769" y="464" on="0"/>
        <pt x="1703" y="405" on="0"/>
        <pt x="1615" y="340" on="0"/>
        <pt x="1566" y="308" on="1"/>
        <pt x="1468" y="247" on="1"/>
        <pt x="1418" y="217" on="0"/>
        <pt x="1360" y="188" on="1"/>
        <pt x="1214" y="116" on="1"/>
        <pt x="871" y="-44" on="0"/>
        <pt x="567" y="-44" on="1"/>
        <pt x="301" y="-44" on="0"/>
        <pt x="158" y="61" on="1"/>
        <pt x="30" y="154" on="0"/>
        <pt x="30" y="301" on="1"/>
        <pt x="30" y="504" on="0"/>
        <pt x="213" y="710" on="1"/>
        <pt x="371" y="887" on="0"/>
        <pt x="646" y="1046" on="1"/>
        <pt x="886" y="1185" on="0"/>
        <pt x="1158" y="1274" on="1"/>
        <pt x="1415" y="1359" on="0"/>
        <pt x="1575" y="1359" on="1"/>
        <pt x="1609" y="1359" on="0"/>
        <pt x="1632" y="1337" on="1"/>
        <pt x="1674" y="1298" on="0"/>
        <pt x="1674" y="1260" on="1"/>
        <pt x="1674" y="1112" on="0"/>
        <pt x="1551" y="1021" on="1"/>
        <pt x="1446" y="944" on="0"/>
        <pt x="1166" y="944" on="0"/>
        <pt x="1096" y="972" on="1"/>
        <pt x="835" y="871" on="0"/>
        <pt x="672" y="701" on="1"/>
        <pt x="604" y="630" on="0"/>
        <pt x="538" y="506" on="0"/>
      </contour>
    </TTGlyph>
    <TTGlyph name="D" xMin="72" yMin="-42" xMax="2155" yMax="1367">
      <contour>
        <pt x="268" y="201" on="1"/>
        <pt x="268" y="240" on="0"/>
        <pt x="318" y="335" on="0"/>
        <pt x="354" y="396" on="1"/>
        <pt x="530" y="681" on="1"/>
        <pt x="530" y="681" on="0"/>
        <pt x="727" y="986" on="1"/>
        <pt x="495" y="925" on="0"/>
        <pt x="342" y="835" on="1"/>
        <pt x="289" y="804" on="0"/>
        <pt x="254" y="771" on="1"/>
        <pt x="188" y="720" on="0"/>
        <pt x="147" y="720" on="1"/>
        <pt x="72" y="720" on="0"/>
        <pt x="72" y="787" on="1"/>
        <pt x="72" y="817" on="0"/>
        <pt x="95" y="865" on="0"/>
        <pt x="132" y="931" on="0"/>
        <pt x="181" y="1010" on="0"/>
        <pt x="241" y="1095" on="0"/>
        <pt x="275" y="1134" on="1"/>
        <pt x="351" y="1223" on="0"/>
        <pt x="461" y="1275" on="0"/>
        <pt x="590" y="1314" on="0"/>
        <pt x="677" y="1330" on="1"/>
        <pt x="878" y="1367" on="0"/>
        <pt x="1113" y="1367" on="1"/>
        <pt x="1622" y="1367" on="0"/>
        <pt x="1913" y="1220" on="1"/>
        <pt x="2155" y="1097" on="0"/>
        <pt x="2155" y="878" on="1"/>
        <pt x="2155" y="831" on="0"/>
        <pt x="2128" y="699" on="0"/>
        <pt x="2029" y="499" on="0"/>
        <pt x="1859" y="313" on="0"/>
        <pt x="1616" y="150" on="0"/>
        <pt x="1454" y="89" on="1"/>
        <pt x="1108" y="-42" on="0"/>
        <pt x="636" y="-42" on="1"/>
        <pt x="452" y="-42" on="0"/>
        <pt x="351" y="40" on="1"/>
        <pt x="268" y="106" on="0"/>
      </contour>
      <contour>
        <pt x="793" y="513" on="0"/>
        <pt x="767" y="440" on="0"/>
        <pt x="767" y="398" on="0"/>
        <pt x="792" y="355" on="0"/>
        <pt x="817" y="338" on="1"/>
        <pt x="874" y="301" on="0"/>
        <pt x="1098" y="301" on="0"/>
        <pt x="1333" y="337" on="0"/>
        <pt x="1529" y="397" on="0"/>
        <pt x="1683" y="474" on="0"/>
        <pt x="1738" y="514" on="1"/>
        <pt x="1848" y="597" on="0"/>
        <pt x="1861" y="667" on="1"/>
        <pt x="1864" y="683" on="0"/>
        <pt x="1864" y="701" on="1"/>
        <pt x="1864" y="906" on="0"/>
        <pt x="1426" y="992" on="1"/>
        <pt x="1258" y="1026" on="0"/>
        <pt x="1063" y="1030" on="1"/>
        <pt x="871" y="683" on="0"/>
      </contour>
    </TTGlyph>
    <TTGlyph name="Dcaron" xMin="72" yMin="-42" xMax="2155" yMax="1858">
      <contour>
        <pt x="1198" y="1712" on="0"/>
        <pt x="1198" y="1754" on="0"/>
        <pt x="1235" y="1799" on="0"/>
        <pt x="1262" y="1817" on="1"/>
        <pt x="1325" y="1858" on="0"/>
        <pt x="1381" y="1858" on="1"/>
        <pt x="1418" y="1858" on="0"/>
        <pt x="1516" y="1778" on="1"/>
        <pt x="1565" y="1739" on="1"/>
        <pt x="1621" y="1697" on="0"/>
        <pt x="1661" y="1697" on="0"/>
        <pt x="1734" y="1723" on="0"/>
        <pt x="1777" y="1744" on="1"/>
        <pt x="1877" y="1791" on="0"/>
        <pt x="1931" y="1839" on="1"/>
        <pt x="1945" y="1850" on="0"/>
        <pt x="1977" y="1850" on="0"/>
        <pt x="2004" y="1838" on="0"/>
        <pt x="2015" y="1828" on="1"/>
        <pt x="2039" y="1808" on="0"/>
        <pt x="2039" y="1788" on="1"/>
        <pt x="2039" y="1753" on="0"/>
        <pt x="1998" y="1710" on="0"/>
        <pt x="1927" y="1653" on="0"/>
        <pt x="1840" y="1595" on="0"/>
        <pt x="1742" y="1541" on="0"/>
        <pt x="1692" y="1520" on="1"/>
        <pt x="1585" y="1473" on="0"/>
        <pt x="1512" y="1473" on="1"/>
        <pt x="1464" y="1473" on="0"/>
        <pt x="1368" y="1546" on="1"/>
        <pt x="1287" y="1608" on="0"/>
      </contour>
      <contour>
        <pt x="268" y="201" on="1"/>
        <pt x="268" y="240" on="0"/>
        <pt x="318" y="335" on="0"/>
        <pt x="354" y="396" on="1"/>
        <pt x="530" y="681" on="1"/>
        <pt x="727" y="986" on="1"/>
        <pt x="495" y="925" on="0"/>
        <pt x="342" y="835" on="1"/>
        <pt x="289" y="804" on="0"/>
        <pt x="254" y="771" on="1"/>
        <pt x="188" y="720" on="0"/>
        <pt x="147" y="720" on="1"/>
        <pt x="72" y="720" on="0"/>
        <pt x="72" y="787" on="1"/>
        <pt x="72" y="817" on="0"/>
        <pt x="95" y="865" on="0"/>
        <pt x="132" y="931" on="0"/>
        <pt x="181" y="1010" on="0"/>
        <pt x="241" y="1095" on="0"/>
        <pt x="275" y="1134" on="1"/>
        <pt x="351" y="1223" on="0"/>
        <pt x="461" y="1275" on="0"/>
        <pt x="590" y="1314" on="0"/>
        <pt x="677" y="1330" on="1"/>
        <pt x="878" y="1367" on="0"/>
        <pt x="1113" y="1367" on="1"/>
        <pt x="1622" y="1367" on="0"/>
        <pt x="1913" y="1220" on="1"/>
        <pt x="2155" y="1097" on="0"/>
        <pt x="2155" y="878" on="1"/>
        <pt x="2155" y="831" on="0"/>
        <pt x="2128" y="699" on="0"/>
        <pt x="2029" y="499" on="0"/>
        <pt x="1859" y="313" on="0"/>
        <pt x="1616" y="150" on="0"/>
        <pt x="1454" y="89" on="1"/>
        <pt x="1108" y="-42" on="0"/>
        <pt x="636" y="-42" on="1"/>
        <pt x="452" y="-42" on="0"/>
        <pt x="351" y="40" on="1"/>
        <pt x="268" y="106" on="0"/>
      </contour>
      <contour>
        <pt x="793" y="513" on="0"/>
        <pt x="767" y="440" on="0"/>
        <pt x="767" y="398" on="0"/>
        <pt x="792" y="355" on="0"/>
        <pt x="817" y="338" on="1"/>
        <pt x="874" y="301" on="0"/>
        <pt x="1098" y="301" on="0"/>
        <pt x="1333" y="337" on="0"/>
        <pt x="1529" y="397" on="0"/>
        <pt x="1683" y="474" on="0"/>
        <pt x="1738" y="514" on="1"/>
        <pt x="1848" y="597" on="0"/>
        <pt x="1861" y="667" on="1"/>
        <pt x="1864" y="683" on="0"/>
        <pt x="1864" y="701" on="1"/>
        <pt x="1864" y="906" on="0"/>
        <pt x="1426" y="992" on="1"/>
        <pt x="1258" y="1026" on="0"/>
        <pt x="1063" y="1030" on="1"/>
        <pt x="871" y="683" on="0"/>
      </contour>
    </TTGlyph>
    <TTGlyph name="Dcroat" xMin="72" yMin="-42" xMax="2155" yMax="1367">
      <contour>
        <pt x="430" y="535" on="1"/>
        <pt x="335" y="535" on="0"/>
        <pt x="335" y="596" on="1"/>
        <pt x="335" y="637" on="0"/>
        <pt x="366" y="668" on="1"/>
        <pt x="419" y="721" on="0"/>
        <pt x="468" y="723" on="1"/>
        <pt x="559" y="727" on="1"/>
        <pt x="727" y="986" on="1"/>
        <pt x="495" y="925" on="0"/>
        <pt x="342" y="835" on="1"/>
        <pt x="289" y="804" on="0"/>
        <pt x="254" y="771" on="1"/>
        <pt x="188" y="720" on="0"/>
        <pt x="147" y="720" on="1"/>
        <pt x="72" y="720" on="0"/>
        <pt x="72" y="787" on="1"/>
        <pt x="72" y="817" on="0"/>
        <pt x="95" y="865" on="0"/>
        <pt x="132" y="931" on="0"/>
        <pt x="181" y="1010" on="0"/>
        <pt x="241" y="1095" on="0"/>
        <pt x="275" y="1134" on="1"/>
        <pt x="351" y="1223" on="0"/>
        <pt x="461" y="1275" on="0"/>
        <pt x="590" y="1314" on="0"/>
        <pt x="677" y="1330" on="1"/>
        <pt x="878" y="1367" on="0"/>
        <pt x="1113" y="1367" on="1"/>
        <pt x="1622" y="1367" on="0"/>
        <pt x="1913" y="1220" on="1"/>
        <pt x="2155" y="1097" on="0"/>
        <pt x="2155" y="878" on="1"/>
        <pt x="2155" y="831" on="0"/>
        <pt x="2128" y="699" on="0"/>
        <pt x="2029" y="499" on="0"/>
        <pt x="1859" y="313" on="0"/>
        <pt x="1616" y="150" on="0"/>
        <pt x="1454" y="89" on="1"/>
        <pt x="1108" y="-42" on="0"/>
        <pt x="636" y="-42" on="1"/>
        <pt x="452" y="-42" on="0"/>
        <pt x="351" y="40" on="1"/>
        <pt x="268" y="106" on="0"/>
        <pt x="268" y="203" on="1"/>
        <pt x="268" y="237" on="0"/>
        <pt x="300" y="302" on="0"/>
        <pt x="322" y="342" on="1"/>
        <pt x="438" y="535" on="1"/>
      </contour>
      <contour>
        <pt x="803" y="535" on="1"/>
        <pt x="767" y="452" on="0"/>
        <pt x="767" y="398" on="0"/>
        <pt x="792" y="355" on="0"/>
        <pt x="817" y="338" on="1"/>
        <pt x="874" y="301" on="0"/>
        <pt x="1098" y="301" on="0"/>
        <pt x="1333" y="337" on="0"/>
        <pt x="1529" y="397" on="0"/>
        <pt x="1683" y="474" on="0"/>
        <pt x="1738" y="514" on="1"/>
        <pt x="1848" y="597" on="0"/>
        <pt x="1861" y="667" on="1"/>
        <pt x="1864" y="683" on="0"/>
        <pt x="1864" y="701" on="1"/>
        <pt x="1864" y="906" on="0"/>
        <pt x="1426" y="992" on="1"/>
        <pt x="1258" y="1026" on="0"/>
        <pt x="1063" y="1030" on="1"/>
        <pt x="906" y="743" on="1"/>
        <pt x="1222" y="758" on="1"/>
        <pt x="1259" y="760" on="0"/>
        <pt x="1280" y="727" on="1"/>
        <pt x="1312" y="678" on="0"/>
        <pt x="1260" y="600" on="1"/>
        <pt x="1217" y="535" on="0"/>
        <pt x="1148" y="535" on="1"/>
      </contour>
    </TTGlyph>
    <TTGlyph name="Delta" xMin="512" yMin="5" xMax="1699" yMax="1530">
      <contour>
        <pt x="512" y="137" on="1"/>
        <pt x="1022" y="1530" on="1"/>
        <pt x="1189" y="1530" on="1"/>
        <pt x="1699" y="137" on="1"/>
        <pt x="1699" y="5" on="1"/>
        <pt x="512" y="5" on="1"/>
      </contour>
      <contour>
        <pt x="1532" y="137" on="1"/>
        <pt x="1134" y="1258" on="1"/>
        <pt x="1105" y="1351" on="1"/>
        <pt x="1075" y="1255" on="1"/>
        <pt x="679" y="137" on="1"/>
      </contour>
    </TTGlyph>
    <TTGlyph name="E" xMin="22" yMin="-38" xMax="1837" yMax="1361">
      <contour>
        <pt x="145" y="61" on="0"/>
        <pt x="58" y="163" on="0"/>
        <pt x="44" y="208" on="1"/>
        <pt x="22" y="275" on="0"/>
        <pt x="22" y="371" on="0"/>
        <pt x="85" y="495" on="0"/>
        <pt x="158" y="556" on="1"/>
        <pt x="318" y="689" on="0"/>
        <pt x="649" y="784" on="1"/>
        <pt x="543" y="829" on="0"/>
        <pt x="528" y="927" on="1"/>
        <pt x="513" y="1039" on="0"/>
        <pt x="624" y="1126" on="1"/>
        <pt x="829" y="1287" on="0"/>
        <pt x="1412" y="1344" on="1"/>
        <pt x="1592" y="1361" on="0"/>
        <pt x="1755" y="1361" on="0"/>
        <pt x="1824" y="1309" on="0"/>
        <pt x="1837" y="1206" on="0"/>
        <pt x="1785" y="1136" on="0"/>
        <pt x="1737" y="1115" on="1"/>
        <pt x="1648" y="1076" on="0"/>
        <pt x="1494" y="1076" on="1"/>
        <pt x="1381" y="1076" on="0"/>
        <pt x="1288" y="1110" on="1"/>
        <pt x="1263" y="1120" on="0"/>
        <pt x="1249" y="1131" on="1"/>
        <pt x="1049" y="1069" on="0"/>
        <pt x="1022" y="992" on="1"/>
        <pt x="1014" y="972" on="0"/>
        <pt x="1016" y="955" on="1"/>
        <pt x="1025" y="894" on="0"/>
        <pt x="1167" y="836" on="0"/>
        <pt x="1312" y="828" on="1"/>
        <pt x="1360" y="824" on="0"/>
        <pt x="1407" y="780" on="0"/>
        <pt x="1414" y="732" on="0"/>
        <pt x="1400" y="705" on="0"/>
        <pt x="1386" y="696" on="1"/>
        <pt x="1362" y="680" on="0"/>
        <pt x="1220" y="658" on="0"/>
        <pt x="1032" y="619" on="0"/>
        <pt x="862" y="575" on="0"/>
        <pt x="717" y="529" on="0"/>
        <pt x="664" y="508" on="1"/>
        <pt x="552" y="461" on="0"/>
        <pt x="560" y="404" on="0"/>
        <pt x="598" y="362" on="0"/>
        <pt x="630" y="346" on="1"/>
        <pt x="690" y="318" on="0"/>
        <pt x="863" y="303" on="0"/>
        <pt x="1026" y="303" on="0"/>
        <pt x="1213" y="330" on="0"/>
        <pt x="1376" y="372" on="0"/>
        <pt x="1513" y="419" on="0"/>
        <pt x="1564" y="440" on="1"/>
        <pt x="1646" y="474" on="1"/>
        <pt x="1678" y="488" on="0"/>
        <pt x="1704" y="488" on="1"/>
        <pt x="1773" y="488" on="0"/>
        <pt x="1782" y="415" on="1"/>
        <pt x="1794" y="316" on="0"/>
        <pt x="1560" y="192" on="1"/>
        <pt x="1247" y="25" on="0"/>
        <pt x="868" y="-26" on="1"/>
        <pt x="780" y="-38" on="0"/>
        <pt x="533" y="-38" on="0"/>
        <pt x="299" y="-6" on="0"/>
      </contour>
    </TTGlyph>
    <TTGlyph name="Eacute" xMin="22" yMin="-38" xMax="1915" yMax="1915">
      <contour>
        <pt x="1315" y="1441" on="0"/>
        <pt x="1272" y="1478" on="0"/>
        <pt x="1272" y="1521" on="0"/>
        <pt x="1325" y="1597" on="0"/>
        <pt x="1411" y="1688" on="0"/>
        <pt x="1520" y="1785" on="0"/>
        <pt x="1575" y="1824" on="1"/>
        <pt x="1701" y="1915" on="0"/>
        <pt x="1767" y="1915" on="1"/>
        <pt x="1816" y="1915" on="0"/>
        <pt x="1850" y="1885" on="1"/>
        <pt x="1915" y="1829" on="0"/>
        <pt x="1915" y="1765" on="1"/>
        <pt x="1915" y="1753" on="0"/>
        <pt x="1910" y="1728" on="1"/>
        <pt x="1891" y="1704" on="0"/>
        <pt x="1833" y="1677" on="1"/>
        <pt x="1732" y="1632" on="1"/>
        <pt x="1652" y="1596" on="0"/>
        <pt x="1581" y="1554" on="1"/>
        <pt x="1472" y="1490" on="1"/>
        <pt x="1389" y="1441" on="0"/>
      </contour>
      <contour>
        <pt x="145" y="61" on="0"/>
        <pt x="58" y="163" on="0"/>
        <pt x="44" y="208" on="1"/>
        <pt x="22" y="275" on="0"/>
        <pt x="22" y="371" on="0"/>
        <pt x="85" y="495" on="0"/>
        <pt x="158" y="556" on="1"/>
        <pt x="318" y="689" on="0"/>
        <pt x="649" y="784" on="1"/>
        <pt x="543" y="829" on="0"/>
        <pt x="528" y="927" on="1"/>
        <pt x="513" y="1039" on="0"/>
        <pt x="624" y="1126" on="1"/>
        <pt x="829" y="1287" on="0"/>
        <pt x="1412" y="1344" on="1"/>
        <pt x="1592" y="1361" on="0"/>
        <pt x="1755" y="1361" on="0"/>
        <pt x="1824" y="1309" on="0"/>
        <pt x="1837" y="1206" on="0"/>
        <pt x="1785" y="1136" on="0"/>
        <pt x="1737" y="1115" on="1"/>
        <pt x="1648" y="1076" on="0"/>
        <pt x="1494" y="1076" on="1"/>
        <pt x="1381" y="1076" on="0"/>
        <pt x="1288" y="1110" on="1"/>
        <pt x="1263" y="1120" on="0"/>
        <pt x="1249" y="1131" on="1"/>
        <pt x="1049" y="1069" on="0"/>
        <pt x="1022" y="992" on="1"/>
        <pt x="1014" y="972" on="0"/>
        <pt x="1016" y="955" on="1"/>
        <pt x="1025" y="894" on="0"/>
        <pt x="1167" y="836" on="0"/>
        <pt x="1312" y="828" on="1"/>
        <pt x="1360" y="824" on="0"/>
        <pt x="1407" y="780" on="0"/>
        <pt x="1414" y="732" on="0"/>
        <pt x="1400" y="705" on="0"/>
        <pt x="1386" y="696" on="1"/>
        <pt x="1362" y="680" on="0"/>
        <pt x="1220" y="658" on="0"/>
        <pt x="1032" y="619" on="0"/>
        <pt x="862" y="575" on="0"/>
        <pt x="717" y="529" on="0"/>
        <pt x="664" y="508" on="1"/>
        <pt x="552" y="461" on="0"/>
        <pt x="560" y="404" on="0"/>
        <pt x="598" y="362" on="0"/>
        <pt x="630" y="346" on="1"/>
        <pt x="690" y="318" on="0"/>
        <pt x="863" y="303" on="0"/>
        <pt x="1026" y="303" on="0"/>
        <pt x="1213" y="330" on="0"/>
        <pt x="1376" y="372" on="0"/>
        <pt x="1513" y="419" on="0"/>
        <pt x="1564" y="440" on="1"/>
        <pt x="1646" y="474" on="1"/>
        <pt x="1678" y="488" on="0"/>
        <pt x="1704" y="488" on="1"/>
        <pt x="1773" y="488" on="0"/>
        <pt x="1782" y="415" on="1"/>
        <pt x="1794" y="316" on="0"/>
        <pt x="1560" y="192" on="1"/>
        <pt x="1247" y="25" on="0"/>
        <pt x="868" y="-26" on="1"/>
        <pt x="780" y="-38" on="0"/>
        <pt x="533" y="-38" on="0"/>
        <pt x="299" y="-6" on="0"/>
      </contour>
    </TTGlyph>
    <TTGlyph name="Ebreve" xMin="22" yMin="-38" xMax="1926" yMax="1908">
      <contour>
        <pt x="1174" y="1668" on="1"/>
        <pt x="1123" y="1730" on="0"/>
        <pt x="1123" y="1792" on="0"/>
        <pt x="1156" y="1843" on="0"/>
        <pt x="1181" y="1863" on="1"/>
        <pt x="1237" y="1908" on="0"/>
        <pt x="1294" y="1908" on="1"/>
        <pt x="1322" y="1908" on="0"/>
        <pt x="1350" y="1862" on="1"/>
        <pt x="1375" y="1820" on="1"/>
        <pt x="1426" y="1733" on="0"/>
        <pt x="1504" y="1733" on="1"/>
        <pt x="1601" y="1733" on="0"/>
        <pt x="1662" y="1763" on="1"/>
        <pt x="1748" y="1805" on="0"/>
        <pt x="1813" y="1863" on="1"/>
        <pt x="1830" y="1877" on="0"/>
        <pt x="1880" y="1877" on="0"/>
        <pt x="1926" y="1839" on="0"/>
        <pt x="1926" y="1790" on="0"/>
        <pt x="1882" y="1723" on="0"/>
        <pt x="1786" y="1627" on="0"/>
        <pt x="1728" y="1589" on="1"/>
        <pt x="1597" y="1503" on="0"/>
        <pt x="1481" y="1503" on="1"/>
        <pt x="1311" y="1503" on="0"/>
      </contour>
      <contour>
        <pt x="145" y="61" on="0"/>
        <pt x="58" y="163" on="0"/>
        <pt x="44" y="208" on="1"/>
        <pt x="22" y="275" on="0"/>
        <pt x="22" y="371" on="0"/>
        <pt x="85" y="495" on="0"/>
        <pt x="158" y="556" on="1"/>
        <pt x="318" y="689" on="0"/>
        <pt x="649" y="784" on="1"/>
        <pt x="543" y="829" on="0"/>
        <pt x="528" y="927" on="1"/>
        <pt x="513" y="1039" on="0"/>
        <pt x="624" y="1126" on="1"/>
        <pt x="829" y="1287" on="0"/>
        <pt x="1412" y="1344" on="1"/>
        <pt x="1592" y="1361" on="0"/>
        <pt x="1755" y="1361" on="0"/>
        <pt x="1824" y="1309" on="0"/>
        <pt x="1837" y="1206" on="0"/>
        <pt x="1785" y="1136" on="0"/>
        <pt x="1737" y="1115" on="1"/>
        <pt x="1648" y="1076" on="0"/>
        <pt x="1494" y="1076" on="1"/>
        <pt x="1381" y="1076" on="0"/>
        <pt x="1288" y="1110" on="1"/>
        <pt x="1263" y="1120" on="0"/>
        <pt x="1249" y="1131" on="1"/>
        <pt x="1049" y="1069" on="0"/>
        <pt x="1022" y="992" on="1"/>
        <pt x="1014" y="972" on="0"/>
        <pt x="1016" y="955" on="1"/>
        <pt x="1025" y="894" on="0"/>
        <pt x="1167" y="836" on="0"/>
        <pt x="1312" y="828" on="1"/>
        <pt x="1360" y="824" on="0"/>
        <pt x="1407" y="780" on="0"/>
        <pt x="1414" y="732" on="0"/>
        <pt x="1400" y="705" on="0"/>
        <pt x="1386" y="696" on="1"/>
        <pt x="1362" y="680" on="0"/>
        <pt x="1220" y="658" on="0"/>
        <pt x="1032" y="619" on="0"/>
        <pt x="862" y="575" on="0"/>
        <pt x="717" y="529" on="0"/>
        <pt x="664" y="508" on="1"/>
        <pt x="552" y="461" on="0"/>
        <pt x="560" y="404" on="0"/>
        <pt x="598" y="362" on="0"/>
        <pt x="630" y="346" on="1"/>
        <pt x="690" y="318" on="0"/>
        <pt x="863" y="303" on="0"/>
        <pt x="1026" y="303" on="0"/>
        <pt x="1213" y="330" on="0"/>
        <pt x="1376" y="372" on="0"/>
        <pt x="1513" y="419" on="0"/>
        <pt x="1564" y="440" on="1"/>
        <pt x="1646" y="474" on="1"/>
        <pt x="1678" y="488" on="0"/>
        <pt x="1704" y="488" on="1"/>
        <pt x="1773" y="488" on="0"/>
        <pt x="1782" y="415" on="1"/>
        <pt x="1794" y="316" on="0"/>
        <pt x="1560" y="192" on="1"/>
        <pt x="1247" y="25" on="0"/>
        <pt x="868" y="-26" on="1"/>
        <pt x="780" y="-38" on="0"/>
        <pt x="533" y="-38" on="0"/>
        <pt x="299" y="-6" on="0"/>
      </contour>
    </TTGlyph>
    <TTGlyph name="Ecaron" xMin="22" yMin="-38" xMax="1837" yMax="1858">
      <contour>
        <pt x="1402" y="1498" on="0"/>
        <pt x="1309" y="1473" on="0"/>
        <pt x="1246" y="1473" on="0"/>
        <pt x="1169" y="1514" on="0"/>
        <pt x="1127" y="1546" on="1"/>
        <pt x="1038" y="1614" on="0"/>
        <pt x="972" y="1697" on="1"/>
        <pt x="957" y="1712" on="0"/>
        <pt x="957" y="1754" on="0"/>
        <pt x="994" y="1799" on="0"/>
        <pt x="1022" y="1817" on="1"/>
        <pt x="1084" y="1858" on="0"/>
        <pt x="1140" y="1858" on="1"/>
        <pt x="1177" y="1858" on="0"/>
        <pt x="1275" y="1778" on="1"/>
        <pt x="1324" y="1739" on="1"/>
        <pt x="1380" y="1697" on="0"/>
        <pt x="1420" y="1697" on="0"/>
        <pt x="1493" y="1723" on="0"/>
        <pt x="1536" y="1744" on="1"/>
        <pt x="1636" y="1791" on="0"/>
        <pt x="1690" y="1839" on="1"/>
        <pt x="1704" y="1850" on="0"/>
        <pt x="1736" y="1850" on="0"/>
        <pt x="1763" y="1838" on="0"/>
        <pt x="1774" y="1828" on="1"/>
        <pt x="1798" y="1808" on="0"/>
        <pt x="1798" y="1788" on="1"/>
        <pt x="1798" y="1753" on="0"/>
        <pt x="1757" y="1710" on="0"/>
        <pt x="1686" y="1653" on="0"/>
        <pt x="1599" y="1595" on="0"/>
        <pt x="1501" y="1541" on="0"/>
      </contour>
      <contour>
        <pt x="145" y="61" on="0"/>
        <pt x="58" y="163" on="0"/>
        <pt x="44" y="208" on="1"/>
        <pt x="22" y="275" on="0"/>
        <pt x="22" y="371" on="0"/>
        <pt x="85" y="495" on="0"/>
        <pt x="158" y="556" on="1"/>
        <pt x="318" y="689" on="0"/>
        <pt x="649" y="784" on="1"/>
        <pt x="543" y="829" on="0"/>
        <pt x="528" y="927" on="1"/>
        <pt x="513" y="1039" on="0"/>
        <pt x="624" y="1126" on="1"/>
        <pt x="829" y="1287" on="0"/>
        <pt x="1412" y="1344" on="1"/>
        <pt x="1592" y="1361" on="0"/>
        <pt x="1755" y="1361" on="0"/>
        <pt x="1824" y="1309" on="0"/>
        <pt x="1837" y="1206" on="0"/>
        <pt x="1785" y="1136" on="0"/>
        <pt x="1737" y="1115" on="1"/>
        <pt x="1648" y="1076" on="0"/>
        <pt x="1494" y="1076" on="1"/>
        <pt x="1381" y="1076" on="0"/>
        <pt x="1288" y="1110" on="1"/>
        <pt x="1263" y="1120" on="0"/>
        <pt x="1249" y="1131" on="1"/>
        <pt x="1049" y="1069" on="0"/>
        <pt x="1022" y="992" on="1"/>
        <pt x="1014" y="972" on="0"/>
        <pt x="1016" y="955" on="1"/>
        <pt x="1025" y="894" on="0"/>
        <pt x="1167" y="836" on="0"/>
        <pt x="1312" y="828" on="1"/>
        <pt x="1360" y="824" on="0"/>
        <pt x="1407" y="780" on="0"/>
        <pt x="1414" y="732" on="0"/>
        <pt x="1400" y="705" on="0"/>
        <pt x="1386" y="696" on="1"/>
        <pt x="1362" y="680" on="0"/>
        <pt x="1220" y="658" on="0"/>
        <pt x="1032" y="619" on="0"/>
        <pt x="862" y="575" on="0"/>
        <pt x="717" y="529" on="0"/>
        <pt x="664" y="508" on="1"/>
        <pt x="552" y="461" on="0"/>
        <pt x="560" y="404" on="0"/>
        <pt x="598" y="362" on="0"/>
        <pt x="630" y="346" on="1"/>
        <pt x="690" y="318" on="0"/>
        <pt x="863" y="303" on="0"/>
        <pt x="1026" y="303" on="0"/>
        <pt x="1213" y="330" on="0"/>
        <pt x="1376" y="372" on="0"/>
        <pt x="1513" y="419" on="0"/>
        <pt x="1564" y="440" on="1"/>
        <pt x="1646" y="474" on="1"/>
        <pt x="1678" y="488" on="0"/>
        <pt x="1704" y="488" on="1"/>
        <pt x="1773" y="488" on="0"/>
        <pt x="1782" y="415" on="1"/>
        <pt x="1794" y="316" on="0"/>
        <pt x="1560" y="192" on="1"/>
        <pt x="1247" y="25" on="0"/>
        <pt x="868" y="-26" on="1"/>
        <pt x="780" y="-38" on="0"/>
        <pt x="533" y="-38" on="0"/>
        <pt x="299" y="-6" on="0"/>
      </contour>
    </TTGlyph>
    <TTGlyph name="Ecircumflex" xMin="22" yMin="-38" xMax="2032" yMax="1880">
      <contour>
        <pt x="1402" y="1587" on="0"/>
        <pt x="1326" y="1538" on="0"/>
        <pt x="1285" y="1503" on="0"/>
        <pt x="1252" y="1503" on="0"/>
        <pt x="1226" y="1514" on="0"/>
        <pt x="1215" y="1524" on="1"/>
        <pt x="1191" y="1546" on="0"/>
        <pt x="1191" y="1565" on="1"/>
        <pt x="1191" y="1600" on="0"/>
        <pt x="1232" y="1643" on="0"/>
        <pt x="1303" y="1700" on="0"/>
        <pt x="1390" y="1758" on="0"/>
        <pt x="1488" y="1812" on="0"/>
        <pt x="1538" y="1834" on="1"/>
        <pt x="1645" y="1880" on="0"/>
        <pt x="1759" y="1880" on="0"/>
        <pt x="1839" y="1839" on="0"/>
        <pt x="1878" y="1807" on="1"/>
        <pt x="1935" y="1759" on="0"/>
        <pt x="2017" y="1656" on="1"/>
        <pt x="2032" y="1641" on="0"/>
        <pt x="2032" y="1599" on="0"/>
        <pt x="1995" y="1554" on="0"/>
        <pt x="1968" y="1536" on="1"/>
        <pt x="1905" y="1495" on="0"/>
        <pt x="1849" y="1495" on="1"/>
        <pt x="1809" y="1495" on="0"/>
        <pt x="1594" y="1650" on="0"/>
        <pt x="1543" y="1650" on="0"/>
        <pt x="1478" y="1626" on="0"/>
      </contour>
      <contour>
        <pt x="145" y="61" on="0"/>
        <pt x="58" y="163" on="0"/>
        <pt x="44" y="208" on="1"/>
        <pt x="22" y="275" on="0"/>
        <pt x="22" y="371" on="0"/>
        <pt x="85" y="495" on="0"/>
        <pt x="158" y="556" on="1"/>
        <pt x="318" y="689" on="0"/>
        <pt x="649" y="784" on="1"/>
        <pt x="543" y="829" on="0"/>
        <pt x="528" y="927" on="1"/>
        <pt x="513" y="1039" on="0"/>
        <pt x="624" y="1126" on="1"/>
        <pt x="829" y="1287" on="0"/>
        <pt x="1412" y="1344" on="1"/>
        <pt x="1592" y="1361" on="0"/>
        <pt x="1755" y="1361" on="0"/>
        <pt x="1824" y="1309" on="0"/>
        <pt x="1837" y="1206" on="0"/>
        <pt x="1785" y="1136" on="0"/>
        <pt x="1737" y="1115" on="1"/>
        <pt x="1648" y="1076" on="0"/>
        <pt x="1494" y="1076" on="1"/>
        <pt x="1381" y="1076" on="0"/>
        <pt x="1288" y="1110" on="1"/>
        <pt x="1263" y="1120" on="0"/>
        <pt x="1249" y="1131" on="1"/>
        <pt x="1049" y="1069" on="0"/>
        <pt x="1022" y="992" on="1"/>
        <pt x="1014" y="972" on="0"/>
        <pt x="1016" y="955" on="1"/>
        <pt x="1025" y="894" on="0"/>
        <pt x="1167" y="836" on="0"/>
        <pt x="1312" y="828" on="1"/>
        <pt x="1360" y="824" on="0"/>
        <pt x="1407" y="780" on="0"/>
        <pt x="1414" y="732" on="0"/>
        <pt x="1400" y="705" on="0"/>
        <pt x="1386" y="696" on="1"/>
        <pt x="1362" y="680" on="0"/>
        <pt x="1220" y="658" on="0"/>
        <pt x="1032" y="619" on="0"/>
        <pt x="862" y="575" on="0"/>
        <pt x="717" y="529" on="0"/>
        <pt x="664" y="508" on="1"/>
        <pt x="552" y="461" on="0"/>
        <pt x="560" y="404" on="0"/>
        <pt x="598" y="362" on="0"/>
        <pt x="630" y="346" on="1"/>
        <pt x="690" y="318" on="0"/>
        <pt x="863" y="303" on="0"/>
        <pt x="1026" y="303" on="0"/>
        <pt x="1213" y="330" on="0"/>
        <pt x="1376" y="372" on="0"/>
        <pt x="1513" y="419" on="0"/>
        <pt x="1564" y="440" on="1"/>
        <pt x="1646" y="474" on="1"/>
        <pt x="1678" y="488" on="0"/>
        <pt x="1704" y="488" on="1"/>
        <pt x="1773" y="488" on="0"/>
        <pt x="1782" y="415" on="1"/>
        <pt x="1794" y="316" on="0"/>
        <pt x="1560" y="192" on="1"/>
        <pt x="1247" y="25" on="0"/>
        <pt x="868" y="-26" on="1"/>
        <pt x="780" y="-38" on="0"/>
        <pt x="533" y="-38" on="0"/>
        <pt x="299" y="-6" on="0"/>
      </contour>
    </TTGlyph>
    <TTGlyph name="Edieresis" xMin="22" yMin="-38" xMax="1977" yMax="1916">
      <contour>
        <pt x="1595" y="1592" on="0"/>
        <pt x="1566" y="1662" on="0"/>
        <pt x="1566" y="1742" on="0"/>
        <pt x="1599" y="1803" on="0"/>
        <pt x="1653" y="1850" on="0"/>
        <pt x="1720" y="1884" on="0"/>
        <pt x="1754" y="1895" on="1"/>
        <pt x="1817" y="1916" on="0"/>
        <pt x="1898" y="1916" on="0"/>
        <pt x="1938" y="1896" on="0"/>
        <pt x="1951" y="1879" on="1"/>
        <pt x="1977" y="1845" on="0"/>
        <pt x="1977" y="1774" on="0"/>
        <pt x="1962" y="1717" on="0"/>
        <pt x="1935" y="1655" on="0"/>
        <pt x="1895" y="1594" on="0"/>
        <pt x="1870" y="1570" on="1"/>
        <pt x="1814" y="1515" on="0"/>
        <pt x="1713" y="1515" on="0"/>
        <pt x="1646" y="1542" on="0"/>
      </contour>
      <contour>
        <pt x="1223" y="1545" on="0"/>
        <pt x="1163" y="1515" on="0"/>
        <pt x="1091" y="1515" on="0"/>
        <pt x="1024" y="1542" on="0"/>
        <pt x="998" y="1567" on="1"/>
        <pt x="944" y="1620" on="0"/>
        <pt x="944" y="1704" on="1"/>
        <pt x="944" y="1833" on="0"/>
        <pt x="1132" y="1895" on="1"/>
        <pt x="1195" y="1916" on="0"/>
        <pt x="1276" y="1916" on="0"/>
        <pt x="1316" y="1896" on="0"/>
        <pt x="1329" y="1879" on="1"/>
        <pt x="1355" y="1845" on="0"/>
        <pt x="1355" y="1774" on="0"/>
        <pt x="1340" y="1717" on="0"/>
        <pt x="1313" y="1655" on="0"/>
        <pt x="1273" y="1594" on="0"/>
      </contour>
      <contour>
        <pt x="145" y="61" on="0"/>
        <pt x="58" y="163" on="0"/>
        <pt x="44" y="208" on="1"/>
        <pt x="22" y="275" on="0"/>
        <pt x="22" y="371" on="0"/>
        <pt x="85" y="495" on="0"/>
        <pt x="158" y="556" on="1"/>
        <pt x="318" y="689" on="0"/>
        <pt x="649" y="784" on="1"/>
        <pt x="543" y="829" on="0"/>
        <pt x="528" y="927" on="1"/>
        <pt x="513" y="1039" on="0"/>
        <pt x="624" y="1126" on="1"/>
        <pt x="829" y="1287" on="0"/>
        <pt x="1412" y="1344" on="1"/>
        <pt x="1592" y="1361" on="0"/>
        <pt x="1755" y="1361" on="0"/>
        <pt x="1824" y="1309" on="0"/>
        <pt x="1837" y="1206" on="0"/>
        <pt x="1785" y="1136" on="0"/>
        <pt x="1737" y="1115" on="1"/>
        <pt x="1648" y="1076" on="0"/>
        <pt x="1494" y="1076" on="1"/>
        <pt x="1381" y="1076" on="0"/>
        <pt x="1288" y="1110" on="1"/>
        <pt x="1263" y="1120" on="0"/>
        <pt x="1249" y="1131" on="1"/>
        <pt x="1049" y="1069" on="0"/>
        <pt x="1022" y="992" on="1"/>
        <pt x="1014" y="972" on="0"/>
        <pt x="1016" y="955" on="1"/>
        <pt x="1025" y="894" on="0"/>
        <pt x="1167" y="836" on="0"/>
        <pt x="1312" y="828" on="1"/>
        <pt x="1360" y="824" on="0"/>
        <pt x="1407" y="780" on="0"/>
        <pt x="1414" y="732" on="0"/>
        <pt x="1400" y="705" on="0"/>
        <pt x="1386" y="696" on="1"/>
        <pt x="1362" y="680" on="0"/>
        <pt x="1220" y="658" on="0"/>
        <pt x="1032" y="619" on="0"/>
        <pt x="862" y="575" on="0"/>
        <pt x="717" y="529" on="0"/>
        <pt x="664" y="508" on="1"/>
        <pt x="552" y="461" on="0"/>
        <pt x="560" y="404" on="0"/>
        <pt x="598" y="362" on="0"/>
        <pt x="630" y="346" on="1"/>
        <pt x="690" y="318" on="0"/>
        <pt x="863" y="303" on="0"/>
        <pt x="1026" y="303" on="0"/>
        <pt x="1213" y="330" on="0"/>
        <pt x="1376" y="372" on="0"/>
        <pt x="1513" y="419" on="0"/>
        <pt x="1564" y="440" on="1"/>
        <pt x="1646" y="474" on="1"/>
        <pt x="1678" y="488" on="0"/>
        <pt x="1704" y="488" on="1"/>
        <pt x="1773" y="488" on="0"/>
        <pt x="1782" y="415" on="1"/>
        <pt x="1794" y="316" on="0"/>
        <pt x="1560" y="192" on="1"/>
        <pt x="1247" y="25" on="0"/>
        <pt x="868" y="-26" on="1"/>
        <pt x="780" y="-38" on="0"/>
        <pt x="533" y="-38" on="0"/>
        <pt x="299" y="-6" on="0"/>
      </contour>
    </TTGlyph>
    <TTGlyph name="Edotaccent" xMin="22" yMin="-38" xMax="1837" yMax="1916">
      <contour>
        <pt x="1565" y="1542" on="0"/>
        <pt x="1497" y="1511" on="0"/>
        <pt x="1413" y="1511" on="0"/>
        <pt x="1335" y="1539" on="0"/>
        <pt x="1306" y="1564" on="1"/>
        <pt x="1243" y="1618" on="0"/>
        <pt x="1243" y="1702" on="1"/>
        <pt x="1243" y="1831" on="0"/>
        <pt x="1459" y="1894" on="1"/>
        <pt x="1532" y="1916" on="0"/>
        <pt x="1626" y="1916" on="0"/>
        <pt x="1673" y="1895" on="0"/>
        <pt x="1688" y="1878" on="1"/>
        <pt x="1718" y="1844" on="0"/>
        <pt x="1718" y="1773" on="0"/>
        <pt x="1701" y="1715" on="0"/>
        <pt x="1669" y="1653" on="0"/>
        <pt x="1623" y="1591" on="0"/>
      </contour>
      <contour>
        <pt x="145" y="61" on="0"/>
        <pt x="58" y="163" on="0"/>
        <pt x="44" y="208" on="1"/>
        <pt x="22" y="275" on="0"/>
        <pt x="22" y="371" on="0"/>
        <pt x="85" y="495" on="0"/>
        <pt x="158" y="556" on="1"/>
        <pt x="318" y="689" on="0"/>
        <pt x="649" y="784" on="1"/>
        <pt x="543" y="829" on="0"/>
        <pt x="528" y="927" on="1"/>
        <pt x="513" y="1039" on="0"/>
        <pt x="624" y="1126" on="1"/>
        <pt x="829" y="1287" on="0"/>
        <pt x="1412" y="1344" on="1"/>
        <pt x="1592" y="1361" on="0"/>
        <pt x="1755" y="1361" on="0"/>
        <pt x="1824" y="1309" on="0"/>
        <pt x="1837" y="1206" on="0"/>
        <pt x="1785" y="1136" on="0"/>
        <pt x="1737" y="1115" on="1"/>
        <pt x="1648" y="1076" on="0"/>
        <pt x="1494" y="1076" on="1"/>
        <pt x="1381" y="1076" on="0"/>
        <pt x="1288" y="1110" on="1"/>
        <pt x="1263" y="1120" on="0"/>
        <pt x="1249" y="1131" on="1"/>
        <pt x="1049" y="1069" on="0"/>
        <pt x="1022" y="992" on="1"/>
        <pt x="1014" y="972" on="0"/>
        <pt x="1016" y="955" on="1"/>
        <pt x="1025" y="894" on="0"/>
        <pt x="1167" y="836" on="0"/>
        <pt x="1312" y="828" on="1"/>
        <pt x="1360" y="824" on="0"/>
        <pt x="1407" y="780" on="0"/>
        <pt x="1414" y="732" on="0"/>
        <pt x="1400" y="705" on="0"/>
        <pt x="1386" y="696" on="1"/>
        <pt x="1362" y="680" on="0"/>
        <pt x="1220" y="658" on="0"/>
        <pt x="1032" y="619" on="0"/>
        <pt x="862" y="575" on="0"/>
        <pt x="717" y="529" on="0"/>
        <pt x="664" y="508" on="1"/>
        <pt x="552" y="461" on="0"/>
        <pt x="560" y="404" on="0"/>
        <pt x="598" y="362" on="0"/>
        <pt x="630" y="346" on="1"/>
        <pt x="690" y="318" on="0"/>
        <pt x="863" y="303" on="0"/>
        <pt x="1026" y="303" on="0"/>
        <pt x="1213" y="330" on="0"/>
        <pt x="1376" y="372" on="0"/>
        <pt x="1513" y="419" on="0"/>
        <pt x="1564" y="440" on="1"/>
        <pt x="1646" y="474" on="1"/>
        <pt x="1678" y="488" on="0"/>
        <pt x="1704" y="488" on="1"/>
        <pt x="1773" y="488" on="0"/>
        <pt x="1782" y="415" on="1"/>
        <pt x="1794" y="316" on="0"/>
        <pt x="1560" y="192" on="1"/>
        <pt x="1247" y="25" on="0"/>
        <pt x="868" y="-26" on="1"/>
        <pt x="780" y="-38" on="0"/>
        <pt x="533" y="-38" on="0"/>
        <pt x="299" y="-6" on="0"/>
      </contour>
    </TTGlyph>
    <TTGlyph name="Egrave" xMin="22" yMin="-38" xMax="1837" yMax="1913">
      <contour>
        <pt x="887" y="1721" on="0"/>
        <pt x="887" y="1790" on="0"/>
        <pt x="899" y="1842" on="0"/>
        <pt x="912" y="1864" on="1"/>
        <pt x="944" y="1913" on="0"/>
        <pt x="1001" y="1913" on="1"/>
        <pt x="1033" y="1913" on="0"/>
        <pt x="1084" y="1872" on="1"/>
        <pt x="1169" y="1800" on="1"/>
        <pt x="1204" y="1771" on="0"/>
        <pt x="1246" y="1742" on="1"/>
        <pt x="1415" y="1630" on="1"/>
        <pt x="1498" y="1576" on="0"/>
        <pt x="1527" y="1517" on="0"/>
        <pt x="1527" y="1458" on="0"/>
        <pt x="1496" y="1444" on="1"/>
        <pt x="1488" y="1439" on="0"/>
        <pt x="1436" y="1439" on="0"/>
        <pt x="1337" y="1461" on="0"/>
        <pt x="1221" y="1498" on="0"/>
        <pt x="1100" y="1548" on="0"/>
        <pt x="1048" y="1576" on="1"/>
        <pt x="929" y="1641" on="0"/>
      </contour>
      <contour>
        <pt x="145" y="61" on="0"/>
        <pt x="58" y="163" on="0"/>
        <pt x="44" y="208" on="1"/>
        <pt x="22" y="275" on="0"/>
        <pt x="22" y="371" on="0"/>
        <pt x="85" y="495" on="0"/>
        <pt x="158" y="556" on="1"/>
        <pt x="318" y="689" on="0"/>
        <pt x="649" y="784" on="1"/>
        <pt x="543" y="829" on="0"/>
        <pt x="528" y="927" on="1"/>
        <pt x="513" y="1039" on="0"/>
        <pt x="624" y="1126" on="1"/>
        <pt x="829" y="1287" on="0"/>
        <pt x="1412" y="1344" on="1"/>
        <pt x="1592" y="1361" on="0"/>
        <pt x="1755" y="1361" on="0"/>
        <pt x="1824" y="1309" on="0"/>
        <pt x="1837" y="1206" on="0"/>
        <pt x="1785" y="1136" on="0"/>
        <pt x="1737" y="1115" on="1"/>
        <pt x="1648" y="1076" on="0"/>
        <pt x="1494" y="1076" on="1"/>
        <pt x="1381" y="1076" on="0"/>
        <pt x="1288" y="1110" on="1"/>
        <pt x="1263" y="1120" on="0"/>
        <pt x="1249" y="1131" on="1"/>
        <pt x="1049" y="1069" on="0"/>
        <pt x="1022" y="992" on="1"/>
        <pt x="1014" y="972" on="0"/>
        <pt x="1016" y="955" on="1"/>
        <pt x="1025" y="894" on="0"/>
        <pt x="1167" y="836" on="0"/>
        <pt x="1312" y="828" on="1"/>
        <pt x="1360" y="824" on="0"/>
        <pt x="1407" y="780" on="0"/>
        <pt x="1414" y="732" on="0"/>
        <pt x="1400" y="705" on="0"/>
        <pt x="1386" y="696" on="1"/>
        <pt x="1362" y="680" on="0"/>
        <pt x="1220" y="658" on="0"/>
        <pt x="1032" y="619" on="0"/>
        <pt x="862" y="575" on="0"/>
        <pt x="717" y="529" on="0"/>
        <pt x="664" y="508" on="1"/>
        <pt x="552" y="461" on="0"/>
        <pt x="560" y="404" on="0"/>
        <pt x="598" y="362" on="0"/>
        <pt x="630" y="346" on="1"/>
        <pt x="690" y="318" on="0"/>
        <pt x="863" y="303" on="0"/>
        <pt x="1026" y="303" on="0"/>
        <pt x="1213" y="330" on="0"/>
        <pt x="1376" y="372" on="0"/>
        <pt x="1513" y="419" on="0"/>
        <pt x="1564" y="440" on="1"/>
        <pt x="1646" y="474" on="1"/>
        <pt x="1678" y="488" on="0"/>
        <pt x="1704" y="488" on="1"/>
        <pt x="1773" y="488" on="0"/>
        <pt x="1782" y="415" on="1"/>
        <pt x="1794" y="316" on="0"/>
        <pt x="1560" y="192" on="1"/>
        <pt x="1247" y="25" on="0"/>
        <pt x="868" y="-26" on="1"/>
        <pt x="780" y="-38" on="0"/>
        <pt x="533" y="-38" on="0"/>
        <pt x="299" y="-6" on="0"/>
      </contour>
    </TTGlyph>
    <TTGlyph name="Emacron" xMin="22" yMin="-38" xMax="1875" yMax="1851">
      <contour>
        <pt x="1091" y="1619" on="1"/>
        <pt x="1056" y="1619" on="0"/>
        <pt x="1056" y="1660" on="1"/>
        <pt x="1056" y="1699" on="0"/>
        <pt x="1101" y="1779" on="0"/>
        <pt x="1141" y="1812" on="0"/>
        <pt x="1164" y="1824" on="1"/>
        <pt x="1214" y="1851" on="0"/>
        <pt x="1252" y="1851" on="1"/>
        <pt x="1831" y="1851" on="1"/>
        <pt x="1847" y="1851" on="0"/>
        <pt x="1875" y="1828" on="0"/>
        <pt x="1875" y="1808" on="1"/>
        <pt x="1875" y="1768" on="0"/>
        <pt x="1822" y="1679" on="0"/>
        <pt x="1749" y="1618" on="0"/>
        <pt x="1711" y="1618" on="1"/>
      </contour>
      <contour>
        <pt x="145" y="61" on="0"/>
        <pt x="58" y="163" on="0"/>
        <pt x="44" y="208" on="1"/>
        <pt x="22" y="275" on="0"/>
        <pt x="22" y="371" on="0"/>
        <pt x="85" y="495" on="0"/>
        <pt x="158" y="556" on="1"/>
        <pt x="318" y="689" on="0"/>
        <pt x="649" y="784" on="1"/>
        <pt x="543" y="829" on="0"/>
        <pt x="528" y="927" on="1"/>
        <pt x="513" y="1039" on="0"/>
        <pt x="624" y="1126" on="1"/>
        <pt x="829" y="1287" on="0"/>
        <pt x="1412" y="1344" on="1"/>
        <pt x="1592" y="1361" on="0"/>
        <pt x="1755" y="1361" on="0"/>
        <pt x="1824" y="1309" on="0"/>
        <pt x="1837" y="1206" on="0"/>
        <pt x="1785" y="1136" on="0"/>
        <pt x="1737" y="1115" on="1"/>
        <pt x="1648" y="1076" on="0"/>
        <pt x="1494" y="1076" on="1"/>
        <pt x="1381" y="1076" on="0"/>
        <pt x="1288" y="1110" on="1"/>
        <pt x="1263" y="1120" on="0"/>
        <pt x="1249" y="1131" on="1"/>
        <pt x="1049" y="1069" on="0"/>
        <pt x="1022" y="992" on="1"/>
        <pt x="1014" y="972" on="0"/>
        <pt x="1016" y="955" on="1"/>
        <pt x="1025" y="894" on="0"/>
        <pt x="1167" y="836" on="0"/>
        <pt x="1312" y="828" on="1"/>
        <pt x="1360" y="824" on="0"/>
        <pt x="1407" y="780" on="0"/>
        <pt x="1414" y="732" on="0"/>
        <pt x="1400" y="705" on="0"/>
        <pt x="1386" y="696" on="1"/>
        <pt x="1362" y="680" on="0"/>
        <pt x="1220" y="658" on="0"/>
        <pt x="1032" y="619" on="0"/>
        <pt x="862" y="575" on="0"/>
        <pt x="717" y="529" on="0"/>
        <pt x="664" y="508" on="1"/>
        <pt x="552" y="461" on="0"/>
        <pt x="560" y="404" on="0"/>
        <pt x="598" y="362" on="0"/>
        <pt x="630" y="346" on="1"/>
        <pt x="690" y="318" on="0"/>
        <pt x="863" y="303" on="0"/>
        <pt x="1026" y="303" on="0"/>
        <pt x="1213" y="330" on="0"/>
        <pt x="1376" y="372" on="0"/>
        <pt x="1513" y="419" on="0"/>
        <pt x="1564" y="440" on="1"/>
        <pt x="1646" y="474" on="1"/>
        <pt x="1678" y="488" on="0"/>
        <pt x="1704" y="488" on="1"/>
        <pt x="1773" y="488" on="0"/>
        <pt x="1782" y="415" on="1"/>
        <pt x="1794" y="316" on="0"/>
        <pt x="1560" y="192" on="1"/>
        <pt x="1247" y="25" on="0"/>
        <pt x="868" y="-26" on="1"/>
        <pt x="780" y="-38" on="0"/>
        <pt x="533" y="-38" on="0"/>
        <pt x="299" y="-6" on="0"/>
      </contour>
    </TTGlyph>
    <TTGlyph name="Eng" xMin="-42" yMin="-486" xMax="2222" yMax="1523">
      <contour>
        <pt x="213" y="42" on="1"/>
        <pt x="151" y="-37" on="0"/>
        <pt x="72" y="-54" on="0"/>
        <pt x="20" y="-40" on="0"/>
        <pt x="0" y="-24" on="1"/>
        <pt x="-42" y="12" on="0"/>
        <pt x="-42" y="72" on="1"/>
        <pt x="-42" y="116" on="0"/>
        <pt x="-15" y="160" on="1"/>
        <pt x="568" y="1087" on="0"/>
        <pt x="619" y="1164" on="1"/>
        <pt x="739" y="1342" on="0"/>
        <pt x="758" y="1364" on="1"/>
        <pt x="783" y="1394" on="1"/>
        <pt x="895" y="1523" on="0"/>
        <pt x="1074" y="1523" on="1"/>
        <pt x="1213" y="1523" on="0"/>
        <pt x="1264" y="1462" on="1"/>
        <pt x="1276" y="1449" on="0"/>
        <pt x="1278" y="1383" on="0"/>
        <pt x="1287" y="1243" on="0"/>
        <pt x="1299" y="1087" on="0"/>
        <pt x="1306" y="1004" on="1"/>
        <pt x="1336" y="680" on="1"/>
        <pt x="1344" y="602" on="0"/>
        <pt x="1351" y="537" on="1"/>
        <pt x="1543" y="969" on="0"/>
        <pt x="1773" y="1303" on="1"/>
        <pt x="1839" y="1399" on="0"/>
        <pt x="1979" y="1399" on="1"/>
        <pt x="2084" y="1399" on="0"/>
        <pt x="2169" y="1350" on="1"/>
        <pt x="2222" y="1319" on="0"/>
        <pt x="2222" y="1296" on="1"/>
        <pt x="2222" y="1270" on="0"/>
        <pt x="2111" y="1140" on="0"/>
        <pt x="1977" y="940" on="0"/>
        <pt x="1855" y="732" on="0"/>
        <pt x="1801" y="628" on="1"/>
        <pt x="1612" y="257" on="1"/>
        <pt x="1571" y="177" on="0"/>
        <pt x="1538" y="119" on="1"/>
        <pt x="1348" y="-155" on="1"/>
        <pt x="1348" y="-156" on="0"/>
        <pt x="1347" y="-156" on="0"/>
        <pt x="1289" y="-215" on="0"/>
        <pt x="1143" y="-308" on="0"/>
        <pt x="982" y="-382" on="0"/>
        <pt x="818" y="-435" on="0"/>
        <pt x="742" y="-452" on="1"/>
        <pt x="592" y="-486" on="0"/>
        <pt x="467" y="-486" on="0"/>
        <pt x="419" y="-470" on="0"/>
        <pt x="402" y="-456" on="1"/>
        <pt x="363" y="-425" on="0"/>
        <pt x="371" y="-382" on="1"/>
        <pt x="398" y="-234" on="0"/>
        <pt x="502" y="-164" on="1"/>
        <pt x="587" y="-108" on="0"/>
        <pt x="824" y="-88" on="1"/>
        <pt x="939" y="-78" on="0"/>
        <pt x="991" y="-35" on="1"/>
        <pt x="1020" y="-11" on="0"/>
        <pt x="1027" y="34" on="1"/>
        <pt x="951" y="181" on="0"/>
        <pt x="848" y="677" on="1"/>
        <pt x="830" y="761" on="0"/>
        <pt x="815" y="843" on="1"/>
        <pt x="782" y="792" on="0"/>
        <pt x="730" y="722" on="1"/>
        <pt x="436" y="330" on="1"/>
      </contour>
    </TTGlyph>
    <TTGlyph name="Eogonek" xMin="22" yMin="-644" xMax="1837" yMax="1361">
      <contour>
        <pt x="859" y="-27" on="1"/>
        <pt x="767" y="-38" on="0"/>
        <pt x="533" y="-38" on="0"/>
        <pt x="299" y="-6" on="0"/>
        <pt x="222" y="28" on="1"/>
        <pt x="82" y="88" on="0"/>
        <pt x="35" y="234" on="1"/>
        <pt x="22" y="275" on="0"/>
        <pt x="22" y="371" on="0"/>
        <pt x="85" y="495" on="0"/>
        <pt x="158" y="556" on="1"/>
        <pt x="318" y="689" on="0"/>
        <pt x="649" y="784" on="1"/>
        <pt x="543" y="829" on="0"/>
        <pt x="528" y="927" on="1"/>
        <pt x="513" y="1039" on="0"/>
        <pt x="624" y="1126" on="1"/>
        <pt x="829" y="1287" on="0"/>
        <pt x="1412" y="1344" on="1"/>
        <pt x="1592" y="1361" on="0"/>
        <pt x="1755" y="1361" on="0"/>
        <pt x="1824" y="1309" on="0"/>
        <pt x="1837" y="1206" on="0"/>
        <pt x="1785" y="1136" on="0"/>
        <pt x="1737" y="1115" on="1"/>
        <pt x="1648" y="1076" on="0"/>
        <pt x="1494" y="1076" on="1"/>
        <pt x="1381" y="1076" on="0"/>
        <pt x="1288" y="1110" on="1"/>
        <pt x="1263" y="1120" on="0"/>
        <pt x="1249" y="1131" on="1"/>
        <pt x="1049" y="1069" on="0"/>
        <pt x="1022" y="992" on="1"/>
        <pt x="1014" y="972" on="0"/>
        <pt x="1016" y="955" on="1"/>
        <pt x="1025" y="894" on="0"/>
        <pt x="1167" y="836" on="0"/>
        <pt x="1312" y="828" on="1"/>
        <pt x="1360" y="824" on="0"/>
        <pt x="1407" y="780" on="0"/>
        <pt x="1414" y="732" on="0"/>
        <pt x="1400" y="705" on="0"/>
        <pt x="1386" y="696" on="1"/>
        <pt x="1362" y="680" on="0"/>
        <pt x="1220" y="658" on="0"/>
        <pt x="1032" y="619" on="0"/>
        <pt x="862" y="575" on="0"/>
        <pt x="717" y="529" on="0"/>
        <pt x="664" y="508" on="1"/>
        <pt x="552" y="461" on="0"/>
        <pt x="560" y="404" on="0"/>
        <pt x="598" y="362" on="0"/>
        <pt x="630" y="346" on="1"/>
        <pt x="690" y="318" on="0"/>
        <pt x="863" y="303" on="0"/>
        <pt x="1026" y="303" on="0"/>
        <pt x="1213" y="330" on="0"/>
        <pt x="1376" y="372" on="0"/>
        <pt x="1513" y="419" on="0"/>
        <pt x="1564" y="440" on="1"/>
        <pt x="1646" y="474" on="1"/>
        <pt x="1678" y="488" on="0"/>
        <pt x="1704" y="488" on="1"/>
        <pt x="1773" y="488" on="0"/>
        <pt x="1782" y="415" on="1"/>
        <pt x="1793" y="315" on="0"/>
        <pt x="1555" y="189" on="1"/>
        <pt x="1483" y="151" on="0"/>
        <pt x="1399" y="117" on="1"/>
        <pt x="1389" y="98" on="0"/>
        <pt x="1371" y="86" on="1"/>
        <pt x="1320" y="54" on="1"/>
        <pt x="1124" y="-69" on="0"/>
        <pt x="1056" y="-180" on="1"/>
        <pt x="1036" y="-211" on="0"/>
        <pt x="1036" y="-269" on="0"/>
        <pt x="1052" y="-304" on="0"/>
        <pt x="1064" y="-314" on="1"/>
        <pt x="1082" y="-328" on="0"/>
        <pt x="1183" y="-328" on="0"/>
        <pt x="1270" y="-316" on="0"/>
        <pt x="1304" y="-309" on="1"/>
        <pt x="1370" y="-296" on="1"/>
        <pt x="1400" y="-290" on="0"/>
        <pt x="1438" y="-290" on="1"/>
        <pt x="1521" y="-290" on="0"/>
        <pt x="1521" y="-393" on="1"/>
        <pt x="1521" y="-421" on="0"/>
        <pt x="1421" y="-506" on="0"/>
        <pt x="1327" y="-565" on="0"/>
        <pt x="1266" y="-589" on="1"/>
        <pt x="1126" y="-644" on="0"/>
        <pt x="975" y="-644" on="1"/>
        <pt x="817" y="-644" on="0"/>
        <pt x="711" y="-554" on="1"/>
        <pt x="608" y="-467" on="0"/>
        <pt x="608" y="-339" on="1"/>
        <pt x="608" y="-204" on="0"/>
      </contour>
    </TTGlyph>
    <TTGlyph name="Eth" xMin="72" yMin="-42" xMax="2155" yMax="1367">
      <contour>
        <pt x="430" y="535" on="1"/>
        <pt x="335" y="535" on="0"/>
        <pt x="335" y="596" on="1"/>
        <pt x="335" y="637" on="0"/>
        <pt x="366" y="668" on="1"/>
        <pt x="419" y="721" on="0"/>
        <pt x="468" y="723" on="1"/>
        <pt x="559" y="727" on="1"/>
        <pt x="727" y="986" on="1"/>
        <pt x="495" y="925" on="0"/>
        <pt x="342" y="835" on="1"/>
        <pt x="289" y="804" on="0"/>
        <pt x="254" y="771" on="1"/>
        <pt x="188" y="720" on="0"/>
        <pt x="147" y="720" on="1"/>
        <pt x="72" y="720" on="0"/>
        <pt x="72" y="787" on="1"/>
        <pt x="72" y="817" on="0"/>
        <pt x="95" y="865" on="0"/>
        <pt x="132" y="931" on="0"/>
        <pt x="181" y="1010" on="0"/>
        <pt x="241" y="1095" on="0"/>
        <pt x="275" y="1134" on="1"/>
        <pt x="351" y="1223" on="0"/>
        <pt x="461" y="1275" on="0"/>
        <pt x="590" y="1314" on="0"/>
        <pt x="677" y="1330" on="1"/>
        <pt x="878" y="1367" on="0"/>
        <pt x="1113" y="1367" on="1"/>
        <pt x="1622" y="1367" on="0"/>
        <pt x="1913" y="1220" on="1"/>
        <pt x="2155" y="1097" on="0"/>
        <pt x="2155" y="878" on="1"/>
        <pt x="2155" y="831" on="0"/>
        <pt x="2128" y="699" on="0"/>
        <pt x="2029" y="499" on="0"/>
        <pt x="1859" y="313" on="0"/>
        <pt x="1616" y="150" on="0"/>
        <pt x="1454" y="89" on="1"/>
        <pt x="1108" y="-42" on="0"/>
        <pt x="636" y="-42" on="1"/>
        <pt x="452" y="-42" on="0"/>
        <pt x="351" y="40" on="1"/>
        <pt x="268" y="106" on="0"/>
        <pt x="268" y="203" on="1"/>
        <pt x="268" y="237" on="0"/>
        <pt x="300" y="302" on="0"/>
        <pt x="322" y="342" on="1"/>
        <pt x="438" y="535" on="1"/>
      </contour>
      <contour>
        <pt x="803" y="535" on="1"/>
        <pt x="767" y="452" on="0"/>
        <pt x="767" y="398" on="0"/>
        <pt x="792" y="355" on="0"/>
        <pt x="817" y="338" on="1"/>
        <pt x="874" y="301" on="0"/>
        <pt x="1098" y="301" on="0"/>
        <pt x="1333" y="337" on="0"/>
        <pt x="1529" y="397" on="0"/>
        <pt x="1683" y="474" on="0"/>
        <pt x="1738" y="514" on="1"/>
        <pt x="1848" y="597" on="0"/>
        <pt x="1861" y="667" on="1"/>
        <pt x="1864" y="683" on="0"/>
        <pt x="1864" y="701" on="1"/>
        <pt x="1864" y="906" on="0"/>
        <pt x="1426" y="992" on="1"/>
        <pt x="1258" y="1026" on="0"/>
        <pt x="1063" y="1030" on="1"/>
        <pt x="906" y="743" on="1"/>
        <pt x="1222" y="758" on="1"/>
        <pt x="1259" y="760" on="0"/>
        <pt x="1280" y="727" on="1"/>
        <pt x="1312" y="678" on="0"/>
        <pt x="1260" y="600" on="1"/>
        <pt x="1217" y="535" on="0"/>
        <pt x="1148" y="535" on="1"/>
      </contour>
    </TTGlyph>
    <TTGlyph name="Euro" xMin="315" yMin="-45" xMax="2215" yMax="1358">
      <contour>
        <pt x="561" y="126" on="0"/>
        <pt x="491" y="265" on="0"/>
        <pt x="491" y="366" on="0"/>
        <pt x="496" y="414" on="1"/>
        <pt x="371" y="406" on="1"/>
        <pt x="341" y="402" on="0"/>
        <pt x="321" y="431" on="1"/>
        <pt x="315" y="440" on="0"/>
        <pt x="315" y="485" on="0"/>
        <pt x="365" y="530" on="0"/>
        <pt x="390" y="536" on="1"/>
        <pt x="426" y="546" on="0"/>
        <pt x="535" y="554" on="1"/>
        <pt x="555" y="602" on="0"/>
        <pt x="585" y="652" on="1"/>
        <pt x="489" y="647" on="1"/>
        <pt x="450" y="645" on="0"/>
        <pt x="437" y="643" on="0"/>
        <pt x="418" y="649" on="0"/>
        <pt x="409" y="656" on="1"/>
        <pt x="366" y="692" on="0"/>
        <pt x="405" y="744" on="1"/>
        <pt x="424" y="769" on="0"/>
        <pt x="444" y="775" on="1"/>
        <pt x="475" y="786" on="0"/>
        <pt x="705" y="806" on="1"/>
        <pt x="936" y="1049" on="0"/>
        <pt x="1334" y="1204" on="1"/>
        <pt x="1728" y="1358" on="0"/>
        <pt x="2106" y="1358" on="1"/>
        <pt x="2146" y="1358" on="0"/>
        <pt x="2171" y="1338" on="1"/>
        <pt x="2215" y="1303" on="0"/>
        <pt x="2215" y="1269" on="1"/>
        <pt x="2215" y="1145" on="0"/>
        <pt x="2096" y="1068" on="1"/>
        <pt x="1994" y="1003" on="0"/>
        <pt x="1717" y="1003" on="0"/>
        <pt x="1647" y="1031" on="1"/>
        <pt x="1364" y="985" on="0"/>
        <pt x="1193" y="844" on="1"/>
        <pt x="1414" y="859" on="1"/>
        <pt x="1780" y="883" on="0"/>
        <pt x="1844" y="875" on="0"/>
        <pt x="1856" y="853" on="0"/>
        <pt x="1856" y="817" on="0"/>
        <pt x="1840" y="771" on="0"/>
        <pt x="1826" y="752" on="1"/>
        <pt x="1793" y="706" on="0"/>
        <pt x="1746" y="706" on="1"/>
        <pt x="1729" y="706" on="0"/>
        <pt x="1687" y="704" on="1"/>
        <pt x="1228" y="675" on="0"/>
        <pt x="1185" y="675" on="1"/>
        <pt x="1106" y="675" on="0"/>
        <pt x="1049" y="672" on="1"/>
        <pt x="1024" y="627" on="0"/>
        <pt x="1010" y="579" on="1"/>
        <pt x="1310" y="590" on="1"/>
        <pt x="1434" y="595" on="0"/>
        <pt x="1491" y="595" on="1"/>
        <pt x="1568" y="595" on="0"/>
        <pt x="1585" y="593" on="1"/>
        <pt x="1619" y="589" on="0"/>
        <pt x="1619" y="547" on="1"/>
        <pt x="1619" y="509" on="0"/>
        <pt x="1598" y="480" on="1"/>
        <pt x="1560" y="427" on="0"/>
        <pt x="1506" y="429" on="0"/>
        <pt x="1432" y="431" on="0"/>
        <pt x="1341" y="432" on="0"/>
        <pt x="1238" y="434" on="0"/>
        <pt x="1188" y="434" on="1"/>
        <pt x="1091" y="436" on="1"/>
        <pt x="1045" y="436" on="0"/>
        <pt x="1009" y="437" on="1"/>
        <pt x="1055" y="292" on="0"/>
        <pt x="1372" y="292" on="1"/>
        <pt x="1568" y="292" on="0"/>
        <pt x="1784" y="354" on="1"/>
        <pt x="1846" y="371" on="0"/>
        <pt x="1900" y="396" on="1"/>
        <pt x="2013" y="446" on="0"/>
        <pt x="2144" y="446" on="0"/>
        <pt x="2144" y="399" on="1"/>
        <pt x="2144" y="328" on="0"/>
        <pt x="2040" y="236" on="1"/>
        <pt x="1979" y="182" on="0"/>
        <pt x="1696" y="64" on="0"/>
        <pt x="1581" y="30" on="1"/>
        <pt x="1322" y="-45" on="0"/>
        <pt x="939" y="-45" on="0"/>
        <pt x="709" y="19" on="0"/>
      </contour>
    </TTGlyph>
    <TTGlyph name="F" xMin="172" yMin="-24" xMax="1919" yMax="1400">
      <contour>
        <pt x="1852" y="1400" on="1"/>
        <pt x="1919" y="1400" on="0"/>
        <pt x="1919" y="1354" on="1"/>
        <pt x="1919" y="1293" on="0"/>
        <pt x="1826" y="1168" on="1"/>
        <pt x="1751" y="1068" on="0"/>
        <pt x="1611" y="1034" on="1"/>
        <pt x="1569" y="1023" on="0"/>
        <pt x="1500" y="1023" on="0"/>
        <pt x="1460" y="1028" on="1"/>
        <pt x="1357" y="1041" on="0"/>
        <pt x="1202" y="1045" on="1"/>
        <pt x="1080" y="829" on="0"/>
        <pt x="1022" y="715" on="1"/>
        <pt x="1177" y="719" on="1"/>
        <pt x="1224" y="717" on="0"/>
        <pt x="1292" y="724" on="1"/>
        <pt x="1392" y="733" on="1"/>
        <pt x="1422" y="736" on="0"/>
        <pt x="1432" y="737" on="1"/>
        <pt x="1473" y="741" on="0"/>
        <pt x="1483" y="726" on="1"/>
        <pt x="1502" y="699" on="0"/>
        <pt x="1502" y="627" on="0"/>
        <pt x="1492" y="576" on="0"/>
        <pt x="1483" y="553" on="1"/>
        <pt x="1463" y="502" on="0"/>
        <pt x="1438" y="482" on="1"/>
        <pt x="1384" y="439" on="0"/>
        <pt x="1258" y="439" on="1"/>
        <pt x="1234" y="439" on="0"/>
        <pt x="1212" y="441" on="1"/>
        <pt x="907" y="465" on="1"/>
        <pt x="830" y="282" on="0"/>
        <pt x="786" y="108" on="1"/>
        <pt x="752" y="-24" on="0"/>
        <pt x="529" y="-24" on="1"/>
        <pt x="345" y="-24" on="0"/>
        <pt x="294" y="62" on="1"/>
        <pt x="277" y="91" on="0"/>
        <pt x="285" y="143" on="0"/>
        <pt x="316" y="208" on="0"/>
        <pt x="342" y="256" on="1"/>
        <pt x="484" y="499" on="1"/>
        <pt x="480" y="499" on="0"/>
        <pt x="435" y="503" on="0"/>
        <pt x="424" y="506" on="1"/>
        <pt x="397" y="515" on="0"/>
        <pt x="363" y="563" on="0"/>
        <pt x="363" y="589" on="1"/>
        <pt x="363" y="640" on="0"/>
        <pt x="423" y="692" on="0"/>
        <pt x="488" y="700" on="0"/>
        <pt x="526" y="701" on="1"/>
        <pt x="610" y="703" on="1"/>
        <pt x="764" y="942" on="0"/>
        <pt x="833" y="1041" on="1"/>
        <pt x="585" y="1023" on="0"/>
        <pt x="402" y="924" on="1"/>
        <pt x="351" y="896" on="0"/>
        <pt x="288" y="842" on="0"/>
        <pt x="244" y="842" on="0"/>
        <pt x="213" y="855" on="0"/>
        <pt x="200" y="866" on="1"/>
        <pt x="172" y="891" on="0"/>
        <pt x="172" y="950" on="0"/>
        <pt x="188" y="975" on="1"/>
        <pt x="379" y="1270" on="0"/>
        <pt x="614" y="1336" on="1"/>
        <pt x="697" y="1359" on="0"/>
        <pt x="796" y="1359" on="1"/>
        <pt x="1208" y="1359" on="0"/>
        <pt x="1693" y="1379" on="0"/>
        <pt x="1715" y="1382" on="1"/>
        <pt x="1808" y="1396" on="1"/>
        <pt x="1831" y="1400" on="0"/>
      </contour>
    </TTGlyph>
    <TTGlyph name="G" xMin="159" yMin="-509" xMax="2210" yMax="1362">
      <contour>
        <pt x="700" y="457" on="1"/>
        <pt x="700" y="365" on="0"/>
        <pt x="907" y="365" on="1"/>
        <pt x="1187" y="365" on="0"/>
        <pt x="1444" y="464" on="1"/>
        <pt x="1525" y="495" on="0"/>
        <pt x="1609" y="532" on="1"/>
        <pt x="1722" y="598" on="1"/>
        <pt x="1905" y="702" on="0"/>
        <pt x="1982" y="702" on="1"/>
        <pt x="2015" y="702" on="0"/>
        <pt x="2034" y="692" on="1"/>
        <pt x="2084" y="676" on="0"/>
        <pt x="2114" y="641" on="1"/>
        <pt x="2169" y="577" on="0"/>
        <pt x="2169" y="510" on="0"/>
        <pt x="2135" y="405" on="0"/>
        <pt x="2077" y="282" on="0"/>
        <pt x="2001" y="150" on="0"/>
        <pt x="1958" y="90" on="1"/>
        <pt x="1862" y="-47" on="0"/>
        <pt x="1787" y="-108" on="1"/>
        <pt x="1759" y="-143" on="0"/>
        <pt x="1677" y="-229" on="0"/>
        <pt x="1534" y="-326" on="0"/>
        <pt x="1379" y="-401" on="0"/>
        <pt x="1218" y="-456" on="0"/>
        <pt x="1144" y="-474" on="1"/>
        <pt x="1002" y="-509" on="0"/>
        <pt x="849" y="-509" on="0"/>
        <pt x="780" y="-448" on="0"/>
        <pt x="780" y="-355" on="0"/>
        <pt x="845" y="-263" on="0"/>
        <pt x="956" y="-177" on="0"/>
        <pt x="1103" y="-98" on="0"/>
        <pt x="1184" y="-63" on="1"/>
        <pt x="1331" y="1" on="0"/>
        <pt x="1511" y="52" on="1"/>
        <pt x="1613" y="192" on="0"/>
        <pt x="1693" y="338" on="1"/>
        <pt x="1644" y="310" on="1"/>
        <pt x="1619" y="297" on="0"/>
        <pt x="1595" y="286" on="1"/>
        <pt x="1414" y="177" on="0"/>
        <pt x="1138" y="92" on="1"/>
        <pt x="810" y="-9" on="0"/>
        <pt x="513" y="-9" on="1"/>
        <pt x="346" y="-9" on="0"/>
        <pt x="248" y="102" on="1"/>
        <pt x="159" y="203" on="0"/>
        <pt x="159" y="358" on="1"/>
        <pt x="159" y="522" on="0"/>
        <pt x="380" y="711" on="1"/>
        <pt x="574" y="877" on="0"/>
        <pt x="905" y="1034" on="1"/>
        <pt x="1205" y="1178" on="0"/>
        <pt x="1526" y="1270" on="1"/>
        <pt x="1843" y="1362" on="0"/>
        <pt x="2038" y="1362" on="1"/>
        <pt x="2153" y="1362" on="0"/>
        <pt x="2194" y="1284" on="1"/>
        <pt x="2210" y="1255" on="0"/>
        <pt x="2210" y="1148" on="0"/>
        <pt x="2130" y="1064" on="0"/>
        <pt x="2066" y="1040" on="1"/>
        <pt x="1951" y="996" on="0"/>
        <pt x="1617" y="996" on="0"/>
        <pt x="1482" y="1016" on="1"/>
        <pt x="1292" y="954" on="0"/>
        <pt x="1095" y="834" on="1"/>
        <pt x="930" y="734" on="0"/>
        <pt x="810" y="618" on="1"/>
        <pt x="700" y="512" on="0"/>
      </contour>
    </TTGlyph>
    <TTGlyph name="Gbreve" xMin="159" yMin="-509" xMax="2210" yMax="1908">
      <contour>
        <pt x="1245" y="1668" on="1"/>
        <pt x="1194" y="1730" on="0"/>
        <pt x="1194" y="1792" on="0"/>
        <pt x="1227" y="1843" on="0"/>
        <pt x="1252" y="1863" on="1"/>
        <pt x="1308" y="1908" on="0"/>
        <pt x="1365" y="1908" on="1"/>
        <pt x="1393" y="1908" on="0"/>
        <pt x="1421" y="1862" on="1"/>
        <pt x="1446" y="1820" on="1"/>
        <pt x="1499" y="1733" on="0"/>
        <pt x="1575" y="1733" on="1"/>
        <pt x="1672" y="1733" on="0"/>
        <pt x="1733" y="1763" on="1"/>
        <pt x="1819" y="1805" on="0"/>
        <pt x="1884" y="1863" on="1"/>
        <pt x="1901" y="1877" on="0"/>
        <pt x="1951" y="1877" on="0"/>
        <pt x="1997" y="1839" on="0"/>
        <pt x="1997" y="1790" on="0"/>
        <pt x="1953" y="1723" on="0"/>
        <pt x="1857" y="1627" on="0"/>
        <pt x="1799" y="1589" on="1"/>
        <pt x="1668" y="1503" on="0"/>
        <pt x="1552" y="1503" on="1"/>
        <pt x="1382" y="1503" on="0"/>
      </contour>
      <contour>
        <pt x="700" y="457" on="1"/>
        <pt x="700" y="365" on="0"/>
        <pt x="907" y="365" on="1"/>
        <pt x="1187" y="365" on="0"/>
        <pt x="1444" y="464" on="1"/>
        <pt x="1525" y="495" on="0"/>
        <pt x="1609" y="532" on="1"/>
        <pt x="1722" y="598" on="1"/>
        <pt x="1905" y="702" on="0"/>
        <pt x="1982" y="702" on="1"/>
        <pt x="2015" y="702" on="0"/>
        <pt x="2034" y="692" on="1"/>
        <pt x="2084" y="676" on="0"/>
        <pt x="2114" y="641" on="1"/>
        <pt x="2169" y="577" on="0"/>
        <pt x="2169" y="510" on="0"/>
        <pt x="2135" y="405" on="0"/>
        <pt x="2077" y="282" on="0"/>
        <pt x="2001" y="150" on="0"/>
        <pt x="1958" y="90" on="1"/>
        <pt x="1862" y="-47" on="0"/>
        <pt x="1787" y="-108" on="1"/>
        <pt x="1759" y="-143" on="0"/>
        <pt x="1677" y="-229" on="0"/>
        <pt x="1534" y="-326" on="0"/>
        <pt x="1379" y="-401" on="0"/>
        <pt x="1218" y="-456" on="0"/>
        <pt x="1144" y="-474" on="1"/>
        <pt x="1002" y="-509" on="0"/>
        <pt x="849" y="-509" on="0"/>
        <pt x="780" y="-448" on="0"/>
        <pt x="780" y="-355" on="0"/>
        <pt x="845" y="-263" on="0"/>
        <pt x="956" y="-177" on="0"/>
        <pt x="1103" y="-98" on="0"/>
        <pt x="1184" y="-63" on="1"/>
        <pt x="1331" y="1" on="0"/>
        <pt x="1511" y="52" on="1"/>
        <pt x="1613" y="192" on="0"/>
        <pt x="1693" y="338" on="1"/>
        <pt x="1644" y="310" on="1"/>
        <pt x="1619" y="297" on="0"/>
        <pt x="1595" y="286" on="1"/>
        <pt x="1414" y="177" on="0"/>
        <pt x="1138" y="92" on="1"/>
        <pt x="810" y="-9" on="0"/>
        <pt x="513" y="-9" on="1"/>
        <pt x="346" y="-9" on="0"/>
        <pt x="248" y="102" on="1"/>
        <pt x="159" y="203" on="0"/>
        <pt x="159" y="358" on="1"/>
        <pt x="159" y="522" on="0"/>
        <pt x="380" y="711" on="1"/>
        <pt x="574" y="877" on="0"/>
        <pt x="905" y="1034" on="1"/>
        <pt x="1205" y="1178" on="0"/>
        <pt x="1526" y="1270" on="1"/>
        <pt x="1843" y="1362" on="0"/>
        <pt x="2038" y="1362" on="1"/>
        <pt x="2153" y="1362" on="0"/>
        <pt x="2194" y="1284" on="1"/>
        <pt x="2210" y="1255" on="0"/>
        <pt x="2210" y="1148" on="0"/>
        <pt x="2130" y="1064" on="0"/>
        <pt x="2066" y="1040" on="1"/>
        <pt x="1951" y="996" on="0"/>
        <pt x="1617" y="996" on="0"/>
        <pt x="1482" y="1016" on="1"/>
        <pt x="1292" y="954" on="0"/>
        <pt x="1095" y="834" on="1"/>
        <pt x="930" y="734" on="0"/>
        <pt x="810" y="618" on="1"/>
        <pt x="700" y="512" on="0"/>
      </contour>
    </TTGlyph>
    <TTGlyph name="Gcircumflex" xMin="159" yMin="-509" xMax="2210" yMax="1880">
      <contour>
        <pt x="1473" y="1587" on="0"/>
        <pt x="1397" y="1538" on="0"/>
        <pt x="1356" y="1503" on="0"/>
        <pt x="1323" y="1503" on="0"/>
        <pt x="1297" y="1514" on="0"/>
        <pt x="1286" y="1524" on="1"/>
        <pt x="1262" y="1546" on="0"/>
        <pt x="1262" y="1565" on="1"/>
        <pt x="1262" y="1600" on="0"/>
        <pt x="1303" y="1643" on="0"/>
        <pt x="1374" y="1700" on="0"/>
        <pt x="1461" y="1758" on="0"/>
        <pt x="1559" y="1812" on="0"/>
        <pt x="1608" y="1834" on="1"/>
        <pt x="1716" y="1880" on="0"/>
        <pt x="1830" y="1880" on="0"/>
        <pt x="1910" y="1839" on="0"/>
        <pt x="1948" y="1807" on="1"/>
        <pt x="2006" y="1759" on="0"/>
        <pt x="2088" y="1656" on="1"/>
        <pt x="2103" y="1641" on="0"/>
        <pt x="2103" y="1599" on="0"/>
        <pt x="2066" y="1554" on="0"/>
        <pt x="2038" y="1536" on="1"/>
        <pt x="1976" y="1495" on="0"/>
        <pt x="1920" y="1495" on="1"/>
        <pt x="1880" y="1495" on="0"/>
        <pt x="1665" y="1650" on="0"/>
        <pt x="1614" y="1650" on="0"/>
        <pt x="1549" y="1626" on="0"/>
      </contour>
      <contour>
        <pt x="700" y="457" on="1"/>
        <pt x="700" y="365" on="0"/>
        <pt x="907" y="365" on="1"/>
        <pt x="1187" y="365" on="0"/>
        <pt x="1444" y="464" on="1"/>
        <pt x="1525" y="495" on="0"/>
        <pt x="1609" y="532" on="1"/>
        <pt x="1722" y="598" on="1"/>
        <pt x="1905" y="702" on="0"/>
        <pt x="1982" y="702" on="1"/>
        <pt x="2015" y="702" on="0"/>
        <pt x="2034" y="692" on="1"/>
        <pt x="2084" y="676" on="0"/>
        <pt x="2114" y="641" on="1"/>
        <pt x="2169" y="577" on="0"/>
        <pt x="2169" y="510" on="0"/>
        <pt x="2135" y="405" on="0"/>
        <pt x="2077" y="282" on="0"/>
        <pt x="2001" y="150" on="0"/>
        <pt x="1958" y="90" on="1"/>
        <pt x="1862" y="-47" on="0"/>
        <pt x="1787" y="-108" on="1"/>
        <pt x="1759" y="-143" on="0"/>
        <pt x="1677" y="-229" on="0"/>
        <pt x="1534" y="-326" on="0"/>
        <pt x="1379" y="-401" on="0"/>
        <pt x="1218" y="-456" on="0"/>
        <pt x="1144" y="-474" on="1"/>
        <pt x="1002" y="-509" on="0"/>
        <pt x="849" y="-509" on="0"/>
        <pt x="780" y="-448" on="0"/>
        <pt x="780" y="-355" on="0"/>
        <pt x="845" y="-263" on="0"/>
        <pt x="956" y="-177" on="0"/>
        <pt x="1103" y="-98" on="0"/>
        <pt x="1184" y="-63" on="1"/>
        <pt x="1331" y="1" on="0"/>
        <pt x="1511" y="52" on="1"/>
        <pt x="1613" y="192" on="0"/>
        <pt x="1693" y="338" on="1"/>
        <pt x="1644" y="310" on="1"/>
        <pt x="1619" y="297" on="0"/>
        <pt x="1595" y="286" on="1"/>
        <pt x="1414" y="177" on="0"/>
        <pt x="1138" y="92" on="1"/>
        <pt x="810" y="-9" on="0"/>
        <pt x="513" y="-9" on="1"/>
        <pt x="346" y="-9" on="0"/>
        <pt x="248" y="102" on="1"/>
        <pt x="159" y="203" on="0"/>
        <pt x="159" y="358" on="1"/>
        <pt x="159" y="522" on="0"/>
        <pt x="380" y="711" on="1"/>
        <pt x="574" y="877" on="0"/>
        <pt x="905" y="1034" on="1"/>
        <pt x="1205" y="1178" on="0"/>
        <pt x="1526" y="1270" on="1"/>
        <pt x="1843" y="1362" on="0"/>
        <pt x="2038" y="1362" on="1"/>
        <pt x="2153" y="1362" on="0"/>
        <pt x="2194" y="1284" on="1"/>
        <pt x="2210" y="1255" on="0"/>
        <pt x="2210" y="1148" on="0"/>
        <pt x="2130" y="1064" on="0"/>
        <pt x="2066" y="1040" on="1"/>
        <pt x="1951" y="996" on="0"/>
        <pt x="1617" y="996" on="0"/>
        <pt x="1482" y="1016" on="1"/>
        <pt x="1292" y="954" on="0"/>
        <pt x="1095" y="834" on="1"/>
        <pt x="930" y="734" on="0"/>
        <pt x="810" y="618" on="1"/>
        <pt x="700" y="512" on="0"/>
      </contour>
    </TTGlyph>
    <TTGlyph name="Gcommaaccent" xMin="159" yMin="-664" xMax="2210" yMax="1362">
      <contour>
        <pt x="1332" y="-639" on="1"/>
        <pt x="1185" y="-639" on="0"/>
        <pt x="1185" y="-469" on="1"/>
        <pt x="1185" y="-310" on="0"/>
        <pt x="1424" y="-89" on="1"/>
        <pt x="1518" y="-1" on="0"/>
        <pt x="1612" y="50" on="1"/>
        <pt x="1649" y="128" on="0"/>
        <pt x="1675" y="202" on="1"/>
        <pt x="1728" y="359" on="1"/>
        <pt x="1660" y="320" on="1"/>
        <pt x="1627" y="302" on="0"/>
        <pt x="1595" y="286" on="1"/>
        <pt x="1414" y="177" on="0"/>
        <pt x="1138" y="92" on="1"/>
        <pt x="810" y="-9" on="0"/>
        <pt x="513" y="-9" on="1"/>
        <pt x="346" y="-9" on="0"/>
        <pt x="248" y="102" on="1"/>
        <pt x="159" y="203" on="0"/>
        <pt x="159" y="358" on="1"/>
        <pt x="159" y="522" on="0"/>
        <pt x="380" y="711" on="1"/>
        <pt x="574" y="877" on="0"/>
        <pt x="905" y="1034" on="1"/>
        <pt x="1205" y="1178" on="0"/>
        <pt x="1526" y="1270" on="1"/>
        <pt x="1843" y="1362" on="0"/>
        <pt x="2038" y="1362" on="1"/>
        <pt x="2153" y="1362" on="0"/>
        <pt x="2194" y="1284" on="1"/>
        <pt x="2210" y="1255" on="0"/>
        <pt x="2210" y="1148" on="0"/>
        <pt x="2130" y="1064" on="0"/>
        <pt x="2066" y="1040" on="1"/>
        <pt x="1951" y="996" on="0"/>
        <pt x="1617" y="996" on="0"/>
        <pt x="1482" y="1016" on="1"/>
        <pt x="1292" y="954" on="0"/>
        <pt x="1095" y="834" on="1"/>
        <pt x="930" y="734" on="0"/>
        <pt x="810" y="618" on="1"/>
        <pt x="700" y="512" on="0"/>
        <pt x="700" y="457" on="1"/>
        <pt x="700" y="365" on="0"/>
        <pt x="907" y="365" on="1"/>
        <pt x="1187" y="365" on="0"/>
        <pt x="1444" y="464" on="1"/>
        <pt x="1525" y="495" on="0"/>
        <pt x="1609" y="532" on="1"/>
        <pt x="1784" y="631" on="1"/>
        <pt x="1865" y="675" on="0"/>
        <pt x="1925" y="692" on="1"/>
        <pt x="1958" y="706" on="0"/>
        <pt x="2022" y="706" on="0"/>
        <pt x="2083" y="675" on="0"/>
        <pt x="2108" y="654" on="1"/>
        <pt x="2166" y="604" on="0"/>
        <pt x="2166" y="549" on="0"/>
        <pt x="2158" y="498" on="0"/>
        <pt x="2148" y="462" on="1"/>
        <pt x="2077" y="217" on="0"/>
        <pt x="1910" y="-92" on="1"/>
        <pt x="1736" y="-412" on="0"/>
        <pt x="1608" y="-522" on="1"/>
        <pt x="1471" y="-639" on="0"/>
      </contour>
      <contour>
        <pt x="1094" y="-158" on="1"/>
        <pt x="1114" y="-183" on="0"/>
        <pt x="1114" y="-280" on="0"/>
        <pt x="1064" y="-384" on="0"/>
        <pt x="984" y="-472" on="0"/>
        <pt x="883" y="-544" on="0"/>
        <pt x="832" y="-571" on="1"/>
        <pt x="654" y="-664" on="0"/>
        <pt x="576" y="-629" on="1"/>
        <pt x="563" y="-623" on="0"/>
        <pt x="531" y="-588" on="0"/>
        <pt x="531" y="-577" on="1"/>
        <pt x="531" y="-553" on="0"/>
        <pt x="569" y="-539" on="1"/>
        <pt x="608" y="-518" on="1"/>
        <pt x="704" y="-467" on="0"/>
        <pt x="753" y="-411" on="1"/>
        <pt x="663" y="-401" on="0"/>
        <pt x="626" y="-350" on="1"/>
        <pt x="606" y="-322" on="0"/>
        <pt x="606" y="-284" on="1"/>
        <pt x="606" y="-210" on="0"/>
        <pt x="788" y="-91" on="0"/>
        <pt x="1044" y="-91" on="0"/>
      </contour>
    </TTGlyph>
    <TTGlyph name="Gdotaccent" xMin="159" yMin="-509" xMax="2210" yMax="1916">
      <contour>
        <pt x="1636" y="1542" on="0"/>
        <pt x="1568" y="1511" on="0"/>
        <pt x="1484" y="1511" on="0"/>
        <pt x="1406" y="1539" on="0"/>
        <pt x="1377" y="1564" on="1"/>
        <pt x="1314" y="1618" on="0"/>
        <pt x="1314" y="1702" on="1"/>
        <pt x="1314" y="1831" on="0"/>
        <pt x="1530" y="1894" on="1"/>
        <pt x="1603" y="1916" on="0"/>
        <pt x="1697" y="1916" on="0"/>
        <pt x="1744" y="1895" on="0"/>
        <pt x="1759" y="1878" on="1"/>
        <pt x="1789" y="1844" on="0"/>
        <pt x="1789" y="1773" on="0"/>
        <pt x="1772" y="1715" on="0"/>
        <pt x="1740" y="1653" on="0"/>
        <pt x="1694" y="1591" on="0"/>
      </contour>
      <contour>
        <pt x="700" y="457" on="1"/>
        <pt x="700" y="365" on="0"/>
        <pt x="907" y="365" on="1"/>
        <pt x="1187" y="365" on="0"/>
        <pt x="1444" y="464" on="1"/>
        <pt x="1525" y="495" on="0"/>
        <pt x="1609" y="532" on="1"/>
        <pt x="1722" y="598" on="1"/>
        <pt x="1905" y="702" on="0"/>
        <pt x="1982" y="702" on="1"/>
        <pt x="2015" y="702" on="0"/>
        <pt x="2034" y="692" on="1"/>
        <pt x="2084" y="676" on="0"/>
        <pt x="2114" y="641" on="1"/>
        <pt x="2169" y="577" on="0"/>
        <pt x="2169" y="510" on="0"/>
        <pt x="2135" y="405" on="0"/>
        <pt x="2077" y="282" on="0"/>
        <pt x="2001" y="150" on="0"/>
        <pt x="1958" y="90" on="1"/>
        <pt x="1862" y="-47" on="0"/>
        <pt x="1787" y="-108" on="1"/>
        <pt x="1759" y="-143" on="0"/>
        <pt x="1677" y="-229" on="0"/>
        <pt x="1534" y="-326" on="0"/>
        <pt x="1379" y="-401" on="0"/>
        <pt x="1218" y="-456" on="0"/>
        <pt x="1144" y="-474" on="1"/>
        <pt x="1002" y="-509" on="0"/>
        <pt x="849" y="-509" on="0"/>
        <pt x="780" y="-448" on="0"/>
        <pt x="780" y="-355" on="0"/>
        <pt x="845" y="-263" on="0"/>
        <pt x="956" y="-177" on="0"/>
        <pt x="1103" y="-98" on="0"/>
        <pt x="1184" y="-63" on="1"/>
        <pt x="1331" y="1" on="0"/>
        <pt x="1511" y="52" on="1"/>
        <pt x="1613" y="192" on="0"/>
        <pt x="1693" y="338" on="1"/>
        <pt x="1644" y="310" on="1"/>
        <pt x="1619" y="297" on="0"/>
        <pt x="1595" y="286" on="1"/>
        <pt x="1414" y="177" on="0"/>
        <pt x="1138" y="92" on="1"/>
        <pt x="810" y="-9" on="0"/>
        <pt x="513" y="-9" on="1"/>
        <pt x="346" y="-9" on="0"/>
        <pt x="248" y="102" on="1"/>
        <pt x="159" y="203" on="0"/>
        <pt x="159" y="358" on="1"/>
        <pt x="159" y="522" on="0"/>
        <pt x="380" y="711" on="1"/>
        <pt x="574" y="877" on="0"/>
        <pt x="905" y="1034" on="1"/>
        <pt x="1205" y="1178" on="0"/>
        <pt x="1526" y="1270" on="1"/>
        <pt x="1843" y="1362" on="0"/>
        <pt x="2038" y="1362" on="1"/>
        <pt x="2153" y="1362" on="0"/>
        <pt x="2194" y="1284" on="1"/>
        <pt x="2210" y="1255" on="0"/>
        <pt x="2210" y="1148" on="0"/>
        <pt x="2130" y="1064" on="0"/>
        <pt x="2066" y="1040" on="1"/>
        <pt x="1951" y="996" on="0"/>
        <pt x="1617" y="996" on="0"/>
        <pt x="1482" y="1016" on="1"/>
        <pt x="1292" y="954" on="0"/>
        <pt x="1095" y="834" on="1"/>
        <pt x="930" y="734" on="0"/>
        <pt x="810" y="618" on="1"/>
        <pt x="700" y="512" on="0"/>
      </contour>
    </TTGlyph>
    <TTGlyph name="H" xMin="-30" yMin="-116" xMax="2099" yMax="1492">
      <contour>
        <pt x="1869" y="555" on="1"/>
        <pt x="1813" y="569" on="0"/>
        <pt x="1630" y="569" on="1"/>
        <pt x="1481" y="259" on="0"/>
        <pt x="1421" y="16" on="1"/>
        <pt x="1387" y="-116" on="0"/>
        <pt x="1164" y="-116" on="1"/>
        <pt x="980" y="-116" on="0"/>
        <pt x="930" y="-30" on="1"/>
        <pt x="912" y="-1" on="0"/>
        <pt x="920" y="54" on="0"/>
        <pt x="964" y="143" on="0"/>
        <pt x="1002" y="209" on="1"/>
        <pt x="1090" y="359" on="1"/>
        <pt x="1198" y="536" on="1"/>
        <pt x="795" y="503" on="1"/>
        <pt x="655" y="261" on="0"/>
        <pt x="485" y="47" on="1"/>
        <pt x="402" y="-54" on="0"/>
        <pt x="241" y="-54" on="1"/>
        <pt x="119" y="-54" on="0"/>
        <pt x="26" y="-2" on="1"/>
        <pt x="-30" y="29" on="0"/>
        <pt x="-28" y="54" on="1"/>
        <pt x="-27" y="89" on="0"/>
        <pt x="12" y="124" on="1"/>
        <pt x="172" y="264" on="0"/>
        <pt x="331" y="466" on="1"/>
        <pt x="178" y="454" on="1"/>
        <pt x="63" y="451" on="0"/>
        <pt x="34" y="504" on="1"/>
        <pt x="11" y="547" on="0"/>
        <pt x="11" y="602" on="1"/>
        <pt x="11" y="640" on="0"/>
        <pt x="47" y="690" on="0"/>
        <pt x="91" y="702" on="0"/>
        <pt x="120" y="703" on="1"/>
        <pt x="536" y="754" on="1"/>
        <pt x="783" y="1152" on="0"/>
        <pt x="847" y="1249" on="0"/>
        <pt x="878" y="1282" on="1"/>
        <pt x="955" y="1360" on="0"/>
        <pt x="1035" y="1360" on="1"/>
        <pt x="1091" y="1360" on="0"/>
        <pt x="1140" y="1315" on="1"/>
        <pt x="1162" y="1295" on="0"/>
        <pt x="1162" y="1269" on="1"/>
        <pt x="1162" y="1218" on="0"/>
        <pt x="1106" y="1103" on="1"/>
        <pt x="960" y="806" on="1"/>
        <pt x="1408" y="862" on="1"/>
        <pt x="1596" y="1134" on="0"/>
        <pt x="1667" y="1225" on="1"/>
        <pt x="1812" y="1410" on="0"/>
        <pt x="1869" y="1438" on="1"/>
        <pt x="1977" y="1492" on="0"/>
        <pt x="2075" y="1492" on="0"/>
        <pt x="2099" y="1438" on="0"/>
        <pt x="2090" y="1380" on="0"/>
        <pt x="2041" y="1291" on="0"/>
        <pt x="2002" y="1226" on="1"/>
        <pt x="2002" y="1226" on="0"/>
        <pt x="1803" y="894" on="1"/>
        <pt x="1869" y="888" on="0"/>
        <pt x="1894" y="860" on="1"/>
        <pt x="1938" y="812" on="0"/>
        <pt x="1938" y="708" on="1"/>
        <pt x="1938" y="633" on="0"/>
        <pt x="1919" y="568" on="1"/>
        <pt x="1911" y="555" on="0"/>
      </contour>
    </TTGlyph>
    <TTGlyph name="Hbar" xMin="110" yMin="-116" xMax="2136" yMax="1492">
      <contour>
        <pt x="1964" y="1492" on="1"/>
        <pt x="2039" y="1492" on="0"/>
        <pt x="2039" y="1399" on="1"/>
        <pt x="2039" y="1373" on="0"/>
        <pt x="2004" y="1294" on="1"/>
        <pt x="1873" y="1011" on="1"/>
        <pt x="2067" y="1009" on="0"/>
        <pt x="2094" y="1004" on="1"/>
        <pt x="2136" y="996" on="0"/>
        <pt x="2136" y="950" on="1"/>
        <pt x="2136" y="899" on="0"/>
        <pt x="2108" y="865" on="1"/>
        <pt x="2056" y="802" on="0"/>
        <pt x="2002" y="802" on="1"/>
        <pt x="1784" y="805" on="1"/>
        <pt x="1600" y="355" on="0"/>
        <pt x="1567" y="16" on="1"/>
        <pt x="1553" y="-116" on="0"/>
        <pt x="1330" y="-116" on="1"/>
        <pt x="1147" y="-116" on="0"/>
        <pt x="1083" y="-30" on="1"/>
        <pt x="1061" y="-1" on="0"/>
        <pt x="1061" y="51" on="0"/>
        <pt x="1081" y="113" on="0"/>
        <pt x="1100" y="160" on="1"/>
        <pt x="1144" y="266" on="1"/>
        <pt x="1170" y="325" on="0"/>
        <pt x="1202" y="393" on="1"/>
        <pt x="826" y="406" on="1"/>
        <pt x="735" y="214" on="0"/>
        <pt x="627" y="47" on="1"/>
        <pt x="560" y="-54" on="0"/>
        <pt x="398" y="-54" on="1"/>
        <pt x="274" y="-54" on="0"/>
        <pt x="174" y="-2" on="1"/>
        <pt x="110" y="32" on="0"/>
        <pt x="110" y="59" on="1"/>
        <pt x="110" y="91" on="0"/>
        <pt x="143" y="124" on="1"/>
        <pt x="390" y="374" on="0"/>
        <pt x="608" y="821" on="1"/>
        <pt x="239" y="828" on="1"/>
        <pt x="208" y="828" on="0"/>
        <pt x="190" y="858" on="1"/>
        <pt x="176" y="883" on="0"/>
        <pt x="222" y="938" on="1"/>
        <pt x="254" y="978" on="0"/>
        <pt x="292" y="987" on="1"/>
        <pt x="312" y="993" on="0"/>
        <pt x="611" y="999" on="0"/>
        <pt x="693" y="1001" on="1"/>
        <pt x="772" y="1169" on="1"/>
        <pt x="867" y="1360" on="0"/>
        <pt x="986" y="1360" on="1"/>
        <pt x="1045" y="1360" on="0"/>
        <pt x="1099" y="1315" on="1"/>
        <pt x="1128" y="1292" on="0"/>
        <pt x="1128" y="1198" on="0"/>
        <pt x="1062" y="1007" on="1"/>
        <pt x="1176" y="1009" on="0"/>
        <pt x="1404" y="1010" on="0"/>
        <pt x="1512" y="1011" on="1"/>
        <pt x="1600" y="1164" on="1"/>
        <pt x="1743" y="1403" on="0"/>
        <pt x="1802" y="1435" on="1"/>
        <pt x="1909" y="1492" on="0"/>
      </contour>
      <contour>
        <pt x="1323" y="647" on="1"/>
        <pt x="1405" y="810" on="1"/>
        <pt x="1200" y="812" on="1"/>
        <pt x="1098" y="813" on="0"/>
        <pt x="995" y="815" on="1"/>
        <pt x="946" y="684" on="0"/>
        <pt x="929" y="643" on="1"/>
      </contour>
    </TTGlyph>
    <TTGlyph name="Hcircumflex" xMin="-30" yMin="-116" xMax="2099" yMax="1880">
      <contour>
        <pt x="1386" y="1587" on="0"/>
        <pt x="1310" y="1538" on="0"/>
        <pt x="1269" y="1503" on="0"/>
        <pt x="1236" y="1503" on="0"/>
        <pt x="1210" y="1514" on="0"/>
        <pt x="1199" y="1524" on="1"/>
        <pt x="1175" y="1546" on="0"/>
        <pt x="1175" y="1565" on="1"/>
        <pt x="1175" y="1600" on="0"/>
        <pt x="1216" y="1643" on="0"/>
        <pt x="1287" y="1700" on="0"/>
        <pt x="1374" y="1758" on="0"/>
        <pt x="1472" y="1812" on="0"/>
        <pt x="1522" y="1834" on="1"/>
        <pt x="1629" y="1880" on="0"/>
        <pt x="1743" y="1880" on="0"/>
        <pt x="1823" y="1839" on="0"/>
        <pt x="1862" y="1807" on="1"/>
        <pt x="1919" y="1759" on="0"/>
        <pt x="2001" y="1656" on="1"/>
        <pt x="2016" y="1641" on="0"/>
        <pt x="2016" y="1599" on="0"/>
        <pt x="1979" y="1554" on="0"/>
        <pt x="1952" y="1536" on="1"/>
        <pt x="1889" y="1495" on="0"/>
        <pt x="1833" y="1495" on="1"/>
        <pt x="1793" y="1495" on="0"/>
        <pt x="1578" y="1650" on="0"/>
        <pt x="1527" y="1650" on="0"/>
        <pt x="1462" y="1626" on="0"/>
      </contour>
      <contour>
        <pt x="1869" y="555" on="1"/>
        <pt x="1813" y="569" on="0"/>
        <pt x="1630" y="569" on="1"/>
        <pt x="1481" y="259" on="0"/>
        <pt x="1421" y="16" on="1"/>
        <pt x="1387" y="-116" on="0"/>
        <pt x="1164" y="-116" on="1"/>
        <pt x="980" y="-116" on="0"/>
        <pt x="930" y="-30" on="1"/>
        <pt x="912" y="-1" on="0"/>
        <pt x="920" y="54" on="0"/>
        <pt x="964" y="143" on="0"/>
        <pt x="1002" y="209" on="1"/>
        <pt x="1090" y="359" on="1"/>
        <pt x="1198" y="536" on="1"/>
        <pt x="795" y="503" on="1"/>
        <pt x="655" y="261" on="0"/>
        <pt x="485" y="47" on="1"/>
        <pt x="402" y="-54" on="0"/>
        <pt x="241" y="-54" on="1"/>
        <pt x="119" y="-54" on="0"/>
        <pt x="26" y="-2" on="1"/>
        <pt x="-30" y="29" on="0"/>
        <pt x="-28" y="54" on="1"/>
        <pt x="-27" y="89" on="0"/>
        <pt x="12" y="124" on="1"/>
        <pt x="172" y="264" on="0"/>
        <pt x="331" y="466" on="1"/>
        <pt x="178" y="454" on="1"/>
        <pt x="63" y="451" on="0"/>
        <pt x="34" y="504" on="1"/>
        <pt x="11" y="547" on="0"/>
        <pt x="11" y="602" on="1"/>
        <pt x="11" y="640" on="0"/>
        <pt x="47" y="690" on="0"/>
        <pt x="91" y="702" on="0"/>
        <pt x="120" y="703" on="1"/>
        <pt x="536" y="754" on="1"/>
        <pt x="783" y="1152" on="0"/>
        <pt x="847" y="1249" on="0"/>
        <pt x="878" y="1282" on="1"/>
        <pt x="955" y="1360" on="0"/>
        <pt x="1035" y="1360" on="1"/>
        <pt x="1091" y="1360" on="0"/>
        <pt x="1140" y="1315" on="1"/>
        <pt x="1162" y="1295" on="0"/>
        <pt x="1162" y="1269" on="1"/>
        <pt x="1162" y="1218" on="0"/>
        <pt x="1106" y="1103" on="1"/>
        <pt x="960" y="806" on="1"/>
        <pt x="1408" y="862" on="1"/>
        <pt x="1596" y="1134" on="0"/>
        <pt x="1667" y="1225" on="1"/>
        <pt x="1812" y="1410" on="0"/>
        <pt x="1869" y="1438" on="1"/>
        <pt x="1977" y="1492" on="0"/>
        <pt x="2075" y="1492" on="0"/>
        <pt x="2099" y="1438" on="0"/>
        <pt x="2090" y="1380" on="0"/>
        <pt x="2041" y="1291" on="0"/>
        <pt x="2002" y="1226" on="1"/>
        <pt x="1803" y="894" on="1"/>
        <pt x="1869" y="888" on="0"/>
        <pt x="1894" y="860" on="1"/>
        <pt x="1938" y="812" on="0"/>
        <pt x="1938" y="708" on="1"/>
        <pt x="1938" y="633" on="0"/>
        <pt x="1919" y="568" on="1"/>
        <pt x="1911" y="555" on="0"/>
      </contour>
    </TTGlyph>
    <TTGlyph name="I" xMin="175" yMin="-44" xMax="1504" yMax="1357">
      <contour>
        <pt x="1112" y="1034" on="1"/>
        <pt x="1112" y="1102" on="0"/>
        <pt x="1011" y="1102" on="0"/>
        <pt x="862" y="1066" on="0"/>
        <pt x="777" y="1028" on="1"/>
        <pt x="583" y="941" on="0"/>
        <pt x="426" y="788" on="1"/>
        <pt x="405" y="770" on="0"/>
        <pt x="334" y="770" on="0"/>
        <pt x="286" y="805" on="0"/>
        <pt x="286" y="861" on="0"/>
        <pt x="310" y="924" on="0"/>
        <pt x="336" y="1011" on="0"/>
        <pt x="350" y="1054" on="1"/>
        <pt x="386" y="1157" on="0"/>
        <pt x="417" y="1190" on="1"/>
        <pt x="474" y="1237" on="0"/>
        <pt x="722" y="1294" on="1"/>
        <pt x="997" y="1357" on="0"/>
        <pt x="1260" y="1357" on="1"/>
        <pt x="1370" y="1357" on="0"/>
        <pt x="1442" y="1276" on="1"/>
        <pt x="1504" y="1206" on="0"/>
        <pt x="1504" y="1129" on="1"/>
        <pt x="1504" y="1063" on="0"/>
        <pt x="1406" y="816" on="1"/>
        <pt x="1251" y="422" on="0"/>
        <pt x="1089" y="200" on="1"/>
        <pt x="1044" y="138" on="0"/>
        <pt x="1000" y="99" on="1"/>
        <pt x="936" y="49" on="0"/>
        <pt x="832" y="15" on="1"/>
        <pt x="656" y="-44" on="0"/>
        <pt x="551" y="-44" on="0"/>
        <pt x="449" y="-17" on="0"/>
        <pt x="354" y="26" on="0"/>
        <pt x="272" y="81" on="0"/>
        <pt x="241" y="108" on="1"/>
        <pt x="175" y="167" on="0"/>
        <pt x="175" y="204" on="1"/>
        <pt x="175" y="239" on="0"/>
        <pt x="260" y="317" on="1"/>
        <pt x="347" y="397" on="0"/>
        <pt x="403" y="397" on="1"/>
        <pt x="441" y="397" on="0"/>
        <pt x="495" y="368" on="1"/>
        <pt x="572" y="324" on="1"/>
        <pt x="597" y="311" on="0"/>
        <pt x="636" y="311" on="0"/>
        <pt x="706" y="368" on="0"/>
        <pt x="786" y="462" on="0"/>
        <pt x="871" y="584" on="0"/>
        <pt x="952" y="713" on="0"/>
        <pt x="1025" y="841" on="0"/>
        <pt x="1052" y="894" on="1"/>
        <pt x="1112" y="1009" on="0"/>
      </contour>
    </TTGlyph>
    <TTGlyph name="IJ" xMin="57" yMin="-486" xMax="1809" yMax="1360">
      <contour>
        <pt x="529" y="550" on="1"/>
        <pt x="529" y="504" on="0"/>
        <pt x="590" y="504" on="1"/>
        <pt x="623" y="504" on="0"/>
        <pt x="659" y="521" on="1"/>
        <pt x="1035" y="698" on="0"/>
        <pt x="1350" y="1038" on="1"/>
        <pt x="1488" y="1192" on="1"/>
        <pt x="1547" y="1259" on="0"/>
        <pt x="1626" y="1340" on="0"/>
        <pt x="1676" y="1340" on="0"/>
        <pt x="1734" y="1306" on="0"/>
        <pt x="1757" y="1282" on="1"/>
        <pt x="1809" y="1229" on="0"/>
        <pt x="1809" y="1190" on="1"/>
        <pt x="1809" y="924" on="0"/>
        <pt x="1577" y="480" on="1"/>
        <pt x="1277" y="-93" on="0"/>
        <pt x="1014" y="-262" on="1"/>
        <pt x="814" y="-389" on="0"/>
        <pt x="540" y="-452" on="1"/>
        <pt x="395" y="-486" on="0"/>
        <pt x="291" y="-486" on="1"/>
        <pt x="255" y="-486" on="0"/>
        <pt x="225" y="-460" on="1"/>
        <pt x="168" y="-408" on="0"/>
        <pt x="168" y="-340" on="1"/>
        <pt x="168" y="-234" on="0"/>
        <pt x="389" y="-110" on="1"/>
        <pt x="612" y="14" on="0"/>
        <pt x="909" y="59" on="1"/>
        <pt x="943" y="122" on="0"/>
        <pt x="990" y="198" on="1"/>
        <pt x="1201" y="551" on="0"/>
        <pt x="1257" y="682" on="1"/>
        <pt x="987" y="444" on="0"/>
        <pt x="735" y="263" on="0"/>
        <pt x="651" y="213" on="1"/>
        <pt x="465" y="102" on="0"/>
        <pt x="353" y="104" on="1"/>
        <pt x="232" y="106" on="0"/>
        <pt x="144" y="198" on="1"/>
        <pt x="57" y="289" on="0"/>
        <pt x="57" y="407" on="1"/>
        <pt x="57" y="609" on="0"/>
        <pt x="313" y="996" on="1"/>
        <pt x="406" y="1136" on="0"/>
        <pt x="477" y="1219" on="1"/>
        <pt x="596" y="1360" on="0"/>
        <pt x="660" y="1360" on="0"/>
        <pt x="740" y="1320" on="0"/>
        <pt x="776" y="1290" on="1"/>
        <pt x="860" y="1217" on="0"/>
        <pt x="860" y="1152" on="1"/>
        <pt x="860" y="1099" on="0"/>
        <pt x="774" y="973" on="1"/>
        <pt x="694" y="860" on="1"/>
        <pt x="529" y="633" on="0"/>
      </contour>
    </TTGlyph>
    <TTGlyph name="Iacute" xMin="175" yMin="-44" xMax="1671" yMax="1915">
      <contour>
        <pt x="1071" y="1441" on="0"/>
        <pt x="1028" y="1478" on="0"/>
        <pt x="1028" y="1521" on="0"/>
        <pt x="1081" y="1597" on="0"/>
        <pt x="1167" y="1688" on="0"/>
        <pt x="1276" y="1785" on="0"/>
        <pt x="1331" y="1824" on="1"/>
        <pt x="1457" y="1915" on="0"/>
        <pt x="1523" y="1915" on="1"/>
        <pt x="1572" y="1915" on="0"/>
        <pt x="1606" y="1885" on="1"/>
        <pt x="1671" y="1829" on="0"/>
        <pt x="1671" y="1765" on="1"/>
        <pt x="1671" y="1753" on="0"/>
        <pt x="1666" y="1728" on="1"/>
        <pt x="1647" y="1704" on="0"/>
        <pt x="1589" y="1677" on="1"/>
        <pt x="1488" y="1632" on="1"/>
        <pt x="1408" y="1596" on="0"/>
        <pt x="1337" y="1554" on="1"/>
        <pt x="1228" y="1490" on="1"/>
        <pt x="1145" y="1441" on="0"/>
      </contour>
      <contour>
        <pt x="1112" y="1034" on="1"/>
        <pt x="1112" y="1102" on="0"/>
        <pt x="1011" y="1102" on="0"/>
        <pt x="862" y="1066" on="0"/>
        <pt x="777" y="1028" on="1"/>
        <pt x="583" y="941" on="0"/>
        <pt x="426" y="788" on="1"/>
        <pt x="405" y="770" on="0"/>
        <pt x="334" y="770" on="0"/>
        <pt x="286" y="805" on="0"/>
        <pt x="286" y="861" on="0"/>
        <pt x="310" y="924" on="0"/>
        <pt x="336" y="1011" on="0"/>
        <pt x="350" y="1054" on="1"/>
        <pt x="386" y="1157" on="0"/>
        <pt x="417" y="1190" on="1"/>
        <pt x="474" y="1237" on="0"/>
        <pt x="722" y="1294" on="1"/>
        <pt x="997" y="1357" on="0"/>
        <pt x="1260" y="1357" on="1"/>
        <pt x="1370" y="1357" on="0"/>
        <pt x="1442" y="1276" on="1"/>
        <pt x="1504" y="1206" on="0"/>
        <pt x="1504" y="1129" on="1"/>
        <pt x="1504" y="1063" on="0"/>
        <pt x="1406" y="816" on="1"/>
        <pt x="1251" y="422" on="0"/>
        <pt x="1089" y="200" on="1"/>
        <pt x="1044" y="138" on="0"/>
        <pt x="1000" y="99" on="1"/>
        <pt x="936" y="49" on="0"/>
        <pt x="832" y="15" on="1"/>
        <pt x="656" y="-44" on="0"/>
        <pt x="551" y="-44" on="0"/>
        <pt x="449" y="-17" on="0"/>
        <pt x="354" y="26" on="0"/>
        <pt x="272" y="81" on="0"/>
        <pt x="241" y="108" on="1"/>
        <pt x="175" y="167" on="0"/>
        <pt x="175" y="204" on="1"/>
        <pt x="175" y="239" on="0"/>
        <pt x="260" y="317" on="1"/>
        <pt x="347" y="397" on="0"/>
        <pt x="403" y="397" on="1"/>
        <pt x="441" y="397" on="0"/>
        <pt x="495" y="368" on="1"/>
        <pt x="572" y="324" on="1"/>
        <pt x="597" y="311" on="0"/>
        <pt x="636" y="311" on="0"/>
        <pt x="706" y="368" on="0"/>
        <pt x="786" y="462" on="0"/>
        <pt x="871" y="584" on="0"/>
        <pt x="952" y="713" on="0"/>
        <pt x="1025" y="841" on="0"/>
        <pt x="1052" y="894" on="1"/>
        <pt x="1112" y="1009" on="0"/>
      </contour>
    </TTGlyph>
    <TTGlyph name="Ibreve" xMin="175" yMin="-44" xMax="1682" yMax="1908">
      <contour>
        <pt x="930" y="1668" on="1"/>
        <pt x="879" y="1730" on="0"/>
        <pt x="879" y="1792" on="0"/>
        <pt x="912" y="1843" on="0"/>
        <pt x="937" y="1863" on="1"/>
        <pt x="993" y="1908" on="0"/>
        <pt x="1050" y="1908" on="1"/>
        <pt x="1078" y="1908" on="0"/>
        <pt x="1106" y="1862" on="1"/>
        <pt x="1131" y="1820" on="1"/>
        <pt x="1182" y="1733" on="0"/>
        <pt x="1260" y="1733" on="1"/>
        <pt x="1357" y="1733" on="0"/>
        <pt x="1418" y="1763" on="1"/>
        <pt x="1504" y="1805" on="0"/>
        <pt x="1569" y="1863" on="1"/>
        <pt x="1586" y="1877" on="0"/>
        <pt x="1636" y="1877" on="0"/>
        <pt x="1682" y="1839" on="0"/>
        <pt x="1682" y="1790" on="0"/>
        <pt x="1638" y="1723" on="0"/>
        <pt x="1542" y="1627" on="0"/>
        <pt x="1484" y="1589" on="1"/>
        <pt x="1353" y="1503" on="0"/>
        <pt x="1237" y="1503" on="1"/>
        <pt x="1067" y="1503" on="0"/>
      </contour>
      <contour>
        <pt x="1112" y="1034" on="1"/>
        <pt x="1112" y="1102" on="0"/>
        <pt x="1011" y="1102" on="0"/>
        <pt x="862" y="1066" on="0"/>
        <pt x="777" y="1028" on="1"/>
        <pt x="583" y="941" on="0"/>
        <pt x="426" y="788" on="1"/>
        <pt x="405" y="770" on="0"/>
        <pt x="334" y="770" on="0"/>
        <pt x="286" y="805" on="0"/>
        <pt x="286" y="861" on="0"/>
        <pt x="310" y="924" on="0"/>
        <pt x="336" y="1011" on="0"/>
        <pt x="350" y="1054" on="1"/>
        <pt x="386" y="1157" on="0"/>
        <pt x="417" y="1190" on="1"/>
        <pt x="474" y="1237" on="0"/>
        <pt x="722" y="1294" on="1"/>
        <pt x="997" y="1357" on="0"/>
        <pt x="1260" y="1357" on="1"/>
        <pt x="1370" y="1357" on="0"/>
        <pt x="1442" y="1276" on="1"/>
        <pt x="1504" y="1206" on="0"/>
        <pt x="1504" y="1129" on="1"/>
        <pt x="1504" y="1063" on="0"/>
        <pt x="1406" y="816" on="1"/>
        <pt x="1251" y="422" on="0"/>
        <pt x="1089" y="200" on="1"/>
        <pt x="1044" y="138" on="0"/>
        <pt x="1000" y="99" on="1"/>
        <pt x="936" y="49" on="0"/>
        <pt x="832" y="15" on="1"/>
        <pt x="656" y="-44" on="0"/>
        <pt x="551" y="-44" on="0"/>
        <pt x="449" y="-17" on="0"/>
        <pt x="354" y="26" on="0"/>
        <pt x="272" y="81" on="0"/>
        <pt x="241" y="108" on="1"/>
        <pt x="175" y="167" on="0"/>
        <pt x="175" y="204" on="1"/>
        <pt x="175" y="239" on="0"/>
        <pt x="260" y="317" on="1"/>
        <pt x="347" y="397" on="0"/>
        <pt x="403" y="397" on="1"/>
        <pt x="441" y="397" on="0"/>
        <pt x="495" y="368" on="1"/>
        <pt x="572" y="324" on="1"/>
        <pt x="597" y="311" on="0"/>
        <pt x="636" y="311" on="0"/>
        <pt x="706" y="368" on="0"/>
        <pt x="786" y="462" on="0"/>
        <pt x="871" y="584" on="0"/>
        <pt x="952" y="713" on="0"/>
        <pt x="1025" y="841" on="0"/>
        <pt x="1052" y="894" on="1"/>
        <pt x="1112" y="1009" on="0"/>
      </contour>
    </TTGlyph>
    <TTGlyph name="Icircumflex" xMin="175" yMin="-44" xMax="1788" yMax="1880">
      <contour>
        <pt x="1158" y="1587" on="0"/>
        <pt x="1082" y="1538" on="0"/>
        <pt x="1041" y="1503" on="0"/>
        <pt x="1008" y="1503" on="0"/>
        <pt x="982" y="1514" on="0"/>
        <pt x="971" y="1524" on="1"/>
        <pt x="947" y="1546" on="0"/>
        <pt x="947" y="1565" on="1"/>
        <pt x="947" y="1600" on="0"/>
        <pt x="988" y="1643" on="0"/>
        <pt x="1059" y="1700" on="0"/>
        <pt x="1146" y="1758" on="0"/>
        <pt x="1244" y="1812" on="0"/>
        <pt x="1294" y="1834" on="1"/>
        <pt x="1401" y="1880" on="0"/>
        <pt x="1515" y="1880" on="0"/>
        <pt x="1595" y="1839" on="0"/>
        <pt x="1634" y="1807" on="1"/>
        <pt x="1691" y="1759" on="0"/>
        <pt x="1773" y="1656" on="1"/>
        <pt x="1788" y="1641" on="0"/>
        <pt x="1788" y="1599" on="0"/>
        <pt x="1751" y="1554" on="0"/>
        <pt x="1724" y="1536" on="1"/>
        <pt x="1661" y="1495" on="0"/>
        <pt x="1605" y="1495" on="1"/>
        <pt x="1565" y="1495" on="0"/>
        <pt x="1350" y="1650" on="0"/>
        <pt x="1299" y="1650" on="0"/>
        <pt x="1234" y="1626" on="0"/>
      </contour>
      <contour>
        <pt x="1112" y="1034" on="1"/>
        <pt x="1112" y="1102" on="0"/>
        <pt x="1011" y="1102" on="0"/>
        <pt x="862" y="1066" on="0"/>
        <pt x="777" y="1028" on="1"/>
        <pt x="583" y="941" on="0"/>
        <pt x="426" y="788" on="1"/>
        <pt x="405" y="770" on="0"/>
        <pt x="334" y="770" on="0"/>
        <pt x="286" y="805" on="0"/>
        <pt x="286" y="861" on="0"/>
        <pt x="310" y="924" on="0"/>
        <pt x="336" y="1011" on="0"/>
        <pt x="350" y="1054" on="1"/>
        <pt x="386" y="1157" on="0"/>
        <pt x="417" y="1190" on="1"/>
        <pt x="474" y="1237" on="0"/>
        <pt x="722" y="1294" on="1"/>
        <pt x="997" y="1357" on="0"/>
        <pt x="1260" y="1357" on="1"/>
        <pt x="1370" y="1357" on="0"/>
        <pt x="1442" y="1276" on="1"/>
        <pt x="1504" y="1206" on="0"/>
        <pt x="1504" y="1129" on="1"/>
        <pt x="1504" y="1063" on="0"/>
        <pt x="1406" y="816" on="1"/>
        <pt x="1251" y="422" on="0"/>
        <pt x="1089" y="200" on="1"/>
        <pt x="1044" y="138" on="0"/>
        <pt x="1000" y="99" on="1"/>
        <pt x="936" y="49" on="0"/>
        <pt x="832" y="15" on="1"/>
        <pt x="656" y="-44" on="0"/>
        <pt x="551" y="-44" on="0"/>
        <pt x="449" y="-17" on="0"/>
        <pt x="354" y="26" on="0"/>
        <pt x="272" y="81" on="0"/>
        <pt x="241" y="108" on="1"/>
        <pt x="175" y="167" on="0"/>
        <pt x="175" y="204" on="1"/>
        <pt x="175" y="239" on="0"/>
        <pt x="260" y="317" on="1"/>
        <pt x="347" y="397" on="0"/>
        <pt x="403" y="397" on="1"/>
        <pt x="441" y="397" on="0"/>
        <pt x="495" y="368" on="1"/>
        <pt x="572" y="324" on="1"/>
        <pt x="597" y="311" on="0"/>
        <pt x="636" y="311" on="0"/>
        <pt x="706" y="368" on="0"/>
        <pt x="786" y="462" on="0"/>
        <pt x="871" y="584" on="0"/>
        <pt x="952" y="713" on="0"/>
        <pt x="1025" y="841" on="0"/>
        <pt x="1052" y="894" on="1"/>
        <pt x="1112" y="1009" on="0"/>
      </contour>
    </TTGlyph>
    <TTGlyph name="Idieresis" xMin="175" yMin="-44" xMax="1733" yMax="1916">
      <contour>
        <pt x="1601" y="1545" on="0"/>
        <pt x="1541" y="1515" on="0"/>
        <pt x="1469" y="1515" on="0"/>
        <pt x="1402" y="1542" on="0"/>
        <pt x="1376" y="1567" on="1"/>
        <pt x="1322" y="1620" on="0"/>
        <pt x="1322" y="1704" on="1"/>
        <pt x="1322" y="1833" on="0"/>
        <pt x="1510" y="1895" on="1"/>
        <pt x="1573" y="1916" on="0"/>
        <pt x="1654" y="1916" on="0"/>
        <pt x="1694" y="1896" on="0"/>
        <pt x="1707" y="1879" on="1"/>
        <pt x="1733" y="1845" on="0"/>
        <pt x="1733" y="1774" on="0"/>
        <pt x="1718" y="1717" on="0"/>
        <pt x="1691" y="1655" on="0"/>
        <pt x="1651" y="1594" on="0"/>
      </contour>
      <contour>
        <pt x="979" y="1545" on="0"/>
        <pt x="919" y="1515" on="0"/>
        <pt x="847" y="1515" on="0"/>
        <pt x="780" y="1542" on="0"/>
        <pt x="754" y="1567" on="1"/>
        <pt x="700" y="1620" on="0"/>
        <pt x="700" y="1704" on="1"/>
        <pt x="700" y="1833" on="0"/>
        <pt x="888" y="1895" on="1"/>
        <pt x="951" y="1916" on="0"/>
        <pt x="1032" y="1916" on="0"/>
        <pt x="1072" y="1896" on="0"/>
        <pt x="1085" y="1879" on="1"/>
        <pt x="1111" y="1845" on="0"/>
        <pt x="1111" y="1774" on="0"/>
        <pt x="1096" y="1717" on="0"/>
        <pt x="1069" y="1655" on="0"/>
        <pt x="1029" y="1594" on="0"/>
      </contour>
      <contour>
        <pt x="1112" y="1034" on="1"/>
        <pt x="1112" y="1102" on="0"/>
        <pt x="1011" y="1102" on="0"/>
        <pt x="862" y="1066" on="0"/>
        <pt x="777" y="1028" on="1"/>
        <pt x="583" y="941" on="0"/>
        <pt x="426" y="788" on="1"/>
        <pt x="405" y="770" on="0"/>
        <pt x="334" y="770" on="0"/>
        <pt x="286" y="805" on="0"/>
        <pt x="286" y="861" on="0"/>
        <pt x="310" y="924" on="0"/>
        <pt x="336" y="1011" on="0"/>
        <pt x="350" y="1054" on="1"/>
        <pt x="386" y="1157" on="0"/>
        <pt x="417" y="1190" on="1"/>
        <pt x="474" y="1237" on="0"/>
        <pt x="722" y="1294" on="1"/>
        <pt x="997" y="1357" on="0"/>
        <pt x="1260" y="1357" on="1"/>
        <pt x="1370" y="1357" on="0"/>
        <pt x="1442" y="1276" on="1"/>
        <pt x="1504" y="1206" on="0"/>
        <pt x="1504" y="1129" on="1"/>
        <pt x="1504" y="1063" on="0"/>
        <pt x="1406" y="816" on="1"/>
        <pt x="1251" y="422" on="0"/>
        <pt x="1089" y="200" on="1"/>
        <pt x="1044" y="138" on="0"/>
        <pt x="1000" y="99" on="1"/>
        <pt x="936" y="49" on="0"/>
        <pt x="832" y="15" on="1"/>
        <pt x="656" y="-44" on="0"/>
        <pt x="551" y="-44" on="0"/>
        <pt x="449" y="-17" on="0"/>
        <pt x="354" y="26" on="0"/>
        <pt x="272" y="81" on="0"/>
        <pt x="241" y="108" on="1"/>
        <pt x="175" y="167" on="0"/>
        <pt x="175" y="204" on="1"/>
        <pt x="175" y="239" on="0"/>
        <pt x="260" y="317" on="1"/>
        <pt x="347" y="397" on="0"/>
        <pt x="403" y="397" on="1"/>
        <pt x="441" y="397" on="0"/>
        <pt x="495" y="368" on="1"/>
        <pt x="572" y="324" on="1"/>
        <pt x="597" y="311" on="0"/>
        <pt x="636" y="311" on="0"/>
        <pt x="706" y="368" on="0"/>
        <pt x="786" y="462" on="0"/>
        <pt x="871" y="584" on="0"/>
        <pt x="952" y="713" on="0"/>
        <pt x="1025" y="841" on="0"/>
        <pt x="1052" y="894" on="1"/>
        <pt x="1112" y="1009" on="0"/>
      </contour>
    </TTGlyph>
    <TTGlyph name="Idotaccent" xMin="175" yMin="-44" xMax="1504" yMax="1916">
      <contour>
        <pt x="1321" y="1542" on="0"/>
        <pt x="1253" y="1511" on="0"/>
        <pt x="1169" y="1511" on="0"/>
        <pt x="1091" y="1539" on="0"/>
        <pt x="1062" y="1564" on="1"/>
        <pt x="999" y="1618" on="0"/>
        <pt x="999" y="1702" on="1"/>
        <pt x="999" y="1831" on="0"/>
        <pt x="1215" y="1894" on="1"/>
        <pt x="1288" y="1916" on="0"/>
        <pt x="1382" y="1916" on="0"/>
        <pt x="1429" y="1895" on="0"/>
        <pt x="1444" y="1878" on="1"/>
        <pt x="1474" y="1844" on="0"/>
        <pt x="1474" y="1773" on="0"/>
        <pt x="1457" y="1715" on="0"/>
        <pt x="1425" y="1653" on="0"/>
        <pt x="1379" y="1591" on="0"/>
      </contour>
      <contour>
        <pt x="1112" y="1034" on="1"/>
        <pt x="1112" y="1102" on="0"/>
        <pt x="1011" y="1102" on="0"/>
        <pt x="862" y="1066" on="0"/>
        <pt x="777" y="1028" on="1"/>
        <pt x="583" y="941" on="0"/>
        <pt x="426" y="788" on="1"/>
        <pt x="405" y="770" on="0"/>
        <pt x="334" y="770" on="0"/>
        <pt x="286" y="805" on="0"/>
        <pt x="286" y="861" on="0"/>
        <pt x="310" y="924" on="0"/>
        <pt x="336" y="1011" on="0"/>
        <pt x="350" y="1054" on="1"/>
        <pt x="386" y="1157" on="0"/>
        <pt x="417" y="1190" on="1"/>
        <pt x="474" y="1237" on="0"/>
        <pt x="722" y="1294" on="1"/>
        <pt x="997" y="1357" on="0"/>
        <pt x="1260" y="1357" on="1"/>
        <pt x="1370" y="1357" on="0"/>
        <pt x="1442" y="1276" on="1"/>
        <pt x="1504" y="1206" on="0"/>
        <pt x="1504" y="1129" on="1"/>
        <pt x="1504" y="1063" on="0"/>
        <pt x="1406" y="816" on="1"/>
        <pt x="1251" y="422" on="0"/>
        <pt x="1089" y="200" on="1"/>
        <pt x="1044" y="138" on="0"/>
        <pt x="1000" y="99" on="1"/>
        <pt x="936" y="49" on="0"/>
        <pt x="832" y="15" on="1"/>
        <pt x="656" y="-44" on="0"/>
        <pt x="551" y="-44" on="0"/>
        <pt x="449" y="-17" on="0"/>
        <pt x="354" y="26" on="0"/>
        <pt x="272" y="81" on="0"/>
        <pt x="241" y="108" on="1"/>
        <pt x="175" y="167" on="0"/>
        <pt x="175" y="204" on="1"/>
        <pt x="175" y="239" on="0"/>
        <pt x="260" y="317" on="1"/>
        <pt x="347" y="397" on="0"/>
        <pt x="403" y="397" on="1"/>
        <pt x="441" y="397" on="0"/>
        <pt x="495" y="368" on="1"/>
        <pt x="572" y="324" on="1"/>
        <pt x="597" y="311" on="0"/>
        <pt x="636" y="311" on="0"/>
        <pt x="706" y="368" on="0"/>
        <pt x="786" y="462" on="0"/>
        <pt x="871" y="584" on="0"/>
        <pt x="952" y="713" on="0"/>
        <pt x="1025" y="841" on="0"/>
        <pt x="1052" y="894" on="1"/>
        <pt x="1112" y="1009" on="0"/>
      </contour>
    </TTGlyph>
    <TTGlyph name="Igrave" xMin="175" yMin="-44" xMax="1504" yMax="1913">
      <contour>
        <pt x="643" y="1721" on="0"/>
        <pt x="643" y="1790" on="0"/>
        <pt x="655" y="1842" on="0"/>
        <pt x="668" y="1864" on="1"/>
        <pt x="700" y="1913" on="0"/>
        <pt x="757" y="1913" on="1"/>
        <pt x="789" y="1913" on="0"/>
        <pt x="840" y="1872" on="1"/>
        <pt x="925" y="1800" on="1"/>
        <pt x="960" y="1771" on="0"/>
        <pt x="1002" y="1742" on="1"/>
        <pt x="1171" y="1630" on="1"/>
        <pt x="1254" y="1576" on="0"/>
        <pt x="1283" y="1517" on="0"/>
        <pt x="1283" y="1458" on="0"/>
        <pt x="1252" y="1444" on="1"/>
        <pt x="1244" y="1439" on="0"/>
        <pt x="1192" y="1439" on="0"/>
        <pt x="1093" y="1461" on="0"/>
        <pt x="977" y="1498" on="0"/>
        <pt x="856" y="1548" on="0"/>
        <pt x="804" y="1576" on="1"/>
        <pt x="685" y="1641" on="0"/>
      </contour>
      <contour>
        <pt x="1112" y="1034" on="1"/>
        <pt x="1112" y="1102" on="0"/>
        <pt x="1011" y="1102" on="0"/>
        <pt x="862" y="1066" on="0"/>
        <pt x="777" y="1028" on="1"/>
        <pt x="583" y="941" on="0"/>
        <pt x="426" y="788" on="1"/>
        <pt x="405" y="770" on="0"/>
        <pt x="334" y="770" on="0"/>
        <pt x="286" y="805" on="0"/>
        <pt x="286" y="861" on="0"/>
        <pt x="310" y="924" on="0"/>
        <pt x="336" y="1011" on="0"/>
        <pt x="350" y="1054" on="1"/>
        <pt x="386" y="1157" on="0"/>
        <pt x="417" y="1190" on="1"/>
        <pt x="474" y="1237" on="0"/>
        <pt x="722" y="1294" on="1"/>
        <pt x="997" y="1357" on="0"/>
        <pt x="1260" y="1357" on="1"/>
        <pt x="1370" y="1357" on="0"/>
        <pt x="1442" y="1276" on="1"/>
        <pt x="1504" y="1206" on="0"/>
        <pt x="1504" y="1129" on="1"/>
        <pt x="1504" y="1063" on="0"/>
        <pt x="1406" y="816" on="1"/>
        <pt x="1251" y="422" on="0"/>
        <pt x="1089" y="200" on="1"/>
        <pt x="1044" y="138" on="0"/>
        <pt x="1000" y="99" on="1"/>
        <pt x="936" y="49" on="0"/>
        <pt x="832" y="15" on="1"/>
        <pt x="656" y="-44" on="0"/>
        <pt x="551" y="-44" on="0"/>
        <pt x="449" y="-17" on="0"/>
        <pt x="354" y="26" on="0"/>
        <pt x="272" y="81" on="0"/>
        <pt x="241" y="108" on="1"/>
        <pt x="175" y="167" on="0"/>
        <pt x="175" y="204" on="1"/>
        <pt x="175" y="239" on="0"/>
        <pt x="260" y="317" on="1"/>
        <pt x="347" y="397" on="0"/>
        <pt x="403" y="397" on="1"/>
        <pt x="441" y="397" on="0"/>
        <pt x="495" y="368" on="1"/>
        <pt x="572" y="324" on="1"/>
        <pt x="597" y="311" on="0"/>
        <pt x="636" y="311" on="0"/>
        <pt x="706" y="368" on="0"/>
        <pt x="786" y="462" on="0"/>
        <pt x="871" y="584" on="0"/>
        <pt x="952" y="713" on="0"/>
        <pt x="1025" y="841" on="0"/>
        <pt x="1052" y="894" on="1"/>
        <pt x="1112" y="1009" on="0"/>
      </contour>
    </TTGlyph>
    <TTGlyph name="Imacron" xMin="175" yMin="-44" xMax="1631" yMax="1851">
      <contour>
        <pt x="847" y="1619" on="1"/>
        <pt x="812" y="1619" on="0"/>
        <pt x="812" y="1660" on="1"/>
        <pt x="812" y="1699" on="0"/>
        <pt x="857" y="1779" on="0"/>
        <pt x="897" y="1812" on="0"/>
        <pt x="920" y="1824" on="1"/>
        <pt x="970" y="1851" on="0"/>
        <pt x="1008" y="1851" on="1"/>
        <pt x="1587" y="1851" on="1"/>
        <pt x="1603" y="1851" on="0"/>
        <pt x="1631" y="1828" on="0"/>
        <pt x="1631" y="1808" on="1"/>
        <pt x="1631" y="1768" on="0"/>
        <pt x="1578" y="1679" on="0"/>
        <pt x="1505" y="1618" on="0"/>
        <pt x="1467" y="1618" on="1"/>
      </contour>
      <contour>
        <pt x="1112" y="1034" on="1"/>
        <pt x="1112" y="1102" on="0"/>
        <pt x="1011" y="1102" on="0"/>
        <pt x="862" y="1066" on="0"/>
        <pt x="777" y="1028" on="1"/>
        <pt x="583" y="941" on="0"/>
        <pt x="426" y="788" on="1"/>
        <pt x="405" y="770" on="0"/>
        <pt x="334" y="770" on="0"/>
        <pt x="286" y="805" on="0"/>
        <pt x="286" y="861" on="0"/>
        <pt x="310" y="924" on="0"/>
        <pt x="336" y="1011" on="0"/>
        <pt x="350" y="1054" on="1"/>
        <pt x="386" y="1157" on="0"/>
        <pt x="417" y="1190" on="1"/>
        <pt x="474" y="1237" on="0"/>
        <pt x="722" y="1294" on="1"/>
        <pt x="997" y="1357" on="0"/>
        <pt x="1260" y="1357" on="1"/>
        <pt x="1370" y="1357" on="0"/>
        <pt x="1442" y="1276" on="1"/>
        <pt x="1504" y="1206" on="0"/>
        <pt x="1504" y="1129" on="1"/>
        <pt x="1504" y="1063" on="0"/>
        <pt x="1406" y="816" on="1"/>
        <pt x="1251" y="422" on="0"/>
        <pt x="1089" y="200" on="1"/>
        <pt x="1044" y="138" on="0"/>
        <pt x="1000" y="99" on="1"/>
        <pt x="936" y="49" on="0"/>
        <pt x="832" y="15" on="1"/>
        <pt x="656" y="-44" on="0"/>
        <pt x="551" y="-44" on="0"/>
        <pt x="449" y="-17" on="0"/>
        <pt x="354" y="26" on="0"/>
        <pt x="272" y="81" on="0"/>
        <pt x="241" y="108" on="1"/>
        <pt x="175" y="167" on="0"/>
        <pt x="175" y="204" on="1"/>
        <pt x="175" y="239" on="0"/>
        <pt x="260" y="317" on="1"/>
        <pt x="347" y="397" on="0"/>
        <pt x="403" y="397" on="1"/>
        <pt x="441" y="397" on="0"/>
        <pt x="495" y="368" on="1"/>
        <pt x="572" y="324" on="1"/>
        <pt x="597" y="311" on="0"/>
        <pt x="636" y="311" on="0"/>
        <pt x="706" y="368" on="0"/>
        <pt x="786" y="462" on="0"/>
        <pt x="871" y="584" on="0"/>
        <pt x="952" y="713" on="0"/>
        <pt x="1025" y="841" on="0"/>
        <pt x="1052" y="894" on="1"/>
        <pt x="1112" y="1009" on="0"/>
      </contour>
    </TTGlyph>
    <TTGlyph name="Iogonek" xMin="175" yMin="-644" xMax="1504" yMax="1357">
      <contour>
        <pt x="488" y="-27" on="1"/>
        <pt x="371" y="6" on="0"/>
        <pt x="270" y="84" on="1"/>
        <pt x="175" y="159" on="0"/>
        <pt x="175" y="204" on="1"/>
        <pt x="175" y="239" on="0"/>
        <pt x="260" y="317" on="1"/>
        <pt x="347" y="397" on="0"/>
        <pt x="403" y="397" on="1"/>
        <pt x="441" y="397" on="0"/>
        <pt x="495" y="368" on="1"/>
        <pt x="572" y="324" on="1"/>
        <pt x="597" y="311" on="0"/>
        <pt x="636" y="311" on="0"/>
        <pt x="706" y="368" on="0"/>
        <pt x="786" y="462" on="0"/>
        <pt x="871" y="584" on="0"/>
        <pt x="952" y="713" on="0"/>
        <pt x="1025" y="841" on="0"/>
        <pt x="1052" y="894" on="1"/>
        <pt x="1112" y="1009" on="0"/>
        <pt x="1112" y="1034" on="1"/>
        <pt x="1112" y="1102" on="0"/>
        <pt x="1011" y="1102" on="0"/>
        <pt x="862" y="1066" on="0"/>
        <pt x="777" y="1028" on="1"/>
        <pt x="583" y="941" on="0"/>
        <pt x="426" y="788" on="1"/>
        <pt x="405" y="770" on="0"/>
        <pt x="334" y="770" on="0"/>
        <pt x="286" y="805" on="0"/>
        <pt x="286" y="861" on="0"/>
        <pt x="310" y="924" on="0"/>
        <pt x="336" y="1011" on="0"/>
        <pt x="350" y="1054" on="1"/>
        <pt x="386" y="1157" on="0"/>
        <pt x="417" y="1190" on="1"/>
        <pt x="474" y="1237" on="0"/>
        <pt x="722" y="1294" on="1"/>
        <pt x="997" y="1357" on="0"/>
        <pt x="1260" y="1357" on="1"/>
        <pt x="1370" y="1357" on="0"/>
        <pt x="1442" y="1276" on="1"/>
        <pt x="1504" y="1206" on="0"/>
        <pt x="1504" y="1129" on="1"/>
        <pt x="1504" y="1034" on="0"/>
        <pt x="1354" y="688" on="1"/>
        <pt x="1187" y="300" on="0"/>
        <pt x="1035" y="134" on="1"/>
        <pt x="1022" y="99" on="0"/>
        <pt x="1002" y="87" on="1"/>
        <pt x="950" y="54" on="1"/>
        <pt x="754" y="-69" on="0"/>
        <pt x="686" y="-180" on="1"/>
        <pt x="666" y="-211" on="0"/>
        <pt x="666" y="-269" on="0"/>
        <pt x="682" y="-304" on="0"/>
        <pt x="694" y="-314" on="1"/>
        <pt x="712" y="-328" on="0"/>
        <pt x="813" y="-328" on="0"/>
        <pt x="900" y="-316" on="0"/>
        <pt x="934" y="-309" on="1"/>
        <pt x="1000" y="-296" on="1"/>
        <pt x="1030" y="-290" on="0"/>
        <pt x="1068" y="-290" on="1"/>
        <pt x="1151" y="-290" on="0"/>
        <pt x="1151" y="-393" on="1"/>
        <pt x="1151" y="-421" on="0"/>
        <pt x="1051" y="-506" on="0"/>
        <pt x="957" y="-565" on="0"/>
        <pt x="896" y="-589" on="1"/>
        <pt x="756" y="-644" on="0"/>
        <pt x="605" y="-644" on="1"/>
        <pt x="447" y="-644" on="0"/>
        <pt x="341" y="-554" on="1"/>
        <pt x="238" y="-467" on="0"/>
        <pt x="238" y="-208" on="0"/>
      </contour>
    </TTGlyph>
    <TTGlyph name="Itilde" xMin="175" yMin="-44" xMax="1751" yMax="1860">
      <contour>
        <pt x="844" y="1591" on="0"/>
        <pt x="807" y="1570" on="0"/>
        <pt x="774" y="1570" on="0"/>
        <pt x="746" y="1581" on="0"/>
        <pt x="735" y="1590" on="1"/>
        <pt x="711" y="1610" on="0"/>
        <pt x="711" y="1662" on="0"/>
        <pt x="742" y="1695" on="0"/>
        <pt x="793" y="1731" on="0"/>
        <pt x="862" y="1770" on="0"/>
        <pt x="946" y="1809" on="0"/>
        <pt x="990" y="1824" on="1"/>
        <pt x="1092" y="1860" on="0"/>
        <pt x="1223" y="1860" on="0"/>
        <pt x="1315" y="1808" on="0"/>
        <pt x="1393" y="1745" on="0"/>
        <pt x="1464" y="1693" on="0"/>
        <pt x="1498" y="1693" on="1"/>
        <pt x="1571" y="1693" on="0"/>
        <pt x="1643" y="1724" on="1"/>
        <pt x="1662" y="1731" on="0"/>
        <pt x="1705" y="1731" on="0"/>
        <pt x="1751" y="1694" on="0"/>
        <pt x="1751" y="1643" on="0"/>
        <pt x="1709" y="1606" on="0"/>
        <pt x="1619" y="1558" on="0"/>
        <pt x="1560" y="1536" on="1"/>
        <pt x="1416" y="1483" on="0"/>
        <pt x="1303" y="1483" on="1"/>
        <pt x="1222" y="1483" on="0"/>
        <pt x="1108" y="1552" on="1"/>
        <pt x="1032" y="1598" on="1"/>
        <pt x="998" y="1620" on="0"/>
        <pt x="977" y="1620" on="1"/>
        <pt x="911" y="1620" on="0"/>
      </contour>
      <contour>
        <pt x="1112" y="1034" on="1"/>
        <pt x="1112" y="1102" on="0"/>
        <pt x="1011" y="1102" on="0"/>
        <pt x="862" y="1066" on="0"/>
        <pt x="777" y="1028" on="1"/>
        <pt x="583" y="941" on="0"/>
        <pt x="426" y="788" on="1"/>
        <pt x="405" y="770" on="0"/>
        <pt x="334" y="770" on="0"/>
        <pt x="286" y="805" on="0"/>
        <pt x="286" y="861" on="0"/>
        <pt x="310" y="924" on="0"/>
        <pt x="336" y="1011" on="0"/>
        <pt x="350" y="1054" on="1"/>
        <pt x="386" y="1157" on="0"/>
        <pt x="417" y="1190" on="1"/>
        <pt x="474" y="1237" on="0"/>
        <pt x="722" y="1294" on="1"/>
        <pt x="997" y="1357" on="0"/>
        <pt x="1260" y="1357" on="1"/>
        <pt x="1370" y="1357" on="0"/>
        <pt x="1442" y="1276" on="1"/>
        <pt x="1504" y="1206" on="0"/>
        <pt x="1504" y="1129" on="1"/>
        <pt x="1504" y="1063" on="0"/>
        <pt x="1406" y="816" on="1"/>
        <pt x="1251" y="422" on="0"/>
        <pt x="1089" y="200" on="1"/>
        <pt x="1044" y="138" on="0"/>
        <pt x="1000" y="99" on="1"/>
        <pt x="936" y="49" on="0"/>
        <pt x="832" y="15" on="1"/>
        <pt x="656" y="-44" on="0"/>
        <pt x="551" y="-44" on="0"/>
        <pt x="449" y="-17" on="0"/>
        <pt x="354" y="26" on="0"/>
        <pt x="272" y="81" on="0"/>
        <pt x="241" y="108" on="1"/>
        <pt x="175" y="167" on="0"/>
        <pt x="175" y="204" on="1"/>
        <pt x="175" y="239" on="0"/>
        <pt x="260" y="317" on="1"/>
        <pt x="347" y="397" on="0"/>
        <pt x="403" y="397" on="1"/>
        <pt x="441" y="397" on="0"/>
        <pt x="495" y="368" on="1"/>
        <pt x="572" y="324" on="1"/>
        <pt x="597" y="311" on="0"/>
        <pt x="636" y="311" on="0"/>
        <pt x="706" y="368" on="0"/>
        <pt x="786" y="462" on="0"/>
        <pt x="871" y="584" on="0"/>
        <pt x="952" y="713" on="0"/>
        <pt x="1025" y="841" on="0"/>
        <pt x="1052" y="894" on="1"/>
        <pt x="1112" y="1009" on="0"/>
      </contour>
    </TTGlyph>
    <TTGlyph name="J" xMin="34" yMin="-358" xMax="1838" yMax="1357">
      <contour>
        <pt x="222" y="282" on="1"/>
        <pt x="204" y="274" on="0"/>
        <pt x="159" y="274" on="0"/>
        <pt x="104" y="338" on="0"/>
        <pt x="82" y="386" on="1"/>
        <pt x="34" y="494" on="0"/>
        <pt x="34" y="597" on="1"/>
        <pt x="34" y="662" on="0"/>
        <pt x="59" y="700" on="1"/>
        <pt x="59" y="700" on="0"/>
        <pt x="152" y="802" on="1"/>
        <pt x="196" y="852" on="0"/>
        <pt x="247" y="890" on="1"/>
        <pt x="837" y="1320" on="0"/>
        <pt x="1442" y="1352" on="1"/>
        <pt x="1527" y="1357" on="0"/>
        <pt x="1621" y="1357" on="0"/>
        <pt x="1680" y="1330" on="0"/>
        <pt x="1734" y="1287" on="0"/>
        <pt x="1782" y="1234" on="0"/>
        <pt x="1800" y="1208" on="1"/>
        <pt x="1838" y="1155" on="0"/>
        <pt x="1838" y="1111" on="0"/>
        <pt x="1820" y="1052" on="0"/>
        <pt x="1796" y="983" on="0"/>
        <pt x="1782" y="949" on="1"/>
        <pt x="1760" y="891" on="1"/>
        <pt x="1611" y="506" on="0"/>
        <pt x="1406" y="168" on="1"/>
        <pt x="1338" y="55" on="0"/>
        <pt x="1247" y="-68" on="0"/>
        <pt x="1186" y="-142" on="0"/>
        <pt x="1116" y="-214" on="0"/>
        <pt x="1036" y="-279" on="0"/>
        <pt x="994" y="-304" on="1"/>
        <pt x="902" y="-358" on="0"/>
        <pt x="812" y="-358" on="1"/>
        <pt x="752" y="-358" on="0"/>
        <pt x="676" y="-295" on="1"/>
        <pt x="596" y="-228" on="0"/>
        <pt x="596" y="-159" on="1"/>
        <pt x="596" y="-47" on="0"/>
        <pt x="815" y="168" on="1"/>
        <pt x="930" y="281" on="0"/>
        <pt x="1118" y="422" on="0"/>
        <pt x="1160" y="447" on="1"/>
        <pt x="1317" y="744" on="0"/>
        <pt x="1353" y="819" on="1"/>
        <pt x="1409" y="938" on="1"/>
        <pt x="1451" y="1031" on="0"/>
        <pt x="1451" y="1049" on="1"/>
        <pt x="1451" y="1094" on="0"/>
        <pt x="1355" y="1094" on="0"/>
        <pt x="1205" y="1048" on="0"/>
        <pt x="1033" y="969" on="0"/>
        <pt x="848" y="864" on="0"/>
        <pt x="671" y="747" on="0"/>
        <pt x="510" y="623" on="0"/>
        <pt x="448" y="565" on="1"/>
        <pt x="311" y="438" on="0"/>
        <pt x="298" y="369" on="1"/>
        <pt x="285" y="307" on="0"/>
      </contour>
    </TTGlyph>
    <TTGlyph name="Jcircumflex" xMin="34" yMin="-358" xMax="2016" yMax="1880">
      <contour>
        <pt x="1386" y="1587" on="0"/>
        <pt x="1310" y="1538" on="0"/>
        <pt x="1269" y="1503" on="0"/>
        <pt x="1236" y="1503" on="0"/>
        <pt x="1210" y="1514" on="0"/>
        <pt x="1199" y="1524" on="1"/>
        <pt x="1175" y="1546" on="0"/>
        <pt x="1175" y="1565" on="1"/>
        <pt x="1175" y="1600" on="0"/>
        <pt x="1216" y="1643" on="0"/>
        <pt x="1287" y="1700" on="0"/>
        <pt x="1374" y="1758" on="0"/>
        <pt x="1472" y="1812" on="0"/>
        <pt x="1522" y="1834" on="1"/>
        <pt x="1629" y="1880" on="0"/>
        <pt x="1743" y="1880" on="0"/>
        <pt x="1823" y="1839" on="0"/>
        <pt x="1862" y="1807" on="1"/>
        <pt x="1919" y="1759" on="0"/>
        <pt x="2001" y="1656" on="1"/>
        <pt x="2016" y="1641" on="0"/>
        <pt x="2016" y="1599" on="0"/>
        <pt x="1979" y="1554" on="0"/>
        <pt x="1952" y="1536" on="1"/>
        <pt x="1889" y="1495" on="0"/>
        <pt x="1833" y="1495" on="1"/>
        <pt x="1793" y="1495" on="0"/>
        <pt x="1578" y="1650" on="0"/>
        <pt x="1527" y="1650" on="0"/>
        <pt x="1462" y="1626" on="0"/>
      </contour>
      <contour>
        <pt x="222" y="282" on="1"/>
        <pt x="204" y="274" on="0"/>
        <pt x="159" y="274" on="0"/>
        <pt x="104" y="338" on="0"/>
        <pt x="82" y="386" on="1"/>
        <pt x="34" y="494" on="0"/>
        <pt x="34" y="597" on="1"/>
        <pt x="34" y="662" on="0"/>
        <pt x="59" y="700" on="1"/>
        <pt x="152" y="802" on="1"/>
        <pt x="196" y="852" on="0"/>
        <pt x="247" y="890" on="1"/>
        <pt x="837" y="1320" on="0"/>
        <pt x="1442" y="1352" on="1"/>
        <pt x="1527" y="1357" on="0"/>
        <pt x="1621" y="1357" on="0"/>
        <pt x="1680" y="1330" on="0"/>
        <pt x="1734" y="1287" on="0"/>
        <pt x="1782" y="1234" on="0"/>
        <pt x="1800" y="1208" on="1"/>
        <pt x="1838" y="1155" on="0"/>
        <pt x="1838" y="1111" on="0"/>
        <pt x="1820" y="1052" on="0"/>
        <pt x="1796" y="983" on="0"/>
        <pt x="1782" y="949" on="1"/>
        <pt x="1760" y="891" on="1"/>
        <pt x="1611" y="506" on="0"/>
        <pt x="1406" y="168" on="1"/>
        <pt x="1338" y="55" on="0"/>
        <pt x="1247" y="-68" on="0"/>
        <pt x="1186" y="-142" on="0"/>
        <pt x="1116" y="-214" on="0"/>
        <pt x="1036" y="-279" on="0"/>
        <pt x="994" y="-304" on="1"/>
        <pt x="902" y="-358" on="0"/>
        <pt x="812" y="-358" on="1"/>
        <pt x="752" y="-358" on="0"/>
        <pt x="676" y="-295" on="1"/>
        <pt x="596" y="-228" on="0"/>
        <pt x="596" y="-159" on="1"/>
        <pt x="596" y="-47" on="0"/>
        <pt x="815" y="168" on="1"/>
        <pt x="930" y="281" on="0"/>
        <pt x="1118" y="422" on="0"/>
        <pt x="1160" y="447" on="1"/>
        <pt x="1317" y="744" on="0"/>
        <pt x="1353" y="819" on="1"/>
        <pt x="1409" y="938" on="1"/>
        <pt x="1451" y="1031" on="0"/>
        <pt x="1451" y="1049" on="1"/>
        <pt x="1451" y="1094" on="0"/>
        <pt x="1355" y="1094" on="0"/>
        <pt x="1205" y="1048" on="0"/>
        <pt x="1033" y="969" on="0"/>
        <pt x="848" y="864" on="0"/>
        <pt x="671" y="747" on="0"/>
        <pt x="510" y="623" on="0"/>
        <pt x="448" y="565" on="1"/>
        <pt x="311" y="438" on="0"/>
        <pt x="298" y="369" on="1"/>
        <pt x="285" y="307" on="0"/>
      </contour>
    </TTGlyph>
</ttFont>
